<svg width="37" height="18" viewBox="0 0 37 18" fill="none" xmlns="http://www.w3.org/2000/svg">
<path d="M36.7554 8.42607L28.3466 0.284595C28.0445 -0.0569072 27.5136 -0.0967174 27.1609 0.195809C26.8082 0.488265 26.7671 1.00223 27.0692 1.34373C27.0974 1.37557 27.128 1.4053 27.1609 1.43252L34.1319 8.18994H0.840868C0.376497 8.18994 0 8.55446 0 9.00413C0 9.4538 0.376497 9.81825 0.840868 9.81825H34.1319L27.1609 16.5675C26.8082 16.8599 26.7671 17.3739 27.0692 17.7154C27.3713 18.0569 27.9021 18.0967 28.2549 17.8042C28.2877 17.7769 28.3184 17.7472 28.3466 17.7154L36.7555 9.57393C37.0815 9.25649 37.0815 8.74365 36.7554 8.42607Z" fill="#3F3C39" fillOpacity="0.3"/>
</svg>
