<svg width="37" height="18" viewBox="0 0 37 18" fill="none" xmlns="http://www.w3.org/2000/svg">
<path d="M0.244553 8.42607L8.65345 0.284595C8.95551 -0.0569072 9.48636 -0.0967174 9.83909 0.195809C10.1918 0.488265 10.2329 1.00223 9.93079 1.34373C9.90261 1.37557 9.87197 1.4053 9.83909 1.43252L2.86811 8.18994H36.1591C36.6235 8.18994 37 8.55446 37 9.00413C37 9.4538 36.6235 9.81825 36.1591 9.81825H2.86811L9.83909 16.5675C10.1918 16.8599 10.2329 17.3739 9.93079 17.7154C9.62865 18.0569 9.09787 18.0967 8.74515 17.8042C8.71227 17.7769 8.68156 17.7472 8.65345 17.7154L0.24448 9.57393C-0.0815048 9.25649 -0.0815048 8.74365 0.244553 8.42607Z" fill="white"/>
</svg>
