<svg width="72" height="99" viewBox="0 0 72 99" fill="none" xmlns="http://www.w3.org/2000/svg">
<path d="M70.1921 30.9584L65.5585 25.3367C64.9238 24.569 64.5343 23.6284 64.4405 22.6368L63.7418 15.3849C63.3788 11.6173 60.3805 8.61904 56.6127 8.25608L49.3611 7.55812C48.3696 7.46364 47.4291 7.07423 46.661 6.44014L41.0395 1.80534C38.1188 -0.601781 33.879 -0.601781 30.9584 1.80534L25.3365 6.43994C24.5686 7.07426 23.6281 7.4637 22.6366 7.55792L15.3847 8.25608C11.6173 8.61904 8.62 11.6173 8.25608 15.3849L7.55812 22.6366C7.46364 23.6281 7.07423 24.5686 6.44014 25.3367L1.80534 30.9584C-0.601781 33.8792 -0.601781 38.119 1.80534 41.0397L6.43975 46.6612C7.07385 47.4293 7.46325 48.3698 7.55773 49.3613L8.25589 56.6129C8.61885 60.3807 11.6172 63.3782 15.3847 63.742L19.8175 64.1687L9.28597 89.3346C9.14565 89.6674 9.10279 90.0332 9.16238 90.3893C9.22196 90.7455 9.38154 91.0774 9.62252 91.3464C10.1156 91.9015 10.8648 92.1213 11.5771 91.9189L20.7142 89.3391C20.7323 89.3335 20.7517 89.3344 20.7692 89.3414C20.7867 89.3484 20.8013 89.3612 20.8106 89.3776L25.3862 97.6977C25.5501 97.9991 25.7925 98.2506 26.0878 98.4255C26.383 98.6003 26.7201 98.692 27.0632 98.6908C27.0961 98.6908 27.1293 98.69 27.1632 98.6884C27.9034 98.6509 28.5434 98.2037 28.8363 97.514L39.955 70.9423C40.337 70.7231 40.7 70.4723 41.0402 70.1925L46.6616 65.5587C47.3693 64.9749 48.2249 64.5984 49.1334 64.4708L59.2041 88.5343L52.0776 86.5223C51.4233 86.3355 50.7249 86.3768 50.0971 86.6394C49.4693 86.902 48.9495 87.3702 48.623 87.9672L45.0547 94.4554L40.327 83.1574C40.1772 82.7993 39.8911 82.5153 39.5319 82.368C39.1726 82.2208 38.7696 82.2222 38.4114 82.3721C38.2342 82.4463 38.0733 82.5546 37.9379 82.691C37.8025 82.8274 37.6953 82.9891 37.6225 83.1669C37.5496 83.3447 37.5125 83.5351 37.5133 83.7273C37.514 83.9194 37.5527 84.1095 37.6269 84.2868L43.1648 97.5213C43.3043 97.8539 43.5352 98.1402 43.8309 98.3467C44.1265 98.5533 44.4747 98.6718 44.835 98.6884C44.8687 98.69 44.9019 98.6915 44.9352 98.6915C45.2784 98.6925 45.6154 98.6007 45.9105 98.4257C46.2057 98.2507 46.448 97.9992 46.6118 97.6977L51.1869 89.379C51.1962 89.3625 51.2107 89.3497 51.2282 89.3424C51.2457 89.3352 51.265 89.334 51.2832 89.3391L60.4187 91.9187C60.7655 92.0185 61.1335 92.0177 61.4798 91.9164C61.8262 91.815 62.1366 91.6174 62.3749 91.3464C62.868 90.7909 62.9968 90.0206 62.7107 89.3331L52.1799 64.1679L56.6125 63.7412C60.3803 63.3782 63.3786 60.3807 63.7416 56.6131L64.4403 49.3605C64.5351 48.3659 64.9222 47.433 65.5583 46.6612L70.1921 41.0397C72.6 38.119 72.6 33.879 70.1921 30.9584ZM26.9437 94.4552L23.3746 87.9655C23.048 87.3686 22.5281 86.9006 21.9003 86.6383C21.2726 86.376 20.5742 86.335 19.9201 86.5221L12.7941 88.5333L22.864 64.4706C23.7727 64.5981 24.6285 64.9743 25.3367 65.5577L30.9582 70.1921C32.4191 71.3961 34.2088 71.9978 35.9993 71.9978C36.1144 71.9978 36.2289 71.9948 36.3442 71.9896L26.9437 94.4552ZM67.9342 39.1782L63.3004 44.7997C62.294 46.0169 61.6761 47.508 61.5264 49.0802L60.8287 56.3319C60.5997 58.7082 58.7089 60.5989 56.3327 60.8277L49.9627 61.4414C49.9378 61.443 49.9122 61.4453 49.8875 61.4489L49.081 61.5264C47.5087 61.676 46.0173 62.2938 44.7997 63.2998L39.1782 67.9334C37.3365 69.4521 34.662 69.4521 32.8204 67.9334L27.1987 63.2996C25.9813 62.2934 24.4899 61.6757 22.9176 61.5264L22.1073 61.4482C22.085 61.4454 22.0627 61.4435 22.0404 61.4422L15.666 60.8277C13.2895 60.5989 11.399 58.7082 11.17 56.3319L10.4722 49.081C10.3226 47.5085 9.70461 46.0171 8.69807 44.7997L4.06424 39.1782C2.54572 37.3357 2.54572 34.6612 4.06424 32.8196L8.69807 27.1981C9.70454 25.9807 10.3225 24.4893 10.472 22.9168L11.1702 15.6652C11.3991 13.2887 13.2897 11.3982 15.666 11.1692L22.9178 10.4714C24.4901 10.3218 25.9813 9.70405 27.1989 8.69807L32.8206 4.06424C33.7414 3.30536 34.8707 2.92506 35.9995 2.92506C37.1283 2.92506 38.2576 3.30478 39.1784 4.06424L44.7999 8.69807C46.0173 9.70435 47.5087 10.3221 49.081 10.4714L56.3328 11.1692C58.7091 11.3982 60.5999 13.2887 60.8287 15.6652L61.5266 22.9166C61.6761 24.4892 62.294 25.9807 63.3006 27.1981L67.9344 32.8196C69.4521 34.662 69.4521 37.3359 67.9344 39.1782H67.9342Z" fill="#BBA483"/>
<path d="M35.9987 13.1377C35.0214 13.1377 34.038 13.1994 33.0742 13.3229C32.6893 13.3722 32.3398 13.5724 32.1024 13.8793C31.8651 14.1863 31.7593 14.5749 31.8084 14.9598C31.9109 15.7617 32.645 16.328 33.4455 16.2262C34.2857 16.1187 35.1448 16.0643 35.9987 16.0643C46.991 16.0643 55.9339 25.0072 55.9339 35.9997C55.9339 46.992 46.9902 55.9341 35.9987 55.9341C25.0062 55.9341 16.0635 46.9912 16.0635 35.9989C16.0635 28.1584 20.6866 21.0166 27.8411 17.8037C28.0164 17.7251 28.1746 17.6126 28.3065 17.4728C28.4383 17.333 28.5414 17.1686 28.6097 16.989C28.678 16.8094 28.7103 16.6181 28.7047 16.426C28.699 16.2338 28.6556 16.0447 28.5768 15.8694C28.4982 15.6941 28.3857 15.536 28.2459 15.4041C28.1061 15.2723 27.9417 15.1692 27.7621 15.1009C27.5824 15.0326 27.3911 15.0004 27.199 15.006C27.0069 15.0117 26.8178 15.0551 26.6425 15.1339C18.4375 18.818 13.1367 27.0078 13.1367 35.9989C13.1367 48.6055 23.3927 58.8607 35.9987 58.8607C48.6046 58.8607 58.8605 48.6055 58.8605 35.9989C58.8605 23.3929 48.6046 13.1377 35.9987 13.1377Z" fill="#BBA483"/>
<path d="M21.4647 34.3039C19.7201 36.0484 19.7201 38.8879 21.4647 40.6325L27.8565 47.025C28.2712 47.4417 28.7644 47.7721 29.3076 47.9969C29.8507 48.2218 30.4331 48.3368 31.021 48.3352C31.6089 48.3368 32.1913 48.2218 32.7344 47.9969C33.2776 47.772 33.7709 47.4417 34.1856 47.025L48.1387 33.0714C49.8833 31.326 49.8833 28.4873 48.1387 26.7419C46.3942 24.9975 43.5547 24.9975 41.8093 26.7419L31.021 37.531L27.7931 34.3039C26.0486 32.5595 23.2095 32.5595 21.4647 34.3039ZM31.0212 41.0646C31.2133 41.0646 31.4036 41.0266 31.5811 40.953C31.7586 40.8794 31.9199 40.7715 32.0557 40.6356L43.8793 28.8119C44.483 28.208 45.4649 28.2086 46.0688 28.8119C46.6727 29.4156 46.6727 30.3983 46.0688 31.0014L32.1158 44.955C31.9724 45.0992 31.8017 45.2135 31.6138 45.2913C31.4259 45.3691 31.2244 45.4089 31.021 45.4084C30.8176 45.409 30.6161 45.3693 30.4281 45.2915C30.2402 45.2137 30.0696 45.0994 29.9261 44.9552L23.5338 38.5634C22.9304 37.9595 22.9304 36.9769 23.5338 36.3737C23.6775 36.2298 23.8483 36.1157 24.0363 36.0379C24.2243 35.9601 24.4258 35.9203 24.6292 35.9206C24.8324 35.9203 25.0336 35.9601 25.2213 36.0377C25.4091 36.1154 25.5796 36.2293 25.7233 36.373L29.9857 40.6354C30.1216 40.7714 30.283 40.8794 30.4606 40.953C30.6383 41.0267 30.8287 41.0646 31.021 41.0646H31.0212Z" fill="#BBA483"/>
</svg>
