<svg width="80" height="99" viewBox="0 0 80 99" fill="none" xmlns="http://www.w3.org/2000/svg">
<path d="M78.2094 64.6754C78.594 64.6754 78.9629 64.5226 79.2348 64.2506C79.5068 63.9786 79.6596 63.6098 79.6596 63.2252V56.7082C79.6611 56.2726 79.5505 55.8439 79.3386 55.4633C79.1267 55.0828 78.8204 54.7631 78.4493 54.535L71.4749 50.2151V2.03028C71.4749 0.910724 70.5641 0 69.4446 0H15.3027C14.1831 0 13.2724 0.910724 13.2724 2.03028V6.6363H8.66638C7.54683 6.6363 6.63611 7.54702 6.63611 8.66658V13.2726H2.03028C0.910725 13.2726 0 14.1833 0 15.3029V89.3535C0 90.473 0.910725 91.3838 2.03028 91.3838H12.7594C13.144 91.3838 13.5129 91.231 13.7849 90.959C14.0568 90.687 14.2096 90.3182 14.2096 89.9336C14.2096 89.5489 14.0568 89.1801 13.7849 88.9081C13.5129 88.6361 13.144 88.4834 12.7594 88.4834H2.9004V16.173H55.3021V42.851L46.4868 48.3109C46.6224 48.0863 46.694 47.8289 46.6941 47.5665C46.6941 47.1819 46.5413 46.813 46.2693 46.5411C45.9974 46.2691 45.6285 46.1163 45.2439 46.1163H12.9584C12.5738 46.1163 12.2049 46.2691 11.9329 46.5411C11.661 46.813 11.5082 47.1819 11.5082 47.5665C11.5082 47.9511 11.661 48.32 11.9329 48.5919C12.2049 48.8639 12.5738 49.0167 12.9584 49.0167H45.2439C45.282 49.0167 45.3191 49.0138 45.3564 49.0111L39.1035 52.8839H28.6149C28.2303 52.8839 27.8614 53.0367 27.5895 53.3086C27.3175 53.5806 27.1647 53.9495 27.1647 54.3341C27.1647 54.7187 27.3175 55.0876 27.5895 55.3595C27.8614 55.6315 28.2303 55.7843 28.6149 55.7843H35.4001C35.286 56.079 35.2275 56.3923 35.2274 56.7084V59.6515H12.9584C12.5738 59.6515 12.2049 59.8043 11.9329 60.0762C11.661 60.3482 11.5082 60.7171 11.5082 61.1017C11.5082 61.4863 11.661 61.8552 11.9329 62.1271C12.2049 62.3991 12.5738 62.5519 12.9584 62.5519H35.2272V66.4191H12.9584C12.5738 66.4191 12.2049 66.5719 11.9329 66.8438C11.661 67.1158 11.5082 67.4847 11.5082 67.8693C11.5082 68.2539 11.661 68.6228 11.9329 68.8947C12.2049 69.1667 12.5738 69.3195 12.9584 69.3195H35.2272V72.7381C35.2272 72.8879 35.2296 73.0374 35.2334 73.1867H12.9584C12.5738 73.1867 12.2049 73.3395 11.9329 73.6114C11.661 73.8834 11.5082 74.2523 11.5082 74.6369C11.5082 75.0215 11.661 75.3904 11.9329 75.6623C12.2049 75.9343 12.5738 76.0871 12.9584 76.0871H35.5476C36.305 80.0066 38.374 83.5517 41.4142 86.1389L44.1653 88.4834H19.527C19.1424 88.4834 18.7735 88.6361 18.5016 88.9081C18.2296 89.1801 18.0768 89.5489 18.0768 89.9336C18.0768 90.3182 18.2296 90.687 18.5016 90.959C18.7735 91.231 19.1424 91.3838 19.527 91.3838H47.5688L55.7857 98.3861C56.2658 98.7954 56.8547 99 57.4435 99C58.0323 99 58.6213 98.7952 59.1014 98.3861L73.4728 86.1387C75.4138 84.4869 76.9724 82.4329 78.0406 80.119C79.1089 77.805 79.6613 75.2865 79.6596 72.7379V69.9928C79.6596 69.1919 79.0105 68.5426 78.2094 68.5426C77.4083 68.5426 76.7592 69.1919 76.7592 69.9928V72.7379C76.7606 74.8667 76.2992 76.9703 75.407 78.903C74.5147 80.8358 73.2128 82.5514 71.5917 83.9311L57.4433 95.9882L43.2952 83.9311C41.674 82.5514 40.3722 80.8358 39.4799 78.903C38.5876 76.9703 38.1262 74.8667 38.1276 72.7379V56.8998L57.4433 44.936L76.7592 56.8998V63.225C76.7592 63.4154 76.7967 63.604 76.8695 63.78C76.9424 63.956 77.0492 64.1159 77.1839 64.2505C77.3185 64.3852 77.4784 64.4921 77.6544 64.565C77.8303 64.6378 78.0189 64.6754 78.2094 64.6754ZM58.2025 42.0906V15.3029C58.2025 14.1833 57.2917 13.2726 56.1722 13.2726H9.5365V9.5367H61.9384V19.7227C61.9384 20.5236 62.5875 21.1729 63.3886 21.1729C64.1896 21.1729 64.8388 20.5236 64.8388 19.7227V8.66658C64.8388 7.54702 63.928 6.6363 62.8085 6.6363H16.1728V2.9004H68.5745V48.4188L64.8388 46.1049V26.4903C64.8388 25.6894 64.1896 25.0401 63.3886 25.0401C62.5875 25.0401 61.9384 25.6894 61.9384 26.4903V44.3086L58.7893 42.3582C58.6057 42.2447 58.4085 42.1548 58.2025 42.0906Z" fill="#BBA483"/>
</svg>
