<svg width="107" height="63" viewBox="0 0 107 63" fill="none" xmlns="http://www.w3.org/2000/svg">
<path d="M78.0803 36.7257H78.0874L95.9282 36.5927C96.6217 36.5857 97.1821 36.0253 97.1821 35.3318C97.1821 30.8068 95.4239 26.555 92.2228 23.3538C89.0216 20.1527 84.7698 18.3945 80.2448 18.3945H78.0733C77.3799 18.3945 76.8125 18.9619 76.8125 19.6554V35.4649C76.8125 35.8011 76.9456 36.1234 77.1838 36.3615C77.4289 36.5927 77.7441 36.7257 78.0803 36.7257ZM79.3412 20.9162H80.2518C84.1044 20.9162 87.7188 22.4152 90.4436 25.14C92.8672 27.5636 94.3242 30.7017 94.6114 34.078L79.3412 34.1971V20.9162Z" fill="#BBA483"/>
<path d="M102.899 49.0117H102.864V35.3316C102.864 29.2865 100.51 23.6127 96.2372 19.3399C91.9643 15.067 86.2835 12.7135 80.2455 12.7135H73.6541V1.26084C73.6541 0.567378 73.0867 0 72.3933 0H15.4663C14.7729 0 14.2055 0.567378 14.2055 1.26084V8.86091H1.26084C0.567378 8.86091 0 9.42829 0 10.1217C0 10.8152 0.567378 11.3826 1.26084 11.3826H25.6301C26.3236 11.3826 26.8909 10.8152 26.8909 10.1217C26.8909 9.42829 26.3236 8.86091 25.6301 8.86091H16.7272V2.52168H71.1394V49.0117H43.506C41.986 45.3272 38.3576 42.7285 34.1268 42.7285C29.8959 42.7285 26.2675 45.3272 24.7475 49.0117H16.7272V37.8042H24.7895C25.483 37.8042 26.0504 37.2368 26.0504 36.5434C26.0504 35.8499 25.483 35.2825 24.7895 35.2825H5.66678C4.97332 35.2825 4.40594 35.8499 4.40594 36.5434C4.40594 37.2368 4.97332 37.8042 5.66678 37.8042H14.2055V49.0117H14.1704C13.1408 49.0117 12.1741 49.4109 11.4456 50.1394C10.7171 50.8679 10.3179 51.8346 10.3179 52.8642C10.3179 54.9867 12.048 56.7168 14.1704 56.7168H24.7475C26.2675 60.4013 29.8959 63 34.1268 63C38.3576 63 41.986 60.4013 43.506 56.7168H77.6258C79.1458 60.4013 82.7742 63 87.005 63C91.2358 63 94.8643 60.4013 96.3843 56.7168H102.906C103.935 56.7168 104.902 56.3176 105.63 55.5891C106.359 54.8606 106.758 53.8939 106.758 52.8642C106.751 50.7348 105.021 49.0117 102.899 49.0117ZM73.6541 15.2352H80.2455C91.3269 15.2352 100.342 24.2502 100.342 35.3316V49.0117H96.3773C94.8573 45.3272 91.2288 42.7285 86.998 42.7285C82.7672 42.7285 79.1388 45.3272 77.6188 49.0117H73.6541V15.2352ZM14.1704 54.1951C13.435 54.1951 12.8396 53.5997 12.8396 52.8642C12.8396 52.507 12.9797 52.1708 13.2318 51.9186C13.484 51.6664 13.8132 51.5264 14.1704 51.5264H24.0751C24.019 51.9606 23.991 52.4089 23.991 52.8572C23.991 53.3055 24.019 53.7538 24.0751 54.1881H14.1704V54.1951ZM34.1268 60.4783C29.924 60.4783 26.5057 57.06 26.5057 52.8572C26.5057 48.6544 29.924 45.2362 34.1268 45.2362C38.3296 45.2362 41.7478 48.6544 41.7478 52.8572C41.7478 57.06 38.3296 60.4783 34.1268 60.4783ZM44.1785 54.1951C44.2345 53.7608 44.2625 53.3125 44.2625 52.8642C44.2625 52.4159 44.2345 51.9676 44.1785 51.5334H76.9463C76.8903 51.9676 76.8623 52.4159 76.8623 52.8642C76.8623 53.3125 76.8903 53.7608 76.9463 54.1951H44.1785ZM86.998 60.4783C82.7952 60.4783 79.3769 57.06 79.3769 52.8572C79.3769 48.6544 82.7952 45.2362 86.998 45.2362C91.2008 45.2362 94.6191 48.6544 94.6191 52.8572C94.6191 57.06 91.2008 60.4783 86.998 60.4783ZM103.837 53.8029C103.585 54.055 103.249 54.1951 102.899 54.1951H97.0567C97.1128 53.7608 97.1408 53.3125 97.1408 52.8642C97.1408 52.4159 97.1128 51.9676 97.0567 51.5334H102.906C103.641 51.5334 104.237 52.1288 104.237 52.8642C104.229 53.2145 104.089 53.5507 103.837 53.8029Z" fill="#BBA483"/>
<path d="M34.1268 48.6909C31.8222 48.6909 29.952 50.5611 29.952 52.8656C29.952 55.1632 31.8222 57.0404 34.1268 57.0404C36.4313 57.0404 38.3015 55.1702 38.3015 52.8656C38.3015 50.5611 36.4243 48.6909 34.1268 48.6909ZM34.1268 54.5117C33.2161 54.5117 32.4737 53.7693 32.4737 52.8586C32.4737 51.948 33.2161 51.2055 34.1268 51.2055C35.0374 51.2055 35.7799 51.948 35.7799 52.8586C35.7799 53.7763 35.0374 54.5117 34.1268 54.5117ZM86.998 48.6909C84.6935 48.6909 82.8232 50.5611 82.8232 52.8656C82.8232 55.1632 84.6935 57.0404 86.998 57.0404C89.3026 57.0404 91.1728 55.1702 91.1728 52.8656C91.1728 50.5611 89.3026 48.6909 86.998 48.6909ZM86.998 54.5117C86.0874 54.5117 85.3449 53.7693 85.3449 52.8586C85.3449 51.948 86.0874 51.2055 86.998 51.2055C87.9086 51.2055 88.6511 51.948 88.6511 52.8586C88.6511 53.7763 87.9086 54.5117 86.998 54.5117ZM38.4837 11.384C39.1771 11.384 39.7445 10.8166 39.7445 10.1231C39.7445 9.42968 39.1771 8.8623 38.4837 8.8623H31.2548C30.5614 8.8623 29.994 9.42968 29.994 10.1231C29.994 10.8166 30.5614 11.384 31.2548 11.384H38.4837ZM14.7518 17.6672H6.23416C5.54069 17.6672 4.97332 18.2346 4.97332 18.928C4.97332 19.6215 5.54069 20.1889 6.23416 20.1889H14.7518C15.4453 20.1889 16.0127 19.6215 16.0127 18.928C16.0127 18.2346 15.4453 17.6672 14.7518 17.6672ZM19.1157 18.928C19.1157 19.6215 19.6831 20.1889 20.3766 20.1889H43.457C44.1504 20.1889 44.7178 19.6215 44.7178 18.928C44.7178 18.2346 44.1504 17.6672 43.457 17.6672H20.3766C19.6761 17.6672 19.1157 18.2346 19.1157 18.928ZM8.94496 27.7399C8.94496 27.0464 8.37759 26.4791 7.68412 26.4791H1.26084C0.567378 26.4791 0 27.0464 0 27.7399C0 28.4334 0.567378 29.0007 1.26084 29.0007H7.68412C8.37759 29.0007 8.94496 28.4334 8.94496 27.7399ZM12.041 27.7399C12.041 28.4334 12.6084 29.0007 13.3019 29.0007H38.4767C39.1701 29.0007 39.7375 28.4334 39.7375 27.7399C39.7375 27.0464 39.1701 26.4791 38.4767 26.4791H13.3019C12.6084 26.4791 12.041 27.0394 12.041 27.7399ZM30.4073 35.2839C29.7138 35.2839 29.1464 35.8513 29.1464 36.5448C29.1464 37.2382 29.7138 37.8056 30.4073 37.8056H42.8826C43.5761 37.8056 44.1434 37.2382 44.1434 36.5448C44.1434 35.8513 43.5761 35.2839 42.8826 35.2839H30.4073Z" fill="#BBA483"/>
</svg>
