<svg width="89" height="90" viewBox="0 0 89 90" fill="none" xmlns="http://www.w3.org/2000/svg">
<path d="M11.7773 33.4053H44.9977" stroke="#BBA483" stroke-width="3" stroke-miterlimit="10" stroke-linecap="round" stroke-linejoin="round"/>
<path d="M11.7773 42.5244H44.9977" stroke="#BBA483" stroke-width="3" stroke-miterlimit="10" stroke-linecap="round" stroke-linejoin="round"/>
<path d="M11.7773 51.6416H44.9977" stroke="#BBA483" stroke-width="3" stroke-miterlimit="10" stroke-linecap="round" stroke-linejoin="round"/>
<path d="M11.7773 60.7617H44.9977" stroke="#BBA483" stroke-width="3" stroke-miterlimit="10" stroke-linecap="round" stroke-linejoin="round"/>
<path d="M11.7773 74.123H28.4302" stroke="#BBA483" stroke-width="3" stroke-miterlimit="10" stroke-linecap="round" stroke-linejoin="round"/>
<path d="M32.6491 18.3808H30.3992C29.9719 18.3808 29.562 18.2111 29.2598 17.9089C28.9576 17.6067 28.7879 17.1969 28.7879 16.7695V12.5588C28.7879 12.1314 28.9576 11.7216 29.2598 11.4194C29.562 11.1172 29.9719 10.9475 30.3992 10.9475H57.0414C57.4687 10.9475 57.8786 11.1172 58.1808 11.4194C58.483 11.7216 58.6527 12.1314 58.6527 12.5588V16.7695C58.6527 17.1969 58.483 17.6067 58.1808 17.9089C57.8786 18.2111 57.4687 18.3808 57.0414 18.3808H38.7158M69.6533 24.3995V7.12297C69.6533 4.29362 67.3597 2 64.5301 2H20.5028C19.1441 2.00005 17.841 2.53982 16.8803 3.50059L3.50042 16.8804C3.02472 17.3561 2.64738 17.9209 2.38994 18.5424C2.1325 19.1639 2 19.8301 2 20.5028V82.877C2 85.7064 4.29362 88 7.1228 88H64.5301C67.3597 88 69.6533 85.7064 69.6533 82.877V81.1295" stroke="#BBA483" stroke-width="3" stroke-miterlimit="10" stroke-linecap="round" stroke-linejoin="round"/>
<path d="M61.9141 63.8537V76.962C61.9141 78.1017 63.1637 78.7999 64.1343 78.2024L68.8934 75.2727C69.1229 75.1313 69.3872 75.0565 69.6568 75.0565C69.9216 75.0565 70.1865 75.1285 70.4204 75.2727L75.1795 78.2024C76.1501 78.7999 77.3996 78.1017 77.3996 76.962V63.8537" stroke="#BBA483" stroke-width="3" stroke-miterlimit="10" stroke-linecap="round" stroke-linejoin="round"/>
<path d="M69.6555 58.1134C64.3655 58.1134 60.0771 53.825 60.0771 48.535C60.0771 43.245 64.3655 38.9566 69.6555 38.9566C74.9454 38.9566 79.2339 43.245 79.2339 48.535C79.2339 53.825 74.9454 58.1134 69.6555 58.1134ZM86.3566 50.7258C85.9166 50.08 85.6813 49.3165 85.6813 48.535C85.6813 47.7535 85.9166 46.99 86.3566 46.3442C87.7899 44.2405 86.8507 41.3503 84.4546 40.4908C83.719 40.2269 83.0798 39.7476 82.6205 39.1154C82.1611 38.4831 81.9028 37.7271 81.8793 36.9459C81.8023 34.4018 79.3434 32.6153 76.9001 33.3284C76.1498 33.5473 75.351 33.5351 74.6077 33.2936C73.8644 33.052 73.2111 32.5923 72.7328 31.9742C71.954 30.9678 70.8048 30.4644 69.6555 30.4644C68.5062 30.4644 67.3572 30.9678 66.5784 31.9742C66.1 32.5923 65.4467 33.052 64.7034 33.2935C63.9601 33.5351 63.1614 33.5472 62.4111 33.3284C59.9676 32.6153 57.5089 34.4018 57.4317 36.9459C57.4081 37.7271 57.1499 38.4831 56.6905 39.1154C56.2312 39.7476 55.592 40.2269 54.8564 40.4908C52.4605 41.3503 51.5213 44.2405 52.9544 46.3442C53.3944 46.99 53.6297 47.7535 53.6297 48.535C53.6297 49.3165 53.3944 50.08 52.9544 50.7258C51.5213 52.8293 52.4605 55.7197 54.8564 56.5792C55.592 56.8431 56.2312 57.3223 56.6905 57.9546C57.1499 58.5869 57.4082 59.3429 57.4317 60.1241C57.5035 62.495 59.644 64.2079 61.9127 63.8529C62.0785 63.8271 62.2448 63.7902 62.4111 63.7416C63.1613 63.5227 63.9601 63.5348 64.7034 63.7763C65.4467 64.0178 66.1001 64.4775 66.5784 65.0956C68.136 67.1088 71.1751 67.1088 72.7328 65.0956C73.2111 64.4775 73.8644 64.0178 74.6077 63.7763C75.351 63.5348 76.1498 63.5227 76.9001 63.7416C77.0636 63.7895 77.23 63.8266 77.3983 63.8529C79.6671 64.2079 81.8076 62.495 81.8793 60.1241C81.9028 59.3429 82.1611 58.5869 82.6205 57.9546C83.0798 57.3223 83.7189 56.8431 84.4546 56.5792C86.8507 55.7197 87.7899 52.8293 86.3566 50.7258Z" stroke="#BBA483" stroke-width="3" stroke-miterlimit="10" stroke-linecap="round" stroke-linejoin="round"/>
<path d="M69.6545 38.9585C64.3646 38.9585 60.0762 43.2469 60.0762 48.5369C60.0762 53.827 64.3646 58.1152 69.6545 58.1152C74.9445 58.1152 79.2329 53.827 79.2329 48.5369C79.2329 43.2469 74.9445 38.9585 69.6545 38.9585Z" stroke="#BBA483" stroke-width="3" stroke-miterlimit="10" stroke-linecap="round" stroke-linejoin="round"/>
<path d="M18.3815 2.45933V15.2038C18.3815 16.958 16.9595 18.3799 15.2055 18.3799H2.46094" stroke="#BBA483" stroke-width="3" stroke-miterlimit="10" stroke-linecap="round" stroke-linejoin="round"/>
</svg>
