<svg width="88" height="83" viewBox="0 0 88 83" fill="none" xmlns="http://www.w3.org/2000/svg">
<path d="M2.00098 48.7919V59.7399C2.00098 63.1783 4.50337 65.6836 7.58879 65.6836H54.4123C54.3958 65.3967 54.3879 65.1094 54.3885 64.822C54.3987 56.271 61.325 49.3468 69.8641 49.3468V13.9655C69.8641 10.8766 67.3634 8.37109 64.2763 8.37109H58.1344V11.0903C58.1344 13.0529 56.5469 14.644 54.5866 14.644C52.6279 14.644 51.0404 13.0529 51.0404 11.0903V8.37109H39.4802V11.0903C39.4802 13.0529 37.8893 14.644 35.9307 14.644C33.9737 14.644 32.3845 13.0529 32.3845 11.0903V8.37109H20.8228V11.0903C20.8228 13.0529 19.2353 14.644 17.2767 14.644C15.318 14.644 13.729 13.0528 13.729 11.0903V8.37109H7.58879C4.50354 8.37109 2.00098 10.8764 2.00098 13.9655V33.8679" stroke="#A2845E" stroke-width="3.39178" stroke-miterlimit="10" stroke-linecap="round" stroke-linejoin="round"/>
<path d="M69.8637 13.9658V21.9774H2V13.9658C2 10.8769 4.50273 8.37109 7.58799 8.37109H13.729V11.091C13.729 13.0533 15.3169 14.6432 17.2771 14.6432C19.2354 14.6432 20.8232 13.0534 20.8232 11.091V8.37109H32.3837V11.091C32.3837 13.0533 33.9733 14.6432 35.9317 14.6432C37.8901 14.6432 39.4798 13.0534 39.4798 11.091V8.37109H51.0403V11.091C51.0403 13.0533 52.6281 14.6432 54.5864 14.6432C56.5464 14.6432 58.1345 13.0534 58.1345 11.091V8.37109H64.2757C67.3626 8.37109 69.8637 10.8768 69.8637 13.9658Z" stroke="#A2845E" stroke-width="3.39178" stroke-miterlimit="10" stroke-linecap="round" stroke-linejoin="round"/>
<path d="M17.2768 14.6432C15.3177 14.6432 13.7295 13.0531 13.7295 11.0917V5.55153C13.7295 3.59006 15.3177 2 17.2768 2C19.236 2 20.8242 3.59006 20.8242 5.55153V11.0917C20.8242 13.0531 19.236 14.6432 17.2768 14.6432ZM35.932 14.6432C33.9729 14.6432 32.3847 13.0531 32.3847 11.0917V5.55153C32.3847 3.59006 33.9729 2 35.932 2C37.8912 2 39.4794 3.59006 39.4794 5.55153V11.0917C39.4792 13.0531 37.8912 14.6432 35.932 14.6432ZM54.5872 14.6432C52.6281 14.6432 51.0399 13.0531 51.0399 11.0917V5.55153C51.0399 3.59006 52.6281 2 54.5872 2C56.5464 2 58.1346 3.59006 58.1346 5.55153V11.0917C58.1344 13.0531 56.5462 14.6432 54.5872 14.6432ZM37.8102 31.0919L40.5782 36.7072C40.7285 37.012 40.9505 37.2757 41.2251 37.4755C41.4998 37.6753 41.8189 37.8053 42.1549 37.8541L48.3444 38.7547C50.062 39.0045 50.7477 41.1177 49.5049 42.3306L45.026 46.7014C44.7829 46.9387 44.6011 47.2315 44.4962 47.5548C44.3912 47.8781 44.3664 48.222 44.4239 48.5571L45.4812 54.7289C45.7746 56.4416 43.979 57.7476 42.4429 56.939L36.9067 54.0251C36.6062 53.867 36.2718 53.7843 35.9323 53.7843C35.5928 53.7843 35.2584 53.867 34.9579 54.0251L29.4217 56.939C27.8855 57.7476 26.09 56.4416 26.3834 54.7289L27.4407 48.5571C27.4981 48.222 27.4733 47.8781 27.3684 47.5548C27.2635 47.2316 27.0816 46.9387 26.8385 46.7014L22.3597 42.3306C21.1169 41.1177 21.8028 39.0045 23.5202 38.7547L29.7097 37.8541C30.0457 37.8052 30.3647 37.6753 30.6394 37.4755C30.9141 37.2757 31.1361 37.012 31.2864 36.7072L34.0544 31.0919C34.8227 29.5338 37.042 29.5338 37.8102 31.0919Z" stroke="#A2845E" stroke-width="3.39178" stroke-miterlimit="10" stroke-linecap="round" stroke-linejoin="round"/>
<path d="M85.0609 67.7877C86.684 59.3863 81.1971 51.2582 72.8055 49.6332C64.4139 48.0082 56.2954 53.5016 54.6723 61.903C53.0492 70.3045 58.5361 78.4326 66.9277 80.0576C75.3193 81.6826 83.4378 76.1892 85.0609 67.7877Z" stroke="#A2845E" stroke-width="3.39178" stroke-miterlimit="10" stroke-linecap="round" stroke-linejoin="round"/>
<path d="M69.8633 56.4141V64.8401L65.874 68.8341" stroke="#A2845E" stroke-width="3.39178" stroke-miterlimit="10" stroke-linecap="round" stroke-linejoin="round"/>
</svg>
