<svg width="19" height="19" viewBox="0 0 19 19" fill="none" xmlns="http://www.w3.org/2000/svg">
<path d="M14.642 11.7698C14.271 11.3648 13.8235 11.1483 13.3492 11.1483C12.8788 11.1483 12.4275 11.3608 12.0412 11.7658L10.8326 13.029C10.7331 12.9728 10.6337 12.9207 10.5381 12.8686C10.4004 12.7964 10.2703 12.7282 10.1594 12.6561C9.02732 11.9022 7.99848 10.9197 7.01171 9.64849C6.53362 9.0149 6.21235 8.48156 5.97904 7.94019C6.29267 7.63944 6.58335 7.32665 6.86637 7.0259C6.97346 6.91361 7.08055 6.79732 7.18764 6.68504C7.99083 5.84292 7.99083 4.75218 7.18764 3.91006L6.14351 2.81531C6.02494 2.691 5.90255 2.56268 5.78781 2.43435C5.55833 2.18573 5.31738 1.92908 5.06877 1.68848C4.69778 1.30351 4.25411 1.099 3.7875 1.099C3.32089 1.099 2.86958 1.30351 2.48711 1.68848L2.47946 1.6965L1.17907 3.07196C0.689509 3.58525 0.410307 4.21082 0.349112 4.93664C0.25732 6.10759 0.586242 7.19833 0.838671 7.91212C1.45827 9.66453 2.38384 11.2886 3.76455 13.029C5.43976 15.1263 7.45537 16.7824 9.75783 17.9494C10.6375 18.3865 11.8117 18.9038 13.1236 18.992C13.2039 18.996 13.288 19 13.3645 19C14.248 19 14.99 18.6672 15.5714 18.0055C15.5752 17.9975 15.5828 17.9935 15.5866 17.9855C15.7855 17.7328 16.015 17.5042 16.256 17.2596C16.4204 17.0952 16.5887 16.9228 16.7532 16.7423C17.1318 16.3293 17.3307 15.8481 17.3307 15.3548C17.3307 14.8576 17.128 14.3804 16.7417 13.9794L14.642 11.7698ZM16.0112 15.9924C16.0074 15.9924 16.0074 15.9964 16.0112 15.9924C15.862 16.1609 15.709 16.3132 15.5446 16.4817C15.296 16.7303 15.0435 16.9909 14.8064 17.2837C14.4201 17.7168 13.965 17.9213 13.3683 17.9213C13.311 17.9213 13.2498 17.9213 13.1924 17.9173C12.0565 17.8411 11.0009 17.3759 10.2091 16.9789C8.04437 15.8802 6.14351 14.3202 4.56391 12.3433C3.2597 10.6951 2.38767 9.17129 1.81014 7.53518C1.45445 6.53667 1.32441 5.75871 1.38178 5.02487C1.42002 4.55569 1.59213 4.16671 1.90958 3.83387L3.2138 2.46643C3.40121 2.28197 3.60009 2.18172 3.79515 2.18172C4.03611 2.18172 4.23117 2.3341 4.35356 2.46242L4.36503 2.47445C4.59833 2.70303 4.82017 2.93962 5.05347 3.19226C5.17204 3.32058 5.29443 3.4489 5.41682 3.58124L6.46096 4.67599C6.86637 5.10106 6.86637 5.49405 6.46096 5.91911C6.35004 6.03541 6.24295 6.1517 6.13203 6.26398C5.81076 6.60885 5.50478 6.92965 5.17204 7.24244C5.16439 7.25046 5.15674 7.25447 5.15291 7.26249C4.82399 7.60736 4.88519 7.9442 4.95403 8.17278L4.9655 8.20887C5.23706 8.8986 5.61952 9.54824 6.20088 10.3222L6.2047 10.3262C7.26031 11.6896 8.3733 12.7523 9.60102 13.5663C9.75783 13.6706 9.91847 13.7548 10.0715 13.835C10.2091 13.9072 10.3392 13.9754 10.4501 14.0475C10.4654 14.0556 10.4807 14.0676 10.496 14.0756C10.626 14.1438 10.7484 14.1759 10.8746 14.1759C11.1921 14.1759 11.391 13.9673 11.456 13.8992L12.764 12.5277C12.8941 12.3914 13.1006 12.227 13.3416 12.227C13.5787 12.227 13.7737 12.3834 13.8923 12.5197L13.9 12.5277L16.0074 14.7373C16.4013 15.1463 16.4013 15.5674 16.0112 15.9924ZM10.1135 4.5196C11.1156 4.69604 12.0259 5.19329 12.7526 5.9552C13.4792 6.71712 13.9497 7.67152 14.1218 8.72216C14.1639 8.98683 14.3819 9.17129 14.6305 9.17129C14.6611 9.17129 14.6878 9.16728 14.7184 9.16327C15.0015 9.11515 15.1889 8.83444 15.143 8.5377C14.9365 7.2665 14.3628 6.10759 13.4869 5.18928C12.611 4.27097 11.5057 3.66946 10.2933 3.45291C10.0103 3.40479 9.74636 3.60129 9.69664 3.89402C9.64692 4.18676 9.8305 4.47147 10.1135 4.5196ZM18.4207 8.3813C18.0803 6.28804 17.1395 4.38325 15.6937 2.86744C14.248 1.35163 12.4313 0.365151 10.4348 0.00825334C10.1556 -0.0438777 9.8917 0.156626 9.84198 0.449362C9.79608 0.746108 9.98349 1.0228 10.2665 1.07494C12.0488 1.39173 13.6743 2.27796 14.967 3.62936C16.2598 4.98476 17.1012 6.68905 17.4034 8.55775C17.4454 8.82241 17.6635 9.00688 17.9121 9.00688C17.9427 9.00688 17.9694 9.00287 18 8.99886C18.2792 8.95475 18.4705 8.67404 18.4207 8.3813Z" fill="black"/>
<path d="M14.642 11.7698C14.271 11.3648 13.8235 11.1483 13.3492 11.1483C12.8788 11.1483 12.4275 11.3608 12.0412 11.7658L10.8326 13.029C10.7331 12.9728 10.6337 12.9207 10.5381 12.8686C10.4004 12.7964 10.2703 12.7282 10.1594 12.6561C9.02732 11.9022 7.99848 10.9197 7.01171 9.64849C6.53362 9.0149 6.21235 8.48156 5.97904 7.94019C6.29267 7.63944 6.58335 7.32665 6.86637 7.0259C6.97346 6.91361 7.08055 6.79732 7.18764 6.68504C7.99083 5.84292 7.99083 4.75218 7.18764 3.91006L6.14351 2.81531C6.02494 2.691 5.90255 2.56268 5.78781 2.43435C5.55833 2.18573 5.31738 1.92908 5.06877 1.68848C4.69778 1.30351 4.25411 1.099 3.7875 1.099C3.32089 1.099 2.86958 1.30351 2.48711 1.68848L2.47946 1.6965L1.17907 3.07196C0.689509 3.58525 0.410307 4.21082 0.349112 4.93664C0.25732 6.10759 0.586242 7.19833 0.838671 7.91212C1.45827 9.66453 2.38384 11.2886 3.76455 13.029C5.43976 15.1263 7.45537 16.7824 9.75783 17.9494C10.6375 18.3865 11.8117 18.9038 13.1236 18.992C13.2039 18.996 13.288 19 13.3645 19C14.248 19 14.99 18.6672 15.5714 18.0055C15.5752 17.9975 15.5828 17.9935 15.5866 17.9855C15.7855 17.7328 16.015 17.5042 16.256 17.2596C16.4204 17.0952 16.5887 16.9228 16.7532 16.7423C17.1318 16.3293 17.3307 15.8481 17.3307 15.3548C17.3307 14.8576 17.128 14.3804 16.7417 13.9794L14.642 11.7698ZM16.0112 15.9924C16.0074 15.9924 16.0074 15.9964 16.0112 15.9924C15.862 16.1609 15.709 16.3132 15.5446 16.4817C15.296 16.7303 15.0435 16.9909 14.8064 17.2837C14.4201 17.7168 13.965 17.9213 13.3683 17.9213C13.311 17.9213 13.2498 17.9213 13.1924 17.9173C12.0565 17.8411 11.0009 17.3759 10.2091 16.9789C8.04437 15.8802 6.14351 14.3202 4.56391 12.3433C3.2597 10.6951 2.38767 9.17129 1.81014 7.53518C1.45445 6.53667 1.32441 5.75871 1.38178 5.02487C1.42002 4.55569 1.59213 4.16671 1.90958 3.83387L3.2138 2.46643C3.40121 2.28197 3.60009 2.18172 3.79515 2.18172C4.03611 2.18172 4.23117 2.3341 4.35356 2.46242L4.36503 2.47445C4.59833 2.70303 4.82017 2.93962 5.05347 3.19226C5.17204 3.32058 5.29443 3.4489 5.41682 3.58124L6.46096 4.67599C6.86637 5.10106 6.86637 5.49405 6.46096 5.91911C6.35004 6.03541 6.24295 6.1517 6.13203 6.26398C5.81076 6.60885 5.50478 6.92965 5.17204 7.24244C5.16439 7.25046 5.15674 7.25447 5.15291 7.26249C4.82399 7.60736 4.88519 7.9442 4.95403 8.17278L4.9655 8.20887C5.23706 8.8986 5.61952 9.54824 6.20088 10.3222L6.2047 10.3262C7.26031 11.6896 8.3733 12.7523 9.60102 13.5663C9.75783 13.6706 9.91847 13.7548 10.0715 13.835C10.2091 13.9072 10.3392 13.9754 10.4501 14.0475C10.4654 14.0556 10.4807 14.0676 10.496 14.0756C10.626 14.1438 10.7484 14.1759 10.8746 14.1759C11.1921 14.1759 11.391 13.9673 11.456 13.8992L12.764 12.5277C12.8941 12.3914 13.1006 12.227 13.3416 12.227C13.5787 12.227 13.7737 12.3834 13.8923 12.5197L13.9 12.5277L16.0074 14.7373C16.4013 15.1463 16.4013 15.5674 16.0112 15.9924ZM10.1135 4.5196C11.1156 4.69604 12.0259 5.19329 12.7526 5.9552C13.4792 6.71712 13.9497 7.67152 14.1218 8.72216C14.1639 8.98683 14.3819 9.17129 14.6305 9.17129C14.6611 9.17129 14.6878 9.16728 14.7184 9.16327C15.0015 9.11515 15.1889 8.83444 15.143 8.5377C14.9365 7.2665 14.3628 6.10759 13.4869 5.18928C12.611 4.27097 11.5057 3.66946 10.2933 3.45291C10.0103 3.40479 9.74636 3.60129 9.69664 3.89402C9.64692 4.18676 9.8305 4.47147 10.1135 4.5196ZM18.4207 8.3813C18.0803 6.28804 17.1395 4.38325 15.6937 2.86744C14.248 1.35163 12.4313 0.365151 10.4348 0.00825334C10.1556 -0.0438777 9.8917 0.156626 9.84198 0.449362C9.79608 0.746108 9.98349 1.0228 10.2665 1.07494C12.0488 1.39173 13.6743 2.27796 14.967 3.62936C16.2598 4.98476 17.1012 6.68905 17.4034 8.55775C17.4454 8.82241 17.6635 9.00688 17.9121 9.00688C17.9427 9.00688 17.9694 9.00287 18 8.99886C18.2792 8.95475 18.4705 8.67404 18.4207 8.3813Z" fill="url(#paint0_linear_2214_706)"/>
<defs>
<linearGradient id="paint0_linear_2214_706" x1="8.94786" y1="4.24795e-08" x2="8.94786" y2="19" gradientUnits="userSpaceOnUse">
<stop stop-color="#C7B498"/>
<stop offset="1" stop-color="#A38C6B"/>
</linearGradient>
</defs>
</svg>
