<svg width="31" height="27" viewBox="0 0 31 27" fill="none" xmlns="http://www.w3.org/2000/svg">
<path d="M20.4065 23.3879C20.4562 23.3962 20.5065 23.4003 20.5569 23.4003C20.9928 23.4003 21.3776 23.0883 21.4517 22.6481L22.3599 17.2481C22.4423 16.7579 22.1081 16.2941 21.6133 16.2124C21.1185 16.1304 20.6506 16.4619 20.5682 16.9522L19.66 22.3522C19.5775 22.8425 19.9117 23.3063 20.4065 23.3879ZM9.60918 22.6481C9.68323 23.0883 10.0679 23.4003 10.5039 23.4003C10.5535 23.4003 10.6038 23.3963 10.6543 23.3879C11.1491 23.3062 11.4833 22.8425 11.4009 22.3522L10.4927 16.9522C10.4102 16.4619 9.94237 16.1307 9.44752 16.2124C8.95273 16.2941 8.61851 16.7578 8.70098 17.2481L9.60918 22.6481Z" fill="white"/>
<path d="M30.0918 9.00024H26.8955L19.9025 0.338034C19.5893 -0.0499862 19.0178 -0.113046 18.626 0.197514C18.2344 0.508014 18.1708 1.07435 18.4842 1.46249L24.5694 9.00024H6.43062L12.5158 1.46249C12.8292 1.07435 12.7656 0.507954 12.374 0.197514C11.9823 -0.113046 11.4108 -0.0500462 11.0975 0.338034L4.10453 9.00024H0.908203C0.406633 9.00024 0 9.4032 0 9.90024V13.5002C0 13.9973 0.406633 14.4002 0.908203 14.4002H2.03958L5.48421 26.3475C5.53842 26.5356 5.65296 26.701 5.81052 26.8188C5.96808 26.9365 6.16007 27.0003 6.35742 27.0002H24.6426C24.8399 27.0002 25.0319 26.9365 25.1895 26.8188C25.3471 26.701 25.4616 26.5356 25.5158 26.3475L28.9604 14.4002H30.0918C30.5934 14.4002 31 13.9973 31 13.5002V9.90024C31 9.4032 30.5934 9.00024 30.0918 9.00024ZM23.9576 25.2002H7.04245L3.92864 14.4002H27.0714L23.9576 25.2002ZM29.1836 12.6002H1.81641V10.8002H29.1836V12.6002Z" fill="white"/>
<path d="M15.501 23.4004C16.0025 23.4004 16.4092 22.9975 16.4092 22.5004V17.1004C16.4092 16.6034 16.0025 16.2004 15.501 16.2004C14.9994 16.2004 14.5928 16.6034 14.5928 17.1004V22.5004C14.5928 22.9975 14.9994 23.4004 15.501 23.4004Z" fill="white"/>
</svg>
