<svg width="23" height="27" viewBox="0 0 23 27" fill="none" xmlns="http://www.w3.org/2000/svg">
<path fill-rule="evenodd" clip-rule="evenodd" d="M22.2771 19.1364L22.0251 18.8741C21.7617 18.5997 21.6608 18.2338 21.7475 17.869L21.829 17.5258C21.898 17.2365 21.7287 16.9521 21.4351 16.8645L21.0811 16.7587C20.7111 16.6485 20.4341 16.3802 20.3212 16.0226L20.214 15.6859C20.1239 15.4016 19.8304 15.2374 19.5305 15.3035L19.1696 15.3828C18.7917 15.466 18.4132 15.368 18.1304 15.1128L17.8636 14.8726C17.6384 14.6704 17.2993 14.6704 17.0741 14.872L16.8022 15.1156C16.5188 15.3702 16.1397 15.4677 15.7629 15.3839L15.4072 15.3046C15.1079 15.2385 14.8138 15.4021 14.7231 15.6859L14.6142 16.0281C14.4997 16.3851 14.222 16.6529 13.8521 16.7626L13.5037 16.8662C13.2102 16.9532 13.0403 17.237 13.1081 17.5263L13.1908 17.8757C13.2769 18.2404 13.1748 18.6063 12.9114 18.8802L12.6629 19.138C12.4537 19.3551 12.4531 19.6836 12.6623 19.9012L12.9137 20.1635C13.1811 20.4423 13.2797 20.7988 13.1914 21.1686L13.1098 21.5124C13.042 21.7978 13.266 22.1025 13.5037 22.1736L13.8578 22.2789C14.2277 22.3891 14.5048 22.6574 14.6182 23.015L14.7248 23.3522C14.8149 23.636 15.1085 23.8002 15.4083 23.7341L15.7698 23.6548C15.857 23.6355 15.9453 23.6261 16.032 23.6261C16.3176 23.6261 16.5912 23.7291 16.8084 23.9248L17.0758 24.165C17.3004 24.3672 17.6396 24.3678 17.8648 24.1656L18.1367 23.922C18.4206 23.668 18.7991 23.5704 19.1765 23.6542L19.5316 23.733C19.8309 23.7997 20.1251 23.636 20.2157 23.3522L20.3252 23.0095C20.4392 22.6524 20.7168 22.3847 21.0868 22.275L21.4351 22.172C21.7287 22.0849 21.8991 21.8006 21.8307 21.5113L21.7481 21.1619C21.662 20.7977 21.764 20.4313 22.028 20.1574L22.2759 19.8996C22.4857 19.6824 22.4857 19.3546 22.2771 19.1364ZM21.2532 19.5188C21.2532 21.5355 19.5562 23.1765 17.4697 23.1765C15.3833 23.1765 13.6856 21.5355 13.6856 19.5188C13.6856 17.5021 15.3833 15.8617 17.4697 15.8617C19.5562 15.8617 21.2532 17.5021 21.2532 19.5188ZM19.5128 18.7694L16.9344 21.1862C16.8868 21.231 16.83 21.2655 16.7676 21.2874C16.7052 21.3094 16.6386 21.3182 16.5724 21.3135C16.4367 21.3041 16.3153 21.2396 16.2332 21.1349L15.0583 19.6389C14.9021 19.44 14.9426 19.1557 15.1484 19.0047C15.3542 18.8532 15.6489 18.8923 15.8057 19.0918L16.6214 20.1299C16.6311 20.1426 16.646 20.1503 16.6625 20.1514C16.679 20.1525 16.6944 20.1475 16.7064 20.1365L18.8584 18.1187C18.9462 18.036 19.0613 17.9936 19.1833 17.9903H19.1936C19.3184 17.9925 19.4359 18.0415 19.5231 18.128C19.7027 18.3071 19.6992 18.5953 19.5128 18.7694ZM21.5388 25.1309L20.5714 24.8802C20.4192 24.8411 20.263 24.9282 20.222 25.0753L19.9632 26.0104L18.8681 24.1777C18.9268 24.1733 18.9867 24.1771 19.0488 24.1909L19.4039 24.2697C19.9199 24.3843 20.4455 24.138 20.6826 23.6966L21.5388 25.1309ZM16.0702 24.1788L14.9762 26.0104L14.7169 25.0753C14.6758 24.9282 14.5196 24.8417 14.3674 24.8802L13.4 25.1309L14.2574 23.6955C14.4934 24.1374 15.0184 24.3854 15.5349 24.2713L15.8963 24.192C15.9556 24.1788 16.0138 24.1749 16.0702 24.1788ZM5.81126 3.80535C5.98513 4.14973 6.34998 4.38833 6.7724 4.38833H11.6459C12.0683 4.38833 12.4337 4.14973 12.607 3.80535H15.7795C16.2287 3.80535 16.5941 4.158 16.5941 4.5922V14.5508L16.4145 14.7117C16.2674 14.8434 16.0856 14.8902 15.8906 14.8467L15.5349 14.7679C14.9511 14.6384 14.3554 14.9701 14.1787 15.5233L14.0693 15.8655C14.01 16.0507 13.8771 16.1791 13.685 16.2358L13.3367 16.3394C12.7638 16.5091 12.4195 17.0844 12.5523 17.6492L12.635 17.998C12.6794 18.1875 12.631 18.3628 12.4942 18.5049L12.2456 18.7628C11.8374 19.1865 11.8369 19.8511 12.2439 20.2759L12.4959 20.5382C12.6327 20.6809 12.6811 20.8561 12.6361 21.0451L12.554 21.3884C12.4246 21.9345 12.7826 22.5345 13.3356 22.6998L13.4097 22.7219H2.63884C2.18963 22.7219 1.82478 22.3687 1.82478 21.935V4.5922C1.82478 4.158 2.18963 3.80535 2.63884 3.80535H5.81126ZM6.27302 3.35516C6.27302 3.62131 6.49705 3.83731 6.7724 3.83731H11.6459C11.9212 3.83731 12.1453 3.62131 12.1453 3.35516V2.49116C12.1453 2.22557 11.9212 2.00902 11.6459 2.00902H10.7178C10.5605 2.00902 10.4328 1.88559 10.4328 1.73351C10.4328 1.0811 9.88382 0.55102 9.20943 0.55102C8.53448 0.55102 7.9855 1.0811 7.9855 1.73351C7.9855 1.88559 7.8578 2.00902 7.70047 2.00902H6.7724C6.49705 2.00902 6.27302 2.22557 6.27302 2.49116V3.35516ZM22.6932 20.2753L22.4453 20.5332C22.3084 20.6754 22.2594 20.8506 22.3039 21.0396L22.3865 21.389C22.5194 21.9532 22.175 22.529 21.6021 22.6987L21.2538 22.8018C21.1176 22.842 21.0115 22.9191 20.9403 23.0266L22.3768 25.4312C22.4344 25.5282 22.4264 25.6483 22.3558 25.7371C22.2856 25.8252 22.1676 25.8638 22.0559 25.8357L20.6991 25.4841L20.3354 26.7956C20.3209 26.8482 20.2904 26.8955 20.248 26.9314C20.2056 26.9673 20.1531 26.9902 20.0971 26.9972C20.0852 26.9989 20.0726 27 20.0601 27C20.0101 27 19.9609 26.9873 19.9176 26.9631C19.8742 26.9389 19.8383 26.9041 19.8133 26.8622L18.3773 24.4581L18.2524 24.57C18.0335 24.7662 17.7519 24.8648 17.4708 24.8648C17.1887 24.8648 16.9065 24.7656 16.687 24.5683L16.5627 24.4565L15.1256 26.8622C15.1006 26.9041 15.0646 26.9389 15.0213 26.9631C14.9779 26.9873 14.9288 27 14.8788 27C14.8662 27 14.8542 26.9989 14.8417 26.9972C14.7858 26.9902 14.7333 26.9673 14.6908 26.9314C14.6484 26.8955 14.618 26.8482 14.6034 26.7956L14.2397 25.4841L12.8829 25.8357C12.7718 25.8643 12.6532 25.8252 12.5831 25.7371C12.5487 25.6938 12.5284 25.6417 12.5247 25.5872C12.5209 25.5328 12.5339 25.4785 12.562 25.4312L13.1275 24.4857H2.63884C1.18346 24.4857 0 23.3412 0 21.935V4.5922C0 3.18545 1.18346 2.04153 2.63884 2.04153H5.81126C5.98513 1.69659 6.34998 1.458 6.7724 1.458H7.43824C7.57505 0.632571 8.31728 0 9.20943 0C10.101 0 10.8432 0.632571 10.9801 1.458H11.6459C12.0683 1.458 12.4337 1.69659 12.607 2.04153H15.7795C17.2348 2.04153 18.4183 3.18545 18.4183 4.5922V14.6197L18.5186 14.7095C18.6657 14.8417 18.847 14.8891 19.0425 14.8456L19.4039 14.7662C19.9883 14.6379 20.5834 14.9707 20.759 15.5244L20.8662 15.8611C20.9249 16.0468 21.0571 16.1752 21.2493 16.2325L21.6033 16.3378C22.1756 16.5086 22.5188 17.0849 22.3848 17.6492L22.3033 17.9925C22.2583 18.182 22.3062 18.3572 22.443 18.4994L22.6949 18.7622C23.1025 19.1865 23.1014 19.8511 22.6932 20.2753ZM4.18486 7.93965C4.09536 7.81457 3.9175 7.78316 3.7881 7.86967C3.65869 7.95618 3.62677 8.1281 3.71627 8.25318L4.33536 9.11773C4.35717 9.14798 4.38498 9.17374 4.41718 9.19351C4.44938 9.21328 4.48532 9.22667 4.52291 9.2329C4.5383 9.2351 4.55427 9.2362 4.56966 9.2362C4.63008 9.2362 4.68994 9.21747 4.73897 9.18275L6.57971 7.86912C6.70627 7.77875 6.73306 7.60629 6.63957 7.48396C6.54608 7.36163 6.36765 7.33518 6.24109 7.42555L4.63693 8.57057L4.18486 7.93965ZM3.72197 10.0457H5.16766C5.61345 10.0457 5.97544 9.6952 5.97544 9.26486V9.15245C5.97544 9.00037 5.84775 8.87694 5.69041 8.87694C5.53307 8.87694 5.40538 9.00037 5.40538 9.15245V9.26486C5.40538 9.39159 5.29877 9.49463 5.16766 9.49463H3.72197C3.59085 9.49463 3.48425 9.39159 3.48425 9.26486V7.86747C3.48425 7.74073 3.59085 7.63769 3.72197 7.63769H5.16766C5.19901 7.63769 5.22923 7.6432 5.25773 7.65478C5.4031 7.71263 5.57012 7.64651 5.63055 7.506C5.69098 7.36549 5.622 7.20404 5.47606 7.14563C5.37801 7.10651 5.27426 7.08667 5.16766 7.08667H3.72197C3.27675 7.08667 2.91418 7.43657 2.91418 7.86747V9.26486C2.91418 9.6952 3.27675 10.0457 3.72197 10.0457ZM6.24109 17.3792L4.63693 18.5242L4.18486 17.8933C4.09536 17.7682 3.9175 17.7368 3.7881 17.8233C3.65869 17.9098 3.62677 18.0817 3.71627 18.2068L4.33536 19.0714C4.35711 19.1016 4.38491 19.1274 4.41712 19.147C4.44934 19.1667 4.48531 19.18 4.52291 19.186C4.56056 19.1921 4.5991 19.1908 4.63622 19.1821C4.67333 19.1735 4.70828 19.1578 4.73897 19.1358L6.57971 17.8228C6.64051 17.7792 6.68095 17.7142 6.69217 17.6419C6.7034 17.5696 6.68448 17.4959 6.63957 17.437C6.59466 17.3783 6.52745 17.3392 6.45273 17.3284C6.378 17.3175 6.30188 17.3358 6.24109 17.3792ZM6.24109 12.415L4.63693 13.5601L4.18486 12.9286C4.09536 12.8041 3.9175 12.7727 3.7881 12.8592C3.65869 12.9457 3.62677 13.1176 3.71627 13.2427L4.33536 14.1072C4.35711 14.1375 4.38491 14.1632 4.41712 14.1829C4.44934 14.2026 4.48531 14.2158 4.52291 14.2218C4.56056 14.2279 4.5991 14.2266 4.63622 14.218C4.67333 14.2094 4.70828 14.1936 4.73897 14.1717L6.57971 12.8586C6.70627 12.7677 6.73306 12.5952 6.63957 12.4729C6.54608 12.3506 6.36765 12.3247 6.24109 12.415ZM5.69041 18.8306C5.53307 18.8306 5.40538 18.954 5.40538 19.1061V19.2179C5.40538 19.3447 5.29877 19.4477 5.16766 19.4477H3.72197C3.59085 19.4477 3.48425 19.3447 3.48425 19.2179V17.8206C3.4844 17.7597 3.50949 17.7013 3.55404 17.6582C3.59859 17.6152 3.65897 17.5909 3.72197 17.5908H5.16766C5.19901 17.5908 5.22923 17.5968 5.25773 17.6084C5.32766 17.6363 5.4062 17.6363 5.4761 17.6083C5.546 17.5803 5.60155 17.5266 5.63055 17.4591C5.64492 17.4257 5.65232 17.3898 5.65233 17.3536C5.65234 17.3174 5.64496 17.2816 5.63061 17.2482C5.61625 17.2147 5.59521 17.1844 5.56869 17.1588C5.54217 17.1333 5.51069 17.113 5.47606 17.0993C5.37801 17.0601 5.27426 17.0398 5.16766 17.0398H3.72197C3.27675 17.0398 2.91418 17.3902 2.91418 17.8206V19.2179C2.91418 19.6488 3.27675 19.9987 3.72197 19.9987H5.16766C5.61345 19.9987 5.97544 19.6488 5.97544 19.2179V19.1061C5.97544 18.954 5.84775 18.8306 5.69041 18.8306ZM3.72197 15.0346H5.16766C5.61345 15.0346 5.97544 14.6841 5.97544 14.2538V14.1419C5.97544 13.9899 5.84775 13.8664 5.69041 13.8664C5.53307 13.8664 5.40538 13.9899 5.40538 14.1419V14.2538C5.40538 14.3805 5.29877 14.4836 5.16766 14.4836H3.72197C3.59085 14.4836 3.48425 14.3805 3.48425 14.2538V12.8564C3.48425 12.7297 3.59085 12.6266 3.72197 12.6266H5.16766C5.19901 12.6266 5.22923 12.6327 5.25773 12.6437C5.4031 12.7021 5.57012 12.6354 5.63055 12.4949C5.69098 12.3544 5.622 12.1935 5.47606 12.1351C5.37801 12.0954 5.27426 12.0756 5.16766 12.0756H3.72197C3.27675 12.0756 2.91418 12.4261 2.91418 12.8564V14.2538C2.91418 14.6841 3.27675 15.0346 3.72197 15.0346ZM8.18616 19.5001H11.1055C11.2628 19.5001 11.3905 19.3772 11.3905 19.2246C11.3905 19.0725 11.2628 18.949 11.1055 18.949H8.18616C8.02882 18.949 7.90113 19.0725 7.90113 19.2246C7.90113 19.3772 8.02882 19.5001 8.18616 19.5001ZM8.18616 18.0894H11.7149C11.8722 18.0894 11.9999 17.9666 11.9999 17.8139C11.9999 17.6619 11.8722 17.5384 11.7149 17.5384H8.18616C8.02882 17.5384 7.90113 17.6619 7.90113 17.8139C7.90113 17.9666 8.02882 18.0894 8.18616 18.0894ZM8.18616 14.5359H12.843C13.0004 14.5359 13.1281 14.4125 13.1281 14.2604C13.1281 14.1083 13.0004 13.9849 12.843 13.9849H8.18616C8.02882 13.9849 7.90113 14.1083 7.90113 14.2604C7.90113 14.4125 8.02882 14.5359 8.18616 14.5359ZM8.18616 13.1253H15.2191C15.3764 13.1253 15.5041 13.0019 15.5041 12.8498C15.5041 12.6977 15.3764 12.5743 15.2191 12.5743H8.18616C8.02882 12.5743 7.90113 12.6977 7.90113 12.8498C7.90113 13.0019 8.02882 13.1253 8.18616 13.1253ZM8.18616 9.57178H12.843C13.0004 9.57178 13.1281 9.44835 13.1281 9.29627C13.1281 9.14418 13.0004 9.02075 12.843 9.02075H8.18616C8.02882 9.02075 7.90113 9.14418 7.90113 9.29627C7.90113 9.44835 8.02882 9.57178 8.18616 9.57178ZM8.18616 8.16116H15.2191C15.3764 8.16116 15.5041 8.03773 15.5041 7.88565C15.5041 7.73357 15.3764 7.61014 15.2191 7.61014H8.18616C8.02882 7.61014 7.90113 7.73357 7.90113 7.88565C7.90113 8.03773 8.02882 8.16116 8.18616 8.16116ZM8.791 1.61504C8.791 1.39188 8.97799 1.21059 9.20943 1.21059C9.44031 1.21059 9.62729 1.39188 9.62729 1.61504C9.62729 1.8382 9.44031 2.01949 9.20943 2.01949C8.97799 2.01949 8.791 1.8382 8.791 1.61504Z" fill="#A2845E"/>
</svg>
