<svg width="88" height="88" viewBox="0 0 88 88" fill="none" xmlns="http://www.w3.org/2000/svg">
<path d="M85.1613 22.7097V9.93548H82.3226V22.7097H79.4839V17.0323H76.6452V22.7097H73.8064V14.1935H70.9677V22.7097H68.6712L64.2017 31.6488L61.0323 30.2905V18.9356L49.6774 14.0686L46.8387 15.285V8.51613H48.2581C50.6057 8.51613 52.5161 6.60568 52.5161 4.25806C52.5161 1.91045 50.6057 0 48.2581 0H17.0323C14.6846 0 12.7742 1.91045 12.7742 4.25806C12.7742 6.60568 14.6846 8.51613 17.0323 8.51613H18.4516V25.9586C7.21174 31.3933 0 42.8319 0 55.3548C0 73.3565 14.6449 88 32.6452 88C50.6454 88 65.2903 73.3565 65.2903 55.3548C65.2791 53.69 65.1419 52.0284 64.8801 50.3843L70.9677 47.7741V34.5485L66.8161 32.7686L70.4255 25.5484H88V22.7097H85.1613ZM58.1935 20.8063V30.2905L53.9355 32.1157L49.6774 33.941L45.4194 32.1157L41.1613 30.2905V20.8063L49.6774 17.1572L58.1935 20.8063ZM39.7419 49.5525L31.2258 45.9034V36.4192L39.7419 32.7701L44 34.5954L48.2581 36.4206V45.9048L39.7419 49.5525ZM15.6129 4.25806C15.6129 3.47458 16.2502 2.83871 17.0323 2.83871H48.2581C48.6235 2.85506 48.9686 3.01174 49.2214 3.27613C49.4742 3.54052 49.6153 3.89224 49.6153 4.25806C49.6153 4.62389 49.4742 4.97561 49.2214 5.24C48.9686 5.50439 48.6235 5.66107 48.2581 5.67742H17.0323C16.2502 5.67742 15.6129 5.04155 15.6129 4.25806ZM32.6452 85.1613C17.5517 85.1613 5.07277 73.8732 3.1311 59.3021C5.68452 58.5796 7.97961 58.1935 9.93548 58.1935C15.8726 58.1935 21.5543 62.2032 27.5681 66.4499C33.6799 70.7634 40.0017 75.2258 46.8387 75.2258C50.2026 75.2258 53.4926 74.5601 56.2916 73.4275C50.8399 80.5441 42.2826 85.1613 32.6452 85.1613ZM59.5334 68.1333C57.3618 70.2822 52.695 72.3871 46.8387 72.3871C41.3827 72.3871 36.141 68.9991 30.6595 65.1541C34.8665 61.7476 40.7185 58.1935 46.8387 58.1935C54.1697 58.1935 60.1934 61.5631 60.94 64.6701C60.5468 65.8623 60.0671 67.012 59.5334 68.1333ZM62.4516 55.3548C62.4516 57.2227 62.2572 59.0423 61.9279 60.8165C59.0224 57.6045 53.2017 55.3548 46.8387 55.3548C39.5915 55.3548 32.8623 59.603 28.2494 63.4565C22.4343 59.3645 16.4177 55.3548 9.93548 55.3548C7.86039 55.3548 5.48865 55.7253 2.89265 56.4222C2.87987 56.0645 2.83871 55.7154 2.83871 55.3548C2.83871 43.6395 9.75239 32.9645 20.4529 28.1572L21.2903 27.781V8.51613H44V16.5014L38.3226 18.9342V30.289L28.3871 34.5471V47.7726L39.7419 52.6396L49.6774 48.3815L59.6129 52.6396L62.1791 51.5396C62.3409 52.8043 62.4516 54.076 62.4516 55.3548ZM68.129 45.9034L59.6129 49.5525L51.0968 45.9034V36.4192L55.3548 34.5939L59.6129 32.7686L68.129 36.4178V45.9034Z" fill="#A2845E"/>
</svg>
