<svg width="24" height="23" viewBox="0 0 24 23" fill="none" xmlns="http://www.w3.org/2000/svg">
<path d="M17.7743 11.7634H18.5698C18.6791 11.7634 18.7839 11.72 18.8611 11.6427C18.9384 11.5654 18.9818 11.4607 18.9818 11.3514C18.9818 11.2421 18.9384 11.1374 18.8611 11.0601C18.7839 10.9828 18.6791 10.9394 18.5698 10.9394H17.7743C17.665 10.9394 17.5602 10.9828 17.483 11.0601C17.4057 11.1374 17.3623 11.2421 17.3623 11.3514C17.3623 11.4607 17.4057 11.5654 17.483 11.6427C17.5602 11.72 17.665 11.7634 17.7743 11.7634ZM19.8374 11.7634H20.633C20.7422 11.7634 20.847 11.72 20.9243 11.6427C21.0015 11.5654 21.0449 11.4607 21.0449 11.3514C21.0449 11.2421 21.0015 11.1374 20.9243 11.0601C20.847 10.9828 20.7422 10.9394 20.633 10.9394H19.8378C19.7286 10.9394 19.6238 10.9828 19.5465 11.0601C19.4693 11.1374 19.4259 11.2421 19.4259 11.3514C19.4259 11.4607 19.4693 11.5654 19.5465 11.6427C19.6238 11.72 19.7282 11.7634 19.8374 11.7634ZM11.6829 9.50969H12.3858C12.495 9.50969 12.5997 9.46634 12.677 9.38917C12.7542 9.312 12.7977 9.20732 12.7978 9.09813V6.5399C12.7978 6.43064 12.7544 6.32585 12.6771 6.24859C12.5998 6.17133 12.4951 6.12793 12.3858 6.12793C12.2765 6.12793 12.1717 6.17133 12.0945 6.24859C12.0172 6.32585 11.9738 6.43064 11.9738 6.5399V7.27987H11.6829C11.3924 7.28777 11.1165 7.40869 10.9139 7.61692C10.7112 7.82514 10.5978 8.10423 10.5978 8.39478C10.5978 8.68533 10.7112 8.96442 10.9139 9.17264C11.1165 9.38087 11.3924 9.50179 11.6829 9.50969ZM11.4763 8.18859C11.5466 8.07624 11.8495 8.10669 11.9738 8.10422V8.68575H11.6829C11.626 8.68414 11.5708 8.66614 11.5239 8.63389C11.4771 8.60165 11.4405 8.55655 11.4187 8.50402C11.3969 8.45149 11.3907 8.39377 11.4009 8.33781C11.4111 8.28184 11.4373 8.23002 11.4763 8.18859ZM14.2493 14.7805C14.0975 14.7905 13.9451 14.7789 13.7966 14.7459C13.7375 14.7362 13.677 14.7393 13.6193 14.7552C13.5615 14.771 13.5079 14.7992 13.462 14.8378C13.4162 14.8763 13.3793 14.9244 13.3537 14.9786C13.3282 15.0327 13.3148 15.0918 13.3143 15.1517V16.7938C13.3143 16.9031 13.3577 17.0079 13.4349 17.0851C13.5122 17.1624 13.617 17.2058 13.7262 17.2058C13.8355 17.2058 13.9403 17.1624 14.0175 17.0851C14.0948 17.0079 14.1382 16.9031 14.1382 16.7938V15.8979L14.272 15.6073C14.3766 15.6091 14.4805 15.588 14.5762 15.5455C14.6718 15.503 14.7571 15.4401 14.8259 15.3612C14.8858 15.2818 14.915 15.1835 14.9083 15.0843C14.9015 14.9851 14.8592 14.8917 14.7891 14.8211C14.7191 14.7506 14.6259 14.7077 14.5267 14.7003C14.4276 14.6929 14.3291 14.7211 14.2493 14.7805ZM1.33922 18.1441H0.489357C0.434389 18.1456 0.380277 18.1581 0.330198 18.1808C0.280118 18.2035 0.235081 18.236 0.197731 18.2764C0.16038 18.3167 0.131469 18.3641 0.112695 18.4158C0.0939207 18.4675 0.0856623 18.5224 0.0884041 18.5773C0.091146 18.6323 0.104833 18.6861 0.128661 18.7356C0.15249 18.7852 0.18598 18.8295 0.227164 18.8659C0.268349 18.9024 0.316398 18.9302 0.36849 18.9478C0.420582 18.9654 0.475668 18.9724 0.530512 18.9685V19.9352C0.530512 20.0445 0.573937 20.1494 0.651235 20.2267C0.728532 20.304 0.83337 20.3474 0.942685 20.3474C1.052 20.3474 1.15684 20.304 1.23414 20.2267C1.31143 20.1494 1.35486 20.0445 1.35486 19.9352V18.9652C1.46189 18.9604 1.56283 18.9141 1.63614 18.8359C1.70946 18.7578 1.74935 18.6541 1.74731 18.547C1.74527 18.4399 1.70146 18.3378 1.62522 18.2626C1.54898 18.1873 1.44635 18.1448 1.33922 18.1441ZM13.648 11.7634H14.4436C14.5528 11.7634 14.6576 11.72 14.7349 11.6427C14.8121 11.5654 14.8555 11.4607 14.8555 11.3514C14.8555 11.2421 14.8121 11.1374 14.7349 11.0601C14.6576 10.9828 14.5528 10.9394 14.4436 10.9394H13.648C13.5388 10.9394 13.434 10.9828 13.3567 11.0601C13.2795 11.1374 13.2361 11.2421 13.2361 11.3514C13.2361 11.4607 13.2795 11.5654 13.3567 11.6427C13.434 11.72 13.5388 11.7634 13.648 11.7634ZM15.7112 11.7634H16.5071C16.6164 11.7634 16.7212 11.72 16.7984 11.6427C16.8757 11.5654 16.9191 11.4607 16.9191 11.3514C16.9191 11.2421 16.8757 11.1374 16.7984 11.0601C16.7212 10.9828 16.6164 10.9394 16.5071 10.9394H15.7112C15.6019 10.9394 15.4971 10.9828 15.4199 11.0601C15.3426 11.1374 15.2992 11.2421 15.2992 11.3514C15.2992 11.4607 15.3426 11.5654 15.4199 11.6427C15.4971 11.72 15.6019 11.7634 15.7112 11.7634Z" fill="#A2845E"/>
<path d="M23.0432 11.463C22.4452 -3.65348 0.952498 -3.89382 0.00303834 11.1856C-0.0463157 13.3362 0.506455 15.4578 1.59896 17.3109C2.69146 19.164 4.2802 20.6748 6.18584 21.6729C13.6597 25.7069 23.1284 20.041 23.0432 11.463ZM4.80672 19.7863L6.47969 18.0993L7.69131 19.3229L6.39656 20.8539C5.83588 20.5461 5.30381 20.1888 4.80672 19.7863ZM1.53238 15.295L2.90286 14.4867L4.04287 15.6374L2.40117 17.0544C2.05802 16.496 1.76705 15.9072 1.53197 15.2954L1.53238 15.295ZM11.1072 21.6021C7.86095 18.322 4.61405 15.0426 1.36652 11.7638H11.1072V21.6021ZM0.866071 12.4318L2.30076 13.8846L1.26116 14.4978C1.06146 13.8239 0.929118 13.1318 0.866071 12.4318ZM8.27326 19.9106L10.4492 22.1083C9.31189 21.9944 8.2005 21.6976 7.15794 21.2292L8.27326 19.9106ZM11.5196 0.763342C25.466 1.30536 25.815 21.0913 11.9312 22.1519V11.763H12.4226C12.5318 11.763 12.6366 11.7196 12.7139 11.6423C12.7911 11.5651 12.8345 11.4603 12.8345 11.351C12.8345 11.2418 12.7911 11.137 12.7139 11.0597C12.6366 10.9825 12.5318 10.9391 12.4226 10.9391C12.4205 10.9391 11.5192 10.9382 11.5171 10.9391H0.833147C0.97092 8.19662 2.15655 5.61179 4.14521 3.71833C6.13387 1.82486 8.77371 0.767353 11.5196 0.764165V0.763342ZM2.86459 17.7425L4.62358 16.2239L5.90022 17.5133L4.18527 19.2418C3.69959 18.784 3.25747 18.2821 2.86459 17.7425Z" fill="#A2845E"/>
</svg>
