<svg width="22" height="23" viewBox="0 0 22 23" fill="none" xmlns="http://www.w3.org/2000/svg">
<path fill-rule="evenodd" clip-rule="evenodd" d="M1.22222 15.7373C1.54638 15.7373 1.85725 15.8648 2.08646 16.0919C2.31567 16.3189 2.44444 16.6268 2.44444 16.9478V19.3689C2.44444 19.6899 2.57321 19.9978 2.80242 20.2248C3.03164 20.4519 3.34251 20.5794 3.66667 20.5794H18.3333C18.6575 20.5794 18.9684 20.4519 19.1976 20.2248C19.4268 19.9978 19.5556 19.6899 19.5556 19.3689V16.9478C19.5556 16.6268 19.6843 16.3189 19.9135 16.0919C20.1427 15.8648 20.4536 15.7373 20.7778 15.7373C21.1019 15.7373 21.4128 15.8648 21.642 16.0919C21.8712 16.3189 22 16.6268 22 16.9478V19.3689C22 20.332 21.6137 21.2557 20.9261 21.9368C20.2384 22.6178 19.3058 23.0004 18.3333 23.0004H3.66667C2.69421 23.0004 1.76158 22.6178 1.07394 21.9368C0.386309 21.2557 0 20.332 0 19.3689V16.9478C0 16.6268 0.128769 16.3189 0.357981 16.0919C0.587192 15.8648 0.898069 15.7373 1.22222 15.7373Z" fill="#A2845E"/>
<path fill-rule="evenodd" clip-rule="evenodd" d="M4.02387 8.82952C4.25307 8.60258 4.56389 8.4751 4.88798 8.4751C5.21207 8.4751 5.52289 8.60258 5.75209 8.82952L10.9991 14.0263L16.2461 8.82952C16.3588 8.7139 16.4937 8.62168 16.6428 8.55824C16.7919 8.4948 16.9523 8.4614 17.1146 8.46001C17.2769 8.45861 17.4378 8.48924 17.588 8.55011C17.7382 8.61097 17.8747 8.70086 17.9895 8.81452C18.1042 8.92818 18.195 9.06333 18.2564 9.2121C18.3179 9.36087 18.3488 9.52027 18.3474 9.681C18.346 9.84174 18.3123 10.0006 18.2482 10.1483C18.1842 10.296 18.091 10.4295 17.9743 10.5412L11.8632 16.5938C11.634 16.8208 11.3232 16.9482 10.9991 16.9482C10.675 16.9482 10.3642 16.8208 10.135 16.5938L4.02387 10.5412C3.79473 10.3142 3.66602 10.0063 3.66602 9.68536C3.66602 9.36437 3.79473 9.05653 4.02387 8.82952Z" fill="#A2845E"/>
<path fill-rule="evenodd" clip-rule="evenodd" d="M10.9996 0C11.3237 0 11.6346 0.127537 11.8638 0.354554C12.093 0.581571 12.2218 0.889473 12.2218 1.21052V15.7368C12.2218 16.0579 12.093 16.3658 11.8638 16.5928C11.6346 16.8198 11.3237 16.9473 10.9996 16.9473C10.6754 16.9473 10.3645 16.8198 10.1353 16.5928C9.90611 16.3658 9.77734 16.0579 9.77734 15.7368V1.21052C9.77734 0.889473 9.90611 0.581571 10.1353 0.354554C10.3645 0.127537 10.6754 0 10.9996 0Z" fill="#A2845E"/>
</svg>
