<svg width="30" height="25" viewBox="0 0 30 25" fill="none" xmlns="http://www.w3.org/2000/svg">
<path d="M28.6165 22.3094H27.7685V15.7033C27.7685 15.6456 27.7572 15.5884 27.7351 15.535C27.713 15.4817 27.6806 15.4332 27.6397 15.3923C27.5989 15.3515 27.5504 15.3191 27.4971 15.297C27.4437 15.2749 27.3865 15.2635 27.3288 15.2635C27.271 15.2635 27.2138 15.2749 27.1605 15.297C27.1071 15.3191 27.0586 15.3515 27.0178 15.3923C26.977 15.4332 26.9446 15.4817 26.9225 15.535C26.9004 15.5884 26.889 15.6456 26.889 15.7033V22.3094H11.5551V15.8146C11.5551 15.698 11.5087 15.5861 11.4263 15.5036C11.3438 15.4212 11.2319 15.3748 11.1153 15.3748H5.33682C5.22019 15.3748 5.10833 15.4212 5.02586 15.5036C4.94339 15.5861 4.89705 15.698 4.89705 15.8146V22.3094H2.81325V13.6649L26.889 7.46575V13.9443C26.889 14.002 26.9004 14.0592 26.9225 14.1126C26.9446 14.1659 26.977 14.2144 27.0178 14.2552C27.0586 14.2961 27.1071 14.3285 27.1605 14.3506C27.2138 14.3727 27.271 14.3841 27.3288 14.3841C27.3865 14.3841 27.4437 14.3727 27.4971 14.3506C27.5504 14.3285 27.5989 14.2961 27.6397 14.2552C27.6806 14.2144 27.713 14.1659 27.7351 14.1126C27.7572 14.0592 27.7685 14.002 27.7685 13.9443V6.89841C27.7686 6.83131 27.7532 6.7651 27.7237 6.70485C27.6942 6.64459 27.6513 6.59189 27.5983 6.55079C27.5452 6.50969 27.4835 6.48126 27.4178 6.4677C27.3521 6.45414 27.2841 6.45581 27.2192 6.47256L25.0686 7.02627L24.6597 2.49315L24.6597 2.49274L24.4709 0.400271C24.4611 0.290924 24.4107 0.189221 24.3296 0.115153C24.2486 0.0410848 24.1428 9.11983e-06 24.033 0H21.1296C21.0198 9.11983e-06 20.914 0.0410848 20.833 0.115153C20.7519 0.189221 20.7015 0.290924 20.6916 0.400271L20.5029 2.49285V2.49291L19.9758 8.33762L17.4767 8.9811L17.0369 4.10447V4.10424L16.8482 2.01171C16.8383 1.90236 16.7879 1.80066 16.7069 1.72659C16.6258 1.65253 16.52 1.61145 16.4102 1.61144H13.5068C13.397 1.61145 13.2912 1.65253 13.2101 1.72659C13.1291 1.80066 13.0787 1.90236 13.0688 2.01171L12.8801 4.10418L12.8801 4.10459L12.3205 10.3088L9.88481 10.936L9.41397 5.71597V5.71568L9.22524 3.62321C9.21538 3.51386 9.16498 3.41216 9.08393 3.33809C9.00289 3.26402 8.89707 3.22295 8.78728 3.22294H5.88398C5.77419 3.22295 5.66837 3.26402 5.58733 3.33809C5.50629 3.41216 5.45588 3.51386 5.44602 3.62321L5.04165 8.10612C5.03173 8.22198 5.0681 8.33706 5.14281 8.42617C5.21752 8.51529 5.32448 8.57119 5.44029 8.58164C5.55611 8.59209 5.67135 8.55625 5.7608 8.48195C5.85026 8.40765 5.90664 8.30095 5.91763 8.18518L6.09664 6.20057H8.57474L9.02189 11.1583L5.56932 12.0473L5.75951 9.93894C5.76943 9.82308 5.73306 9.708 5.65835 9.61889C5.58365 9.52978 5.47669 9.47388 5.36087 9.46343C5.24506 9.45297 5.12982 9.48882 5.04036 9.56312C4.9509 9.63741 4.89452 9.74412 4.88354 9.85988L4.66526 12.28L2.2641 12.8983C2.16965 12.9226 2.08596 12.9776 2.0262 13.0547C1.96644 13.1318 1.93401 13.2266 1.934 13.3241V22.3095H1.3453C0.603507 22.3094 0 22.9129 0 23.6547C0 24.3965 0.603507 25 1.3453 25H14.2641C14.3218 25 14.379 24.9886 14.4324 24.9665C14.4857 24.9444 14.5342 24.912 14.5751 24.8712C14.6159 24.8304 14.6483 24.7819 14.6704 24.7285C14.6925 24.6752 14.7039 24.618 14.7039 24.5602C14.7039 24.5025 14.6925 24.4453 14.6704 24.3919C14.6483 24.3386 14.6159 24.2901 14.5751 24.2493C14.5342 24.2084 14.4857 24.176 14.4324 24.1539C14.379 24.1318 14.3218 24.1205 14.2641 24.1205H1.3453C1.08846 24.1205 0.879483 23.9115 0.879483 23.6547C0.879483 23.3979 1.0884 23.1889 1.3453 23.1889H28.6165C28.87 23.1889 29.0823 23.4012 29.0823 23.6547C29.0823 23.9082 28.87 24.1205 28.6165 24.1205H16.0231C15.9654 24.1205 15.9082 24.1318 15.8548 24.1539C15.8015 24.176 15.753 24.2084 15.7121 24.2493C15.6713 24.2901 15.6389 24.3386 15.6168 24.3919C15.5947 24.4453 15.5833 24.5025 15.5833 24.5602C15.5833 24.618 15.5947 24.6752 15.6168 24.7285C15.6389 24.7819 15.6713 24.8304 15.7121 24.8712C15.753 24.912 15.8015 24.9444 15.8548 24.9665C15.9082 24.9886 15.9654 25 16.0231 25H28.6165C29.3583 25 29.9618 24.3965 29.9618 23.6547C29.9618 22.9129 29.3583 22.3094 28.6165 22.3094ZM6.17575 5.32091L6.28565 4.10236H8.38532L8.49522 5.32091H6.17575ZM23.6311 0.879542L23.741 2.09808H21.4216L21.5315 0.879542H23.6311ZM21.3423 2.97757H23.8204L24.2055 7.24847L20.8798 8.10478L21.3423 2.97757ZM16.0082 2.49092L16.1181 3.70947H13.7986L13.9085 2.49092H16.0082ZM13.7193 4.58901H16.1974L16.6136 9.2033L13.2244 10.076L13.7193 4.58901ZM5.77654 16.2544H10.6755V22.3095H5.77654V16.2544Z" fill="#A2845E"/>
<path d="M16.6505 13.3558C16.6505 13.2392 16.6041 13.1273 16.5217 13.0448C16.4392 12.9623 16.3273 12.916 16.2107 12.916H14.4544C14.3378 12.916 14.2259 12.9623 14.1435 13.0448C14.061 13.1273 14.0146 13.2392 14.0146 13.3558V15.549C14.0146 15.6656 14.061 15.7775 14.1435 15.8599C14.2259 15.9424 14.3378 15.9887 14.4544 15.9887H16.2107C16.3273 15.9887 16.4392 15.9424 16.5217 15.8599C16.6041 15.7775 16.6505 15.6656 16.6505 15.549V13.3558ZM15.771 15.1093H14.8942V13.7956H15.771V15.1093ZM16.2107 17.4051H14.4544C14.3378 17.4051 14.2259 17.4515 14.1435 17.5339C14.061 17.6164 14.0146 17.7283 14.0146 17.8449V20.0381C14.0146 20.1547 14.061 20.2666 14.1435 20.349C14.2259 20.4315 14.3378 20.4779 14.4544 20.4779H16.2107C16.3273 20.4779 16.4392 20.4315 16.5217 20.349C16.6041 20.2666 16.6505 20.1547 16.6505 20.0381V17.8449C16.6505 17.7283 16.6041 17.6164 16.5217 17.5339C16.4392 17.4515 16.3273 17.4051 16.2107 17.4051ZM15.771 19.5984H14.8942V18.2847H15.771V19.5984ZM21.1022 13.3558C21.1022 13.2392 21.0559 13.1273 20.9734 13.0448C20.891 12.9623 20.7791 12.916 20.6625 12.916H18.9061C18.7895 12.916 18.6777 12.9623 18.5952 13.0448C18.5127 13.1273 18.4664 13.2392 18.4664 13.3558V15.549C18.4664 15.6656 18.5127 15.7775 18.5952 15.8599C18.6777 15.9424 18.7895 15.9887 18.9061 15.9887H20.6625C20.7791 15.9887 20.891 15.9424 20.9734 15.8599C21.0559 15.7775 21.1022 15.6656 21.1022 15.549V13.3558ZM20.2228 15.1093H19.346V13.7956H20.2228V15.1093ZM20.6625 17.4051H18.9062C18.7896 17.4051 18.6777 17.4515 18.5952 17.5339C18.5128 17.6164 18.4664 17.7283 18.4664 17.8449V20.0381C18.4664 20.1547 18.5128 20.2666 18.5952 20.349C18.6777 20.4315 18.7896 20.4779 18.9062 20.4779H20.6625C20.7792 20.4779 20.891 20.4315 20.9735 20.349C21.056 20.2666 21.1023 20.1547 21.1023 20.0381V17.8449C21.1023 17.7283 21.056 17.6164 20.9735 17.534C20.891 17.4515 20.7792 17.4051 20.6625 17.4051ZM20.2228 19.5984H19.346V18.2847H20.2228V19.5984ZM25.554 13.3558C25.554 13.2392 25.5077 13.1273 25.4252 13.0448C25.3427 12.9623 25.2309 12.916 25.1143 12.916H23.358C23.2413 12.916 23.1295 12.9623 23.047 13.0448C22.9645 13.1273 22.9182 13.2392 22.9182 13.3558V15.549C22.9182 15.6656 22.9645 15.7775 23.047 15.8599C23.1295 15.9424 23.2413 15.9887 23.358 15.9887H25.1143C25.2309 15.9887 25.3427 15.9424 25.4252 15.8599C25.5077 15.7775 25.554 15.6656 25.554 15.549V13.3558ZM24.6745 15.1093H23.7978V13.7956H24.6745V15.1093ZM25.1143 17.4051H23.358C23.2413 17.4051 23.1295 17.4515 23.047 17.5339C22.9645 17.6164 22.9182 17.7283 22.9182 17.8449V20.0381C22.9182 20.1547 22.9645 20.2666 23.047 20.349C23.1295 20.4315 23.2413 20.4779 23.358 20.4779H25.1143C25.2309 20.4779 25.3427 20.4315 25.4252 20.349C25.5077 20.2666 25.554 20.1547 25.554 20.0381V17.8449C25.554 17.7283 25.5077 17.6164 25.4252 17.5339C25.3427 17.4515 25.2309 17.4051 25.1143 17.4051ZM24.6745 19.5984H23.7978V18.2847H24.6745V19.5984Z" fill="#A2845E"/>
</svg>
