<svg width="120" height="114" viewBox="0 0 120 114" fill="none" xmlns="http://www.w3.org/2000/svg">
<path d="M106.576 33.5393L109.03 30.6848L111.421 32.741C111.597 32.8925 111.802 33.0078 112.022 33.0803C112.243 33.1528 112.476 33.1812 112.708 33.1637C112.94 33.1462 113.166 33.0832 113.373 32.9784C113.58 32.8736 113.765 32.7289 113.917 32.5527L117.716 28.1337C118.022 27.7779 118.174 27.3151 118.138 26.8472C118.103 26.3792 117.883 25.9445 117.527 25.6386L104.461 14.4051C104.285 14.2532 104.081 14.1377 103.86 14.0651C103.639 13.9926 103.406 13.9644 103.174 13.9823C102.706 14.0176 102.272 14.2373 101.966 14.5931L98.1665 19.0121C97.8606 19.3679 97.7086 19.8307 97.7439 20.2986C97.7792 20.7666 97.9989 21.2013 98.3548 21.5072L100.746 23.5633L98.1044 26.6361C92.6932 23.1797 86.5352 20.7935 79.9309 19.7802V14.4336H86.0249C88.8693 14.4336 91.183 12.1196 91.183 9.27529V5.15834C91.183 2.31399 88.869 0 86.0249 0H59.4398C56.5954 0 54.2815 2.31399 54.2815 5.15834V9.27529C54.2815 12.1196 56.5954 14.4336 59.4398 14.4336H65.5341V19.7802C58.7995 20.8136 52.5299 23.2757 47.042 26.843L44.2224 23.5633L46.614 21.5072C46.9697 21.2011 47.1892 20.7663 47.2245 20.2984C47.2597 19.8305 47.1078 19.3678 46.8021 19.0118L43.0029 14.5929C42.8514 14.4167 42.6667 14.272 42.4593 14.1672C42.2519 14.0624 42.0259 13.9995 41.7941 13.982C41.5624 13.9646 41.3295 13.9929 41.1088 14.0655C40.888 14.138 40.6837 14.2533 40.5075 14.4048L27.4413 25.6383C27.0857 25.9444 26.8661 26.3792 26.8308 26.8471C26.7956 27.315 26.9475 27.7778 27.2533 28.1337L31.0524 32.5527C31.2184 32.7462 31.4244 32.9014 31.6561 33.0077C31.8879 33.114 32.1399 33.1688 32.3949 33.1685C32.818 33.1689 33.2272 33.0171 33.5476 32.7407L35.939 30.6848L38.6255 33.8095C36.2944 36.2407 34.228 38.9125 32.4611 41.7801C32.4007 41.7739 32.34 41.7708 32.2792 41.7709H21.105C20.6357 41.7709 20.1856 41.9573 19.8538 42.2891C19.5219 42.621 19.3355 43.0711 19.3355 43.5403C19.3355 44.0096 19.5219 44.4597 19.8538 44.7915C20.1856 45.1234 20.6357 45.3098 21.105 45.3098H30.49C29.5532 47.1693 28.7411 49.0889 28.059 51.0561H10.1805C9.71125 51.0561 9.26118 51.2425 8.92935 51.5743C8.59751 51.9062 8.41108 52.3562 8.41108 52.8255C8.41108 53.2948 8.59751 53.7449 8.92935 54.0767C9.26118 54.4086 9.71125 54.595 10.1805 54.595H26.9848C26.339 57.0789 25.8979 59.6116 25.6657 62.1676H1.76946C1.30017 62.1676 0.850102 62.354 0.518264 62.6859C0.186425 63.0177 0 63.4678 0 63.9371C0 64.4063 0.186425 64.8564 0.518264 65.1883C0.850102 65.5201 1.30017 65.7065 1.76946 65.7065H25.4753C25.4708 65.971 25.4652 66.235 25.4652 66.5006C25.4652 68.8021 25.6339 71.0647 25.9533 73.2791H8.52905C8.05976 73.2791 7.60969 73.4655 7.27785 73.7974C6.94601 74.1292 6.75958 74.5793 6.75958 75.0486C6.75958 75.5179 6.94601 75.9679 7.27785 76.2998C7.60969 76.6316 8.05976 76.818 8.52905 76.818H26.6026C27.0377 78.7672 27.5971 80.6864 28.2774 82.5641H19.4535C18.9842 82.5641 18.5341 82.7505 18.2023 83.0823C17.8704 83.4142 17.684 83.8642 17.684 84.3335C17.684 84.8028 17.8704 85.2529 18.2023 85.5847C18.5341 85.9166 18.9842 86.103 19.4535 86.103H29.7258C37.1882 102.41 53.6581 113.768 72.7327 113.768C82.6952 113.768 92.2237 110.705 100.288 104.909C100.665 104.634 100.918 104.221 100.991 103.76C101.065 103.299 100.953 102.827 100.681 102.448C100.408 102.069 99.997 101.813 99.5367 101.736C99.0764 101.659 98.6041 101.766 98.2229 102.036C90.764 107.396 81.9495 110.229 72.7327 110.229C48.6206 110.229 29.0041 90.6128 29.0041 66.5009C29.0041 42.3888 48.6206 22.7723 72.7327 22.7723C84.4048 22.7723 95.0234 27.3693 102.873 34.8478C102.89 34.8648 102.907 34.8804 102.924 34.8969C111.261 42.8642 116.461 54.0866 116.461 66.5009C116.461 78.1954 111.903 89.1863 103.626 97.4486C103.462 97.6127 103.331 97.8077 103.242 98.0223C103.153 98.2369 103.107 98.467 103.107 98.6994C103.107 98.9317 103.152 99.1619 103.241 99.3766C103.33 99.5914 103.46 99.7866 103.624 99.951C103.956 100.283 104.405 100.47 104.875 100.47C105.344 100.471 105.794 100.285 106.126 99.9532C115.073 91.0221 120 79.1419 120 66.5006C120 53.6926 114.877 42.0606 106.576 33.5393ZM103.496 18.242L113.879 27.1683L112.387 28.9036L102.004 19.9772L103.496 18.242ZM103.43 25.8705L106.346 28.3777L104.011 31.0946C103.05 30.2453 102.057 29.4323 101.03 28.662L103.43 25.8705ZM64.9072 10.8947V3.53893H67.7648V10.8947H64.9072ZM71.3037 3.53893H74.1612V10.8947H71.3037V3.53893ZM77.7002 10.8947V3.53893H80.558V10.8947H77.7002ZM87.6446 5.15834V9.27529C87.6441 9.70461 87.4734 10.1162 87.1698 10.4198C86.8663 10.7234 86.4547 10.8942 86.0254 10.8947H84.0971V3.53893H86.0254C86.4547 3.53942 86.8663 3.71021 87.1698 4.01381C87.4734 4.3174 87.6441 4.72902 87.6446 5.15834ZM57.8206 9.27529V5.15834C57.8211 4.729 57.9919 4.31738 58.2955 4.01379C58.5991 3.7102 59.0107 3.53942 59.44 3.53893H61.3683V10.8947H59.44C59.0107 10.8942 58.5991 10.7234 58.2955 10.4198C57.9919 10.1162 57.8211 9.70463 57.8206 9.27529ZM32.5822 28.9038L31.0902 27.1686L41.4729 18.2422L42.9649 19.9775L40.5738 22.0333L40.5733 22.0336L34.9735 26.8479L34.9731 26.8484L32.5822 28.9038ZM38.6755 28.3322L41.5387 25.8705L44.1361 28.8916C43.1157 29.6689 42.1272 30.4872 41.173 31.3445L38.6224 28.3779L38.6755 28.3322ZM69.073 19.3735V14.4336H76.3922V19.3737C73.9561 19.1862 71.5091 19.1861 69.073 19.3735Z" fill="#A2845E"/>
<path d="M106.576 33.5393L109.03 30.6848L111.421 32.741C111.597 32.8925 111.802 33.0078 112.022 33.0803C112.243 33.1528 112.476 33.1812 112.708 33.1637C112.94 33.1462 113.166 33.0832 113.373 32.9784C113.58 32.8736 113.765 32.7289 113.917 32.5527L117.716 28.1337C118.022 27.7779 118.174 27.3151 118.138 26.8472C118.103 26.3792 117.883 25.9445 117.527 25.6386L104.461 14.4051C104.285 14.2532 104.081 14.1377 103.86 14.0651C103.639 13.9926 103.406 13.9644 103.174 13.9823C102.706 14.0176 102.272 14.2373 101.966 14.5931L98.1665 19.0121C97.8606 19.3679 97.7086 19.8307 97.7439 20.2986C97.7792 20.7666 97.9989 21.2013 98.3548 21.5072L100.746 23.5633L98.1044 26.6361C92.6932 23.1797 86.5352 20.7935 79.9309 19.7802V14.4336H86.0249C88.8693 14.4336 91.183 12.1196 91.183 9.27529V5.15834C91.183 2.31399 88.869 0 86.0249 0H59.4398C56.5954 0 54.2815 2.31399 54.2815 5.15834V9.27529C54.2815 12.1196 56.5954 14.4336 59.4398 14.4336H65.5341V19.7802C58.7995 20.8136 52.5299 23.2757 47.042 26.843L44.2224 23.5633L46.614 21.5072C46.9697 21.2011 47.1892 20.7663 47.2245 20.2984C47.2597 19.8305 47.1078 19.3678 46.8021 19.0118L43.0029 14.5929C42.8514 14.4167 42.6667 14.272 42.4593 14.1672C42.2519 14.0624 42.0259 13.9995 41.7941 13.982C41.5624 13.9646 41.3295 13.9929 41.1088 14.0655C40.888 14.138 40.6837 14.2533 40.5075 14.4048L27.4413 25.6383C27.0857 25.9444 26.8661 26.3792 26.8308 26.8471C26.7956 27.315 26.9475 27.7778 27.2533 28.1337L31.0524 32.5527C31.2184 32.7462 31.4244 32.9014 31.6561 33.0077C31.8879 33.114 32.1399 33.1688 32.3949 33.1685C32.818 33.1689 33.2272 33.0171 33.5476 32.7407L35.939 30.6848L38.6255 33.8095C36.2944 36.2407 34.228 38.9125 32.4611 41.7801C32.4007 41.7739 32.34 41.7708 32.2792 41.7709H21.105C20.6357 41.7709 20.1856 41.9573 19.8538 42.2891C19.5219 42.621 19.3355 43.0711 19.3355 43.5403C19.3355 44.0096 19.5219 44.4597 19.8538 44.7915C20.1856 45.1234 20.6357 45.3098 21.105 45.3098H30.49C29.5532 47.1693 28.7411 49.0889 28.059 51.0561H10.1805C9.71125 51.0561 9.26118 51.2425 8.92935 51.5743C8.59751 51.9062 8.41108 52.3562 8.41108 52.8255C8.41108 53.2948 8.59751 53.7449 8.92935 54.0767C9.26118 54.4086 9.71125 54.595 10.1805 54.595H26.9848C26.339 57.0789 25.8979 59.6116 25.6657 62.1676H1.76946C1.30017 62.1676 0.850102 62.354 0.518264 62.6859C0.186425 63.0177 0 63.4678 0 63.9371C0 64.4063 0.186425 64.8564 0.518264 65.1883C0.850102 65.5201 1.30017 65.7065 1.76946 65.7065H25.4753C25.4708 65.971 25.4652 66.235 25.4652 66.5006C25.4652 68.8021 25.6339 71.0647 25.9533 73.2791H8.52905C8.05976 73.2791 7.60969 73.4655 7.27785 73.7974C6.94601 74.1292 6.75958 74.5793 6.75958 75.0486C6.75958 75.5179 6.94601 75.9679 7.27785 76.2998C7.60969 76.6316 8.05976 76.818 8.52905 76.818H26.6026C27.0377 78.7672 27.5971 80.6864 28.2774 82.5641H19.4535C18.9842 82.5641 18.5341 82.7505 18.2023 83.0823C17.8704 83.4142 17.684 83.8642 17.684 84.3335C17.684 84.8028 17.8704 85.2529 18.2023 85.5847C18.5341 85.9166 18.9842 86.103 19.4535 86.103H29.7258C37.1882 102.41 53.6581 113.768 72.7327 113.768C82.6952 113.768 92.2237 110.705 100.288 104.909C100.665 104.634 100.918 104.221 100.991 103.76C101.065 103.299 100.953 102.827 100.681 102.448C100.408 102.069 99.997 101.813 99.5367 101.736C99.0764 101.659 98.6041 101.766 98.2229 102.036C90.764 107.396 81.9495 110.229 72.7327 110.229C48.6206 110.229 29.0041 90.6128 29.0041 66.5009C29.0041 42.3888 48.6206 22.7723 72.7327 22.7723C84.4048 22.7723 95.0234 27.3693 102.873 34.8478C102.89 34.8648 102.907 34.8804 102.924 34.8969C111.261 42.8642 116.461 54.0866 116.461 66.5009C116.461 78.1954 111.903 89.1863 103.626 97.4486C103.462 97.6127 103.331 97.8077 103.242 98.0223C103.153 98.2369 103.107 98.467 103.107 98.6994C103.107 98.9317 103.152 99.1619 103.241 99.3766C103.33 99.5914 103.46 99.7866 103.624 99.951C103.956 100.283 104.405 100.47 104.875 100.47C105.344 100.471 105.794 100.285 106.126 99.9532C115.073 91.0221 120 79.1419 120 66.5006C120 53.6926 114.877 42.0606 106.576 33.5393ZM103.496 18.242L113.879 27.1683L112.387 28.9036L102.004 19.9772L103.496 18.242ZM103.43 25.8705L106.346 28.3777L104.011 31.0946C103.05 30.2453 102.057 29.4323 101.03 28.662L103.43 25.8705ZM64.9072 10.8947V3.53893H67.7648V10.8947H64.9072ZM71.3037 3.53893H74.1612V10.8947H71.3037V3.53893ZM77.7002 10.8947V3.53893H80.558V10.8947H77.7002ZM87.6446 5.15834V9.27529C87.6441 9.70461 87.4734 10.1162 87.1698 10.4198C86.8663 10.7234 86.4547 10.8942 86.0254 10.8947H84.0971V3.53893H86.0254C86.4547 3.53942 86.8663 3.71021 87.1698 4.01381C87.4734 4.3174 87.6441 4.72902 87.6446 5.15834ZM57.8206 9.27529V5.15834C57.8211 4.729 57.9919 4.31738 58.2955 4.01379C58.5991 3.7102 59.0107 3.53942 59.44 3.53893H61.3683V10.8947H59.44C59.0107 10.8942 58.5991 10.7234 58.2955 10.4198C57.9919 10.1162 57.8211 9.70463 57.8206 9.27529ZM32.5822 28.9038L31.0902 27.1686L41.4729 18.2422L42.9649 19.9775L40.5738 22.0333L40.5733 22.0336L34.9735 26.8479L34.9731 26.8484L32.5822 28.9038ZM38.6755 28.3322L41.5387 25.8705L44.1361 28.8916C43.1157 29.6689 42.1272 30.4872 41.173 31.3445L38.6224 28.3779L38.6755 28.3322ZM69.073 19.3735V14.4336H76.3922V19.3737C73.9561 19.1862 71.5091 19.1861 69.073 19.3735Z" fill="url(#paint0_linear_4541_982)"/>
<path d="M57.9129 34.2627C57.6954 33.8468 57.3217 33.5343 56.874 33.3939C56.4262 33.2535 55.941 33.2967 55.525 33.5141C44.7672 39.1372 37.4095 49.6714 35.8429 61.6929C33.1923 82.0337 47.5844 100.739 67.9252 103.389C69.5278 103.599 71.1422 103.704 72.7584 103.704C91.1488 103.702 107.182 90.0227 109.622 71.3069C110.905 61.4534 108.276 51.6897 102.216 43.8142C96.1561 35.9389 87.3926 30.8945 77.5388 29.6104C72.7315 28.9838 67.9372 29.286 63.288 30.5076C62.8401 30.6322 62.4592 30.9281 62.2276 31.3313C61.9961 31.7345 61.9326 32.2126 62.0507 32.6623C62.1689 33.112 62.4592 33.4971 62.8591 33.7344C63.2589 33.9717 63.736 34.0421 64.1874 33.9305C66.4036 33.3481 68.674 32.9956 70.9625 32.8787V37.5277C70.9625 38.5049 71.7545 39.2971 72.732 39.2971C73.7094 39.2971 74.5015 38.5049 74.5015 37.5277V32.8829C75.3605 32.9294 76.2207 33.0073 77.0818 33.1193C83.9728 34.0173 90.2737 36.9494 95.3125 41.5243L92.1078 44.7287C91.9435 44.8929 91.8131 45.088 91.7241 45.3026C91.6352 45.5173 91.5894 45.7474 91.5893 45.9798C91.5893 46.2121 91.6351 46.4422 91.724 46.6569C91.8129 46.8716 91.9433 47.0666 92.1076 47.2309C92.2717 47.3955 92.4668 47.526 92.6815 47.615C92.8963 47.704 93.1265 47.7496 93.359 47.7493C93.5914 47.7496 93.8216 47.704 94.0363 47.615C94.251 47.526 94.446 47.3955 94.6101 47.2309L97.8055 44.0355C98.3642 44.6611 98.8998 45.307 99.4112 45.9718C103.642 51.4706 106.023 57.9869 106.357 64.7727H101.968C100.991 64.7727 100.199 65.5649 100.199 66.5421C100.199 67.5194 100.991 68.3116 101.968 68.3116H106.348C106.301 69.16 106.222 70.0064 106.112 70.849C105.201 77.8441 102.19 84.0603 97.798 88.9492L94.7665 85.9178C94.4342 85.5883 93.9849 85.4039 93.517 85.4049C93.049 85.4059 92.6005 85.5922 92.2696 85.9231C91.9387 86.254 91.7523 86.7025 91.7513 87.1704C91.7502 87.6384 91.9346 88.0877 92.264 88.42L95.2988 91.4548C89.7254 96.4871 82.5086 99.6452 74.7225 100.103V95.7777C74.7225 94.8005 73.9305 94.0082 72.953 94.0082C71.9756 94.0082 71.1836 94.8005 71.1836 95.7777V100.125C70.2469 100.082 69.3125 100 68.3827 99.8793C61.4645 98.9778 55.3073 96.0235 50.4431 91.7103L53.5772 88.5762C54.2682 87.8852 54.2682 86.765 53.5772 86.0739C52.8862 85.3829 51.7657 85.3829 51.0749 86.0739L47.9229 89.2257C42.8151 83.6408 39.6022 76.3763 39.1306 68.5322H43.7173C44.1866 68.5322 44.6366 68.3458 44.9685 68.0139C45.3003 67.6821 45.4867 67.232 45.4867 66.7627C45.4867 66.2934 45.3003 65.8434 44.9685 65.5115C44.6366 65.1797 44.1866 64.9933 43.7173 64.9933H39.1046C39.1476 64.0505 39.228 63.1021 39.3521 62.1496C40.238 55.3523 43.1704 49.0801 47.621 44.0893L50.9188 47.3869C51.2642 47.7325 51.7171 47.9052 52.1699 47.9052C52.6226 47.9052 53.0756 47.7325 53.421 47.3869C53.7528 47.055 53.9392 46.605 53.9392 46.1357C53.9392 45.6665 53.7528 45.2165 53.421 44.8846L50.1142 41.5778C52.2439 39.6406 54.6133 37.9844 57.1643 36.6498C57.3702 36.5422 57.5529 36.3952 57.702 36.217C57.8511 36.0388 57.9636 35.833 58.0331 35.6113C58.1027 35.3896 58.1278 35.1564 58.1072 34.925C58.0865 34.6936 58.0205 34.4685 57.9129 34.2627Z" fill="#A2845E"/>
<path d="M57.9129 34.2627C57.6954 33.8468 57.3217 33.5343 56.874 33.3939C56.4262 33.2535 55.941 33.2967 55.525 33.5141C44.7672 39.1372 37.4095 49.6714 35.8429 61.6929C33.1923 82.0337 47.5844 100.739 67.9252 103.389C69.5278 103.599 71.1422 103.704 72.7584 103.704C91.1488 103.702 107.182 90.0227 109.622 71.3069C110.905 61.4534 108.276 51.6897 102.216 43.8142C96.1561 35.9389 87.3926 30.8945 77.5388 29.6104C72.7315 28.9838 67.9372 29.286 63.288 30.5076C62.8401 30.6322 62.4592 30.9281 62.2276 31.3313C61.9961 31.7345 61.9326 32.2126 62.0507 32.6623C62.1689 33.112 62.4592 33.4971 62.8591 33.7344C63.2589 33.9717 63.736 34.0421 64.1874 33.9305C66.4036 33.3481 68.674 32.9956 70.9625 32.8787V37.5277C70.9625 38.5049 71.7545 39.2971 72.732 39.2971C73.7094 39.2971 74.5015 38.5049 74.5015 37.5277V32.8829C75.3605 32.9294 76.2207 33.0073 77.0818 33.1193C83.9728 34.0173 90.2737 36.9494 95.3125 41.5243L92.1078 44.7287C91.9435 44.8929 91.8131 45.088 91.7241 45.3026C91.6352 45.5173 91.5894 45.7474 91.5893 45.9798C91.5893 46.2121 91.6351 46.4422 91.724 46.6569C91.8129 46.8716 91.9433 47.0666 92.1076 47.2309C92.2717 47.3955 92.4668 47.526 92.6815 47.615C92.8963 47.704 93.1265 47.7496 93.359 47.7493C93.5914 47.7496 93.8216 47.704 94.0363 47.615C94.251 47.526 94.446 47.3955 94.6101 47.2309L97.8055 44.0355C98.3642 44.6611 98.8998 45.307 99.4112 45.9718C103.642 51.4706 106.023 57.9869 106.357 64.7727H101.968C100.991 64.7727 100.199 65.5649 100.199 66.5421C100.199 67.5194 100.991 68.3116 101.968 68.3116H106.348C106.301 69.16 106.222 70.0064 106.112 70.849C105.201 77.8441 102.19 84.0603 97.798 88.9492L94.7665 85.9178C94.4342 85.5883 93.9849 85.4039 93.517 85.4049C93.049 85.4059 92.6005 85.5922 92.2696 85.9231C91.9387 86.254 91.7523 86.7025 91.7513 87.1704C91.7502 87.6384 91.9346 88.0877 92.264 88.42L95.2988 91.4548C89.7254 96.4871 82.5086 99.6452 74.7225 100.103V95.7777C74.7225 94.8005 73.9305 94.0082 72.953 94.0082C71.9756 94.0082 71.1836 94.8005 71.1836 95.7777V100.125C70.2469 100.082 69.3125 100 68.3827 99.8793C61.4645 98.9778 55.3073 96.0235 50.4431 91.7103L53.5772 88.5762C54.2682 87.8852 54.2682 86.765 53.5772 86.0739C52.8862 85.3829 51.7657 85.3829 51.0749 86.0739L47.9229 89.2257C42.8151 83.6408 39.6022 76.3763 39.1306 68.5322H43.7173C44.1866 68.5322 44.6366 68.3458 44.9685 68.0139C45.3003 67.6821 45.4867 67.232 45.4867 66.7627C45.4867 66.2934 45.3003 65.8434 44.9685 65.5115C44.6366 65.1797 44.1866 64.9933 43.7173 64.9933H39.1046C39.1476 64.0505 39.228 63.1021 39.3521 62.1496C40.238 55.3523 43.1704 49.0801 47.621 44.0893L50.9188 47.3869C51.2642 47.7325 51.7171 47.9052 52.1699 47.9052C52.6226 47.9052 53.0756 47.7325 53.421 47.3869C53.7528 47.055 53.9392 46.605 53.9392 46.1357C53.9392 45.6665 53.7528 45.2165 53.421 44.8846L50.1142 41.5778C52.2439 39.6406 54.6133 37.9844 57.1643 36.6498C57.3702 36.5422 57.5529 36.3952 57.702 36.217C57.8511 36.0388 57.9636 35.833 58.0331 35.6113C58.1027 35.3896 58.1278 35.1564 58.1072 34.925C58.0865 34.6936 58.0205 34.4685 57.9129 34.2627Z" fill="url(#paint1_linear_4541_982)"/>
<path d="M72.7325 50.2686C72.2632 50.2686 71.8131 50.455 71.4813 50.7868C71.1494 51.1187 70.963 51.5687 70.963 52.038V62.5486C69.4542 63.2272 68.3994 64.7411 68.3994 66.5C68.3994 68.8892 70.3432 70.833 72.7325 70.833C73.3874 70.833 74.0065 70.6827 74.5638 70.4213L86.3689 82.2265C86.533 82.3911 86.7281 82.5216 86.9428 82.6105C87.1576 82.6995 87.3878 82.7451 87.6203 82.7448C87.9702 82.7448 88.3123 82.6411 88.6033 82.4466C88.8943 82.2522 89.1211 81.9759 89.2551 81.6526C89.389 81.3293 89.4241 80.9735 89.3558 80.6302C89.2876 80.287 89.1191 79.9717 88.8716 79.7242L76.8836 67.736C77.0007 67.3439 77.0655 66.9296 77.0655 66.5C77.0655 64.7413 76.0107 63.2272 74.5022 62.5489V52.0383C74.5021 51.5689 74.3156 51.1188 73.9838 50.787C73.6519 50.4551 73.2018 50.2686 72.7325 50.2686ZM71.9383 66.4997C71.9386 66.2892 72.0223 66.0873 72.1712 65.9385C72.3201 65.7896 72.5219 65.7058 72.7325 65.7056C73.1701 65.7056 73.5264 66.0618 73.5264 66.4997C73.5264 66.9376 73.1701 67.2939 72.7325 67.2939C72.5219 67.2936 72.3201 67.2099 72.1712 67.061C72.0223 66.9121 71.9386 66.7103 71.9383 66.4997Z" fill="#A2845E"/>
<path d="M72.7325 50.2686C72.2632 50.2686 71.8131 50.455 71.4813 50.7868C71.1494 51.1187 70.963 51.5687 70.963 52.038V62.5486C69.4542 63.2272 68.3994 64.7411 68.3994 66.5C68.3994 68.8892 70.3432 70.833 72.7325 70.833C73.3874 70.833 74.0065 70.6827 74.5638 70.4213L86.3689 82.2265C86.533 82.3911 86.7281 82.5216 86.9428 82.6105C87.1576 82.6995 87.3878 82.7451 87.6203 82.7448C87.9702 82.7448 88.3123 82.6411 88.6033 82.4466C88.8943 82.2522 89.1211 81.9759 89.2551 81.6526C89.389 81.3293 89.4241 80.9735 89.3558 80.6302C89.2876 80.287 89.1191 79.9717 88.8716 79.7242L76.8836 67.736C77.0007 67.3439 77.0655 66.9296 77.0655 66.5C77.0655 64.7413 76.0107 63.2272 74.5022 62.5489V52.0383C74.5021 51.5689 74.3156 51.1188 73.9838 50.787C73.6519 50.4551 73.2018 50.2686 72.7325 50.2686ZM71.9383 66.4997C71.9386 66.2892 72.0223 66.0873 72.1712 65.9385C72.3201 65.7896 72.5219 65.7058 72.7325 65.7056C73.1701 65.7056 73.5264 66.0618 73.5264 66.4997C73.5264 66.9376 73.1701 67.2939 72.7325 67.2939C72.5219 67.2936 72.3201 67.2099 72.1712 67.061C72.0223 66.9121 71.9386 66.7103 71.9383 66.4997Z" fill="url(#paint2_linear_4541_982)"/>
<defs>
<linearGradient id="paint0_linear_4541_982" x1="57.1277" y1="2.54358e-07" x2="57.1277" y2="113.768" gradientUnits="userSpaceOnUse">
<stop stop-color="#C7B498"/>
<stop offset="1" stop-color="#A38C6B"/>
</linearGradient>
<linearGradient id="paint1_linear_4541_982" x1="70.9528" y1="29.293" x2="70.9528" y2="103.704" gradientUnits="userSpaceOnUse">
<stop stop-color="#C7B498"/>
<stop offset="1" stop-color="#A38C6B"/>
</linearGradient>
<linearGradient id="paint2_linear_4541_982" x1="78.3922" y1="50.2686" x2="78.3922" y2="82.7448" gradientUnits="userSpaceOnUse">
<stop stop-color="#C7B498"/>
<stop offset="1" stop-color="#A38C6B"/>
</linearGradient>
</defs>
</svg>
