<svg width="126" height="63" viewBox="0 0 126 63" fill="none" xmlns="http://www.w3.org/2000/svg">
<path d="M51.93 56.9164H49.2593V52.107C50.3569 51.7662 51.1585 50.7186 51.1585 49.4819C51.1585 48.7801 50.9001 48.1393 50.4763 47.6537C50.9002 47.1682 51.1585 46.5274 51.1585 45.8256C51.1585 45.1238 50.9001 44.483 50.4763 43.9974C50.9002 43.5119 51.1585 42.8711 51.1585 42.1693C51.1585 41.4675 50.9001 40.8267 50.4763 40.3411C50.9002 39.8556 51.1585 39.2148 51.1585 38.513C51.1585 37.8112 50.9001 37.1704 50.4763 36.6848C50.9002 36.1993 51.1585 35.5585 51.1585 34.8567C51.1585 34.1549 50.9001 33.5141 50.4763 33.0285C50.9002 32.543 51.1585 31.9022 51.1585 31.2004C51.1585 30.4986 50.9001 29.8578 50.4763 29.3723C50.9002 28.8867 51.1585 28.2459 51.1585 27.5441C51.1585 26.8423 50.9001 26.2015 50.4763 25.716C50.9002 25.2304 51.1585 24.5896 51.1585 23.8878C51.1585 23.186 50.9001 22.5452 50.4763 22.0597C50.9002 21.5741 51.1585 20.9333 51.1585 20.2315C51.1585 19.5297 50.9001 18.8889 50.4763 18.4034C50.9002 17.9178 51.1585 17.277 51.1585 16.5752C51.1585 15.8734 50.9001 15.2326 50.4763 14.7471C50.9159 14.2452 51.159 13.5939 51.1585 12.9189C51.1585 11.6822 50.3569 10.6346 49.2593 10.2938V9.77048C49.2593 9.52805 49.1655 9.29555 48.9986 9.12413C48.8316 8.95271 48.6052 8.8564 48.3691 8.8564C48.133 8.8564 47.9066 8.95271 47.7396 9.12413C47.5727 9.29555 47.4789 9.52805 47.4789 9.77048V10.1767H20.4159C20.1798 10.1767 19.9534 10.273 19.7864 10.4444C19.6195 10.6158 19.5257 10.8483 19.5257 11.0908C19.5257 11.3332 19.6195 11.5657 19.7864 11.7371C19.9534 11.9085 20.1798 12.0048 20.4159 12.0048H48.4878C48.9787 12.0048 49.378 12.4148 49.378 12.9189C49.378 13.423 48.9787 13.833 48.4878 13.833H12.6412C12.1503 13.833 11.751 13.423 11.751 12.9189C11.751 12.4148 12.1503 12.0048 12.6412 12.0048H16.6176C16.8537 12.0048 17.0801 11.9085 17.2471 11.7371C17.414 11.5657 17.5078 11.3332 17.5078 11.0908C17.5078 10.8483 17.414 10.6158 17.2471 10.4444C17.0801 10.273 16.8537 10.1767 16.6176 10.1767H13.6502V5.48445H47.4789V5.82972C47.4789 6.07215 47.5727 6.30465 47.7396 6.47607C47.9066 6.64749 48.133 6.7438 48.3691 6.7438C48.6052 6.7438 48.8316 6.64749 48.9986 6.47607C49.1655 6.30465 49.2593 6.07215 49.2593 5.82972V5.48445H51.93C53.4027 5.48445 54.6007 4.25434 54.6007 2.74222C54.6007 1.2301 53.4027 0 51.93 0H9.19903C7.72635 0 6.52834 1.2301 6.52834 2.74222C6.52834 4.25434 7.72635 5.48445 9.19903 5.48445H11.8697V10.2938C10.7721 10.6346 9.97056 11.6822 9.97056 12.9189C9.97056 13.6207 10.229 14.2615 10.6527 14.7471C10.2288 15.2326 9.97056 15.8734 9.97056 16.5752C9.97056 17.277 10.229 17.9178 10.6527 18.4034C10.2288 18.8889 9.97056 19.5297 9.97056 20.2315C9.97056 20.9333 10.229 21.5741 10.6527 22.0597C10.2288 22.5452 9.97056 23.186 9.97056 23.8878C9.97056 24.5896 10.229 25.2304 10.6527 25.716C10.2288 26.2015 9.97056 26.8423 9.97056 27.5441C9.97056 28.2459 10.229 28.8867 10.6527 29.3723C10.2288 29.8578 9.97056 30.4986 9.97056 31.2004C9.97056 31.9022 10.229 32.543 10.6527 33.0285C10.2131 33.5304 9.97008 34.1817 9.97056 34.8567C9.97056 35.1771 10.0249 35.4847 10.1237 35.7708H2.67069C1.19801 35.7708 0 37.0009 0 38.513C0 40.0251 1.19801 41.2552 2.67069 41.2552H10.1237C10.0222 41.5487 9.9704 41.8579 9.97056 42.1693C9.97056 42.8711 10.229 43.5119 10.6527 43.9974C10.2288 44.483 9.97056 45.1238 9.97056 45.8256C9.97056 46.5274 10.229 47.1682 10.6527 47.6537C10.2131 48.1556 9.97008 48.8069 9.97056 49.4819C9.97056 50.7186 10.7721 51.7662 11.8697 52.107V56.9164H9.19903C7.72635 56.9164 6.52834 58.1465 6.52834 59.6586C6.52834 61.1707 7.72635 62.4008 9.19903 62.4008H51.93C53.4027 62.4008 54.6007 61.1707 54.6007 59.6586C54.6007 58.1465 53.4027 56.9164 51.93 56.9164ZM9.19903 3.6563C8.7081 3.6563 8.3088 3.2463 8.3088 2.74222C8.3088 2.23814 8.7081 1.82815 9.19903 1.82815H51.93C52.4209 1.82815 52.8202 2.23814 52.8202 2.74222C52.8202 3.2463 52.4209 3.6563 51.93 3.6563H9.19903ZM48.4878 43.0834H12.6412C12.1503 43.0834 11.751 42.6734 11.751 42.1693C11.751 41.6652 12.1503 41.2552 12.6412 41.2552H48.4878C48.9787 41.2552 49.378 41.6652 49.378 42.1693C49.378 42.6734 48.9787 43.0834 48.4878 43.0834ZM49.378 45.8256C49.378 46.3297 48.9787 46.7397 48.4878 46.7397H12.6412C12.1503 46.7397 11.751 46.3297 11.751 45.8256C11.751 45.3215 12.1503 44.9115 12.6412 44.9115H48.4878C48.9787 44.9115 49.378 45.3215 49.378 45.8256ZM12.6412 15.6611H48.4878C48.9787 15.6611 49.378 16.0711 49.378 16.5752C49.378 17.0793 48.9787 17.4893 48.4878 17.4893H12.6412C12.1503 17.4893 11.751 17.0793 11.751 16.5752C11.751 16.0711 12.1503 15.6611 12.6412 15.6611ZM12.6412 19.3174H48.4878C48.9787 19.3174 49.378 19.7274 49.378 20.2315C49.378 20.7356 48.9787 21.1456 48.4878 21.1456H12.6412C12.1503 21.1456 11.751 20.7356 11.751 20.2315C11.751 19.7274 12.1503 19.3174 12.6412 19.3174ZM12.6412 22.9737H48.4878C48.9787 22.9737 49.378 23.3837 49.378 23.8878C49.378 24.3919 48.9787 24.8019 48.4878 24.8019H12.6412C12.1503 24.8019 11.751 24.3919 11.751 23.8878C11.751 23.3837 12.1503 22.9737 12.6412 22.9737ZM12.6412 26.63H48.4878C48.9787 26.63 49.378 27.04 49.378 27.5441C49.378 28.0482 48.9787 28.4582 48.4878 28.4582H12.6412C12.1503 28.4582 11.751 28.0482 11.751 27.5441C11.751 27.04 12.1503 26.63 12.6412 26.63ZM12.6412 30.2863H48.4878C48.9787 30.2863 49.378 30.6963 49.378 31.2004C49.378 31.7045 48.9787 32.1145 48.4878 32.1145H12.6412C12.1503 32.1145 11.751 31.7045 11.751 31.2004C11.751 30.6963 12.1503 30.2863 12.6412 30.2863ZM12.6412 33.9426H48.4878C48.9787 33.9426 49.378 34.3526 49.378 34.8567C49.378 35.3608 48.9787 35.7708 48.4878 35.7708H12.6412C12.1503 35.7708 11.751 35.3608 11.751 34.8567C11.751 34.3526 12.1503 33.9426 12.6412 33.9426ZM2.67069 39.4271C2.17975 39.4271 1.78046 39.0171 1.78046 38.513C1.78046 38.0089 2.17975 37.5989 2.67069 37.5989H48.4878C48.9787 37.5989 49.378 38.0089 49.378 38.513C49.378 39.0171 48.9787 39.4271 48.4878 39.4271H2.67069ZM11.751 49.4819C11.751 48.9778 12.1503 48.5678 12.6412 48.5678H48.4878C48.9787 48.5678 49.378 48.9778 49.378 49.4819C49.378 49.986 48.9787 50.396 48.4878 50.396H43.2453C43.0092 50.396 42.7828 50.4923 42.6158 50.6637C42.4489 50.8351 42.3551 51.0676 42.3551 51.31C42.3551 51.5525 42.4489 51.785 42.6158 51.9564C42.7828 52.1278 43.0092 52.2241 43.2453 52.2241H47.4789V56.9164H13.6502V52.2241H39.4075C39.6436 52.2241 39.87 52.1278 40.0369 51.9564C40.2039 51.785 40.2977 51.5525 40.2977 51.31C40.2977 51.0676 40.2039 50.8351 40.0369 50.6637C39.87 50.4923 39.6436 50.396 39.4075 50.396H12.6412C12.1503 50.396 11.751 49.986 11.751 49.4819ZM51.93 60.5727H9.19903C8.7081 60.5727 8.3088 60.1627 8.3088 59.6586C8.3088 59.1545 8.7081 58.7445 9.19903 58.7445H51.93C52.4209 58.7445 52.8202 59.1545 52.8202 59.6586C52.8202 60.1627 52.4209 60.5727 51.93 60.5727Z" fill="#A2845E"/>
<path fill-rule="evenodd" clip-rule="evenodd" d="M93.6333 7.53953C92.9729 7.3872 92.3138 7.79818 92.161 8.45871C92.0081 9.119 92.4201 9.77855 93.0805 9.93138C96.1336 10.6369 98.9244 12.1871 101.15 14.4131C107.695 20.9573 107.695 31.6064 101.15 38.1507C94.6061 44.6953 83.957 44.6953 77.4128 38.1507C70.868 31.6064 70.868 20.9573 77.4128 14.4131C79.2918 12.5341 81.5153 11.1638 84.0218 10.3389C84.6655 10.1275 85.016 9.43389 84.8044 8.78972C84.5924 8.14568 83.8984 7.79535 83.2547 8.00724C80.3794 8.95276 77.83 10.524 75.6771 12.6774C68.1753 20.1791 68.1753 32.385 75.6771 39.8868C79.4276 43.6373 84.3546 45.513 89.2819 45.513C94.2086 45.5125 99.1354 43.6375 102.887 39.8868C110.388 32.385 110.388 20.1791 102.887 12.6774C100.335 10.126 97.1354 8.34908 93.6333 7.53953Z" fill="#A2845E"/>
<path fill-rule="evenodd" clip-rule="evenodd" d="M124.33 53.2446L111.467 40.382C118.063 30.0391 116.619 16.4507 107.866 7.69788C102.902 2.73405 96.3024 0 89.2822 0C82.2616 0 75.6616 2.73405 70.6979 7.69788C65.7336 12.6617 63 19.2616 63 26.2821C63 33.3024 65.7336 39.9023 70.6979 44.8661C75.6617 49.8299 82.2611 52.5635 89.2812 52.5635C94.3195 52.5635 99.1729 51.1503 103.382 48.4672L116.245 61.3298C117.321 62.4065 118.757 62.9991 120.287 62.9991C121.818 62.9991 123.254 62.4065 124.33 61.3298C126.559 59.1005 126.559 55.4739 124.33 53.2446ZM122.594 59.5942C121.981 60.2065 121.162 60.5439 120.287 60.5439C119.412 60.5439 118.593 60.2065 117.98 59.5942L104.407 46.0212C104.293 45.907 104.158 45.8165 104.009 45.7548C103.86 45.6931 103.7 45.6614 103.539 45.6616C103.296 45.6616 103.052 45.7332 102.84 45.8803C98.8517 48.6464 94.1628 50.1088 89.2811 50.1088C82.9166 50.1088 76.9333 47.6304 72.4334 43.1305C63.1431 33.8402 63.1431 18.7238 72.4334 9.4335C76.9338 4.93307 82.9172 2.45472 89.2821 2.45472C95.6465 2.45472 101.63 4.93295 106.13 9.4335C114.286 17.5899 115.443 30.3775 108.88 39.8399C108.716 40.0762 108.64 40.3626 108.666 40.6491C108.692 40.9356 108.818 41.204 109.021 41.4073L122.594 54.9803C123.866 56.252 123.866 58.3218 122.594 59.5942Z" fill="#A2845E"/>
<path fill-rule="evenodd" clip-rule="evenodd" d="M96.6924 18.8724C96.2132 18.3932 95.4365 18.3932 94.9567 18.8724L89.2829 24.5462L83.6088 18.8724C83.1295 18.3932 82.3523 18.3932 81.873 18.8724C81.3939 19.3516 81.3939 20.1288 81.873 20.6081L87.5469 26.2823L81.873 31.9561C81.3939 32.4353 81.3939 33.2125 81.873 33.6917C81.9868 33.8059 82.122 33.8965 82.2709 33.9582C82.4198 34.0199 82.5794 34.0515 82.7405 34.0513C82.9018 34.0516 83.0616 34.0199 83.2106 33.9582C83.3596 33.8965 83.4949 33.806 83.6088 33.6917L89.2825 28.0179L94.9563 33.6917C95.0702 33.8059 95.2055 33.8964 95.3544 33.9581C95.5034 34.0198 95.6631 34.0515 95.8243 34.0513C95.9856 34.0516 96.1453 34.0199 96.2943 33.9582C96.4433 33.8965 96.5786 33.806 96.6924 33.6917C97.1716 33.2125 97.1716 32.4353 96.6924 31.956L91.0181 26.2822L96.6924 20.6081C97.1716 20.1288 97.1716 19.3516 96.6924 18.8724ZM88.4693 9.51527C89.145 9.51527 89.6963 8.96401 89.6963 8.28772C89.6963 7.61181 89.145 7.06055 88.4693 7.06055C87.7928 7.06055 87.2416 7.61181 87.2416 8.28772C87.2416 8.96401 87.7928 9.51527 88.4693 9.51527Z" fill="#A2845E"/>
</svg>
