<svg width="36" height="46" viewBox="0 0 36 46" fill="none" xmlns="http://www.w3.org/2000/svg">
<path fill-rule="evenodd" clip-rule="evenodd" d="M17.1658 46C12.2744 45.2699 8.10535 41.1973 10.125 32.5544C12.1697 35.4386 12.9138 33.9148 12.9138 33.9148C13.0371 24.1206 20.6606 21.6704 20.6606 21.6704C18.3802 26.6779 22.893 26.8169 23.2018 32.4992C25.0611 31.575 25.7419 30.5404 25.7419 30.5404C31.899 38.5912 27.3349 44.351 21.5106 45.8292C30.8384 44.6651 38.858 36.9836 35.0163 20.5424C31.1559 25.986 29.7528 23.1104 29.7528 23.1104C29.5171 4.62228 15.1299 0 15.1299 0C19.4353 9.45149 10.9149 9.71253 10.3334 20.4395C6.82439 18.6939 5.53799 16.7425 5.53799 16.7425C-7.34464 33.588 4.64001 45.1235 17.1658 46Z" fill="#A2845E"/>
</svg>
