<svg width="27" height="20" viewBox="0 0 27 20" fill="none" xmlns="http://www.w3.org/2000/svg">
<path d="M16.852 10.2246L18.3855 8.71003C18.4971 9.12232 18.5625 9.55336 18.5625 10C18.5625 12.7571 16.2915 15 13.5 15C13.0477 15 12.6113 14.9354 12.1939 14.8252L13.7274 13.3106C14.5379 13.2563 15.3011 12.9137 15.8756 12.3463C16.4501 11.7789 16.7969 11.0252 16.852 10.2246ZM26.8937 9.59523C26.7899 9.41086 25.318 6.86358 22.4408 4.70483L21.2129 5.91754C23.3109 7.44107 24.6402 9.21794 25.1636 10.0013C24.1635 11.5052 20.2405 16.6667 13.5 16.6667C12.4892 16.6667 11.5492 16.539 10.6648 16.3352L9.27828 17.7046C10.553 18.0906 11.954 18.3333 13.5 18.3333C22.3326 18.3333 26.7116 10.7284 26.8937 10.4048C26.9634 10.281 27 10.1417 27 10C27 9.85836 26.9634 9.71904 26.8937 9.59523ZM23.3778 1.42255L4.81526 19.7558C4.65052 19.9185 4.43452 20 4.21873 20C4.00294 20 3.78694 19.9185 3.6222 19.7558C3.5438 19.6785 3.48161 19.5867 3.43917 19.4856C3.39674 19.3845 3.3749 19.2761 3.3749 19.1667C3.3749 19.0572 3.39674 18.9489 3.43917 18.8478C3.48161 18.7467 3.5438 18.6548 3.6222 18.5775L5.98385 16.245C2.16588 13.9686 0.22589 10.6175 0.106289 10.4048C0.0365819 10.281 0 10.1416 0 9.99992C0 9.85823 0.0365819 9.71887 0.106289 9.59503C0.288328 9.27169 4.66739 1.66671 13.5 1.66671C15.7838 1.66671 17.762 2.1813 19.4531 2.94213L22.1847 0.244218C22.5144 -0.081406 23.0483 -0.081406 23.3778 0.244218C23.7073 0.569842 23.7075 1.09713 23.3778 1.42255ZM7.2421 15.0023L9.37826 12.8925C8.78827 12.075 8.43748 11.0781 8.43748 10C8.43748 7.24295 10.7084 5.00004 13.5 5.00004C14.5916 5.00004 15.6009 5.3465 16.4286 5.929L18.156 4.22296C16.7912 3.68317 15.2404 3.33338 13.5 3.33338C6.75947 3.33338 2.83645 8.49482 1.83661 9.99878C2.47153 10.9492 4.29656 13.355 7.2421 15.0023ZM10.6032 11.6825L15.2035 7.13899C14.7017 6.84628 14.1239 6.6667 13.5 6.6667C11.6391 6.6667 10.125 8.16211 10.125 10C10.125 10.6163 10.3068 11.1869 10.6032 11.6825Z" fill="#3F3C39" fillOpacity="0.5"/>
</svg>
