<svg width="109" height="112" viewBox="0 0 109 112" fill="none" xmlns="http://www.w3.org/2000/svg">
<path d="M108.369 73.7601C103.825 63.5488 99.2884 53.3436 94.7535 43.1368C94.182 41.8391 93.176 40.8838 91.845 40.3735C90.5188 39.8649 89.1315 39.903 87.8293 40.485L87.3242 40.7124V36.0233C88.6008 36.414 89.9285 36.6123 91.2635 36.6116C98.7017 36.6116 104.753 30.5605 104.753 23.1225C104.753 15.6846 98.7017 9.6332 91.2635 9.6332C89.8935 9.6332 88.5711 9.83996 87.3242 10.2215V6.31731C87.3242 2.83412 84.4871 0 81.0003 0H27.8085C24.3251 0 21.4912 2.83412 21.4912 6.31731V10.2399C20.2087 9.84554 18.8744 9.6454 17.5326 9.64612C10.1017 9.64612 4.05621 15.6916 4.05621 23.1225C4.05621 30.5534 10.1017 36.5987 17.5326 36.5987C18.9097 36.5987 20.2389 36.3904 21.4912 36.005V40.7151L20.9764 40.4836C19.6798 39.9035 18.2946 39.8654 16.9706 40.3737C15.6453 40.8817 14.6387 41.8344 14.0574 43.1328L0.445153 73.7638C-0.712889 76.3827 0.466464 79.473 3.07863 80.6549L9.26241 83.4287C9.95751 83.7443 10.6789 83.9025 11.4039 83.9025C12.0299 83.9025 12.6583 83.7844 13.2743 83.5482C14.5999 83.0401 15.6065 82.0872 16.1873 80.7891L17.5968 77.6169L19.5925 78.5038C20.2368 78.7906 20.6329 79.2846 20.7698 79.9734L21.7191 84.7253L19.5037 87.7473C17.4336 90.5737 18.0253 94.5591 20.8211 96.6303C22.0489 97.5468 23.5685 97.9848 25.0957 97.8623C24.9289 99.9766 25.8128 102.124 27.624 103.466C28.7306 104.292 30.0464 104.725 31.4067 104.725C31.7287 104.725 32.0502 104.701 32.3686 104.653C33.2274 104.526 34.0508 104.223 34.7874 103.764C35.173 104.983 35.9219 106.092 37.0087 106.9C38.1176 107.724 39.4341 108.157 40.7943 108.157C41.1151 108.157 41.4387 108.133 41.7622 108.084C42.4495 107.982 43.1153 107.767 43.733 107.448C44.1043 108.728 44.874 109.897 46.0123 110.743C47.1207 111.567 48.4363 112 49.7957 112C50.1179 112 50.4425 111.976 50.7672 111.927C52.4462 111.672 53.9182 110.783 54.9101 109.425L55.0574 109.224L57.4057 110.58C58.3822 111.147 59.4909 111.446 60.6198 111.446C61.185 111.446 61.7543 111.371 62.3154 111.22C63.9847 110.771 65.3764 109.702 66.2312 108.214C66.829 107.184 67.128 106.008 67.0947 104.818C69.9973 105.908 73.361 104.771 74.9663 101.997C75.6487 100.815 75.9373 99.4472 75.7902 98.0906C76.612 98.1893 77.4451 98.1295 78.2444 97.9144C79.9173 97.4671 81.3136 96.3982 82.1769 94.9028C83.1456 93.2215 83.2701 91.2795 82.6829 89.5717C82.8316 89.5426 82.9792 89.5085 83.1255 89.4694C84.7963 89.0221 86.1895 87.955 87.0476 86.466C87.9089 84.9742 88.1369 83.2324 87.6898 81.5619C87.6849 81.5429 87.6785 81.5241 87.6731 81.505L92.0763 79.5485L92.4258 80.3345L92.626 80.7852C93.1976 82.0829 94.2035 83.0385 95.5345 83.5489C96.1525 83.786 96.7819 83.9041 97.4083 83.9041C98.1333 83.9041 98.854 83.7456 99.5473 83.4291L105.734 80.6542C108.347 79.4762 109.53 76.3854 108.369 73.7613L108.369 73.7601ZM91.2637 12.8078C96.9512 12.8078 101.578 17.4348 101.578 23.1223C101.578 28.8098 96.9512 33.4365 91.2637 33.4365C85.5762 33.4365 80.9493 28.8096 80.9493 23.1223C80.9493 17.435 85.5762 12.8078 91.2637 12.8078ZM47.0176 3.17441H61.7919V22.3572H47.0176V3.17441ZM17.5329 33.4236C11.8524 33.4236 7.23131 28.8023 7.23131 23.1223C7.23131 17.4423 11.8526 12.8208 17.5329 12.8208C23.2131 12.8208 27.8407 17.442 27.8407 23.1223C27.8407 28.8026 23.2167 33.4236 17.5329 33.4236ZM24.6663 34.5501C28.4755 32.166 31.0156 27.9361 31.0156 23.1223C31.0156 18.3085 28.4755 14.0783 24.6663 11.6942V6.31709C24.6663 4.58411 26.076 3.17464 27.8088 3.17464H43.8427V23.9448C43.8427 24.3658 44.01 24.7696 44.3077 25.0673C44.6054 25.365 45.0091 25.5322 45.4301 25.5322H63.3793C63.8004 25.5322 64.2041 25.365 64.5018 25.0673C64.7995 24.7696 64.9668 24.3658 64.9668 23.9448V3.17441H81.0007C82.7371 3.17441 84.1497 4.58411 84.1497 6.31686V11.6684C80.326 14.052 77.7746 18.2938 77.7746 23.1221C77.7746 27.9503 80.326 32.1919 84.1497 34.5755V42.1414L81.6512 43.2661C79.0299 44.4379 77.8454 47.5273 79.0109 50.1547C79.3457 50.9072 79.6797 51.6596 80.0143 52.4121C76.3169 54.082 75.3665 53.6025 73.5134 52.6621C71.5328 51.6571 68.82 50.2805 62.679 50.2805C59.6091 50.2805 56.6866 51.077 54.2279 52.5837C54.1882 52.6079 54.1496 52.634 54.1123 52.6619C53.7365 52.8982 53.3663 53.1433 53.0021 53.3971C50.5645 51.7156 47.4152 50.6981 43.9781 50.6981C40.8674 50.6981 37.9339 51.5009 35.4864 53.0219L29.6723 50.4401L29.7998 50.1531C30.9635 47.5298 29.7823 44.4407 27.1681 43.2677L24.6666 42.1427V34.5504L24.6663 34.5501ZM13.2881 79.4959C13.0499 80.0285 12.6846 80.374 12.138 80.5837C11.5973 80.7916 11.1008 80.7766 10.5744 80.5372L10.5671 80.5338L4.38313 77.76C3.35703 77.2957 2.89318 76.0789 3.34819 75.0501L16.9575 44.4255C17.196 43.8927 17.5614 43.5472 18.108 43.3375C18.3615 43.2402 18.6056 43.1915 18.8482 43.1915C19.1237 43.1915 19.3966 43.2543 19.6778 43.3801L25.8674 46.1632C26.8924 46.6232 27.3549 47.8354 26.8983 48.8647L13.2886 79.4957L13.2881 79.4959ZM27.1543 93.4387C26.6598 94.1073 25.9275 94.5448 25.0912 94.6702C24.2403 94.7976 23.3967 94.5888 22.713 94.0803C21.3144 93.0442 21.024 91.0446 22.0648 89.6236L26.512 83.557C26.512 83.557 26.512 83.5566 26.5124 83.5566C27.0028 82.8868 27.7333 82.4484 28.5689 82.3217C28.734 82.2967 28.8983 82.2845 29.0618 82.2845C29.7438 82.2845 30.4028 82.4996 30.9558 82.9095C32.3521 83.947 32.6434 85.9443 31.6051 87.3614C31.5953 87.3748 31.5865 87.3889 31.5769 87.4025L27.154 93.4387H27.1543ZM31.8982 101.513C31.0492 101.641 30.2049 101.43 29.5184 100.918C28.1214 99.8832 27.831 97.8865 28.8707 96.4673L34.3845 88.9419C34.8758 88.2712 35.607 87.8328 36.4431 87.7074C36.6052 87.6834 36.767 87.6711 36.9276 87.6711C37.6091 87.6711 38.2674 87.8876 38.8215 88.3009C40.1115 89.2599 40.4479 91.0648 39.6599 92.4561L38.7113 93.7892L34.8033 99.1183L33.9572 100.279C33.4659 100.949 32.7345 101.388 31.8982 101.513ZM41.2893 104.944C40.4368 105.073 39.5898 104.862 38.9029 104.351C37.5265 103.328 37.2431 101.324 38.2729 99.8814L43.1891 92.9728L43.1907 92.9703C43.655 92.3153 44.3619 91.8828 45.1817 91.7519C45.3499 91.7251 45.52 91.7116 45.6904 91.7116C46.3817 91.7116 47.0647 91.9319 47.6197 92.3432C48.9907 93.3618 49.2858 95.336 48.2897 96.7659C48.2753 96.7845 48.2613 96.8034 48.2477 96.8226L44.1925 102.55L43.3464 103.71C42.8558 104.38 42.1251 104.818 41.2895 104.944L41.2893 104.944ZM53.1986 106.389L52.3482 107.549C51.8576 108.22 51.1274 108.66 50.292 108.787C49.4402 108.916 48.5935 108.705 47.9067 108.194C46.5202 107.164 46.2338 105.164 47.2699 103.733L51.1839 98.3087L51.1854 98.3064C51.6611 97.6451 52.3791 97.2098 53.2068 97.0813C53.3707 97.0559 53.5355 97.0432 53.6999 97.0432C54.3866 97.0432 55.0643 97.2622 55.614 97.6707C56.9979 98.6993 57.2856 100.702 56.2554 102.134C56.2345 102.163 56.2146 102.193 56.1958 102.224L53.1986 106.389ZM63.4809 106.627C63.0465 107.383 62.3396 107.926 61.4904 108.154C60.6382 108.383 59.7517 108.268 58.9932 107.83L56.9301 106.638L58.8324 103.994C58.856 103.961 58.8787 103.927 58.8998 103.893C59.5591 102.94 59.9485 101.827 60.0267 100.671L62.4891 102.287C62.5197 102.307 62.5518 102.321 62.5831 102.339C63.9148 103.318 64.3277 105.165 63.4809 106.627V106.627ZM84.2971 84.8785C83.8623 85.6328 83.1547 86.1737 82.3043 86.4013C81.4537 86.6294 80.5677 86.514 79.81 86.0776L79.8091 86.0769L68.3956 79.4769C68.2151 79.3726 68.0159 79.3048 67.8092 79.2774C67.6025 79.2501 67.3925 79.2637 67.1911 79.3176C66.9898 79.3714 66.8009 79.4644 66.6355 79.5912C66.47 79.718 66.3312 79.8761 66.2268 80.0566C66.1225 80.237 66.0547 80.4363 66.0274 80.6429C66.0001 80.8496 66.0137 81.0596 66.0675 81.261C66.1214 81.4624 66.2143 81.6512 66.3411 81.8166C66.4679 81.9821 66.6261 82.121 66.8065 82.2253L78.2201 88.8253C79.7885 89.7338 80.3294 91.7483 79.4264 93.3151C78.9882 94.0744 78.2772 94.6178 77.4241 94.8459C76.5749 95.073 75.6916 94.9579 74.9382 94.5212L72.6104 93.1746L72.6074 93.173L72.6051 93.1716L72.6013 93.1696L72.5986 93.1678L59.5336 85.6938C59.3527 85.5902 59.1532 85.5233 58.9464 85.4969C58.7396 85.4705 58.5296 85.4851 58.3285 85.5399C58.1273 85.5946 57.9389 85.6885 57.7741 85.8161C57.6092 85.9436 57.4711 86.1025 57.3676 86.2834C57.2641 86.4644 57.1973 86.6639 57.1709 86.8707C57.1445 87.0775 57.1591 87.2874 57.2138 87.4886C57.2686 87.6897 57.3624 87.8781 57.49 88.043C57.6176 88.2078 57.7764 88.3459 57.9573 88.4494L71.0136 95.9184C72.5795 96.8278 73.1184 98.843 72.2166 100.408C71.3084 101.977 69.2936 102.518 67.7256 101.615L63.8697 99.3912C63.8602 99.3858 63.8502 99.3817 63.8407 99.3763L58.0496 95.5772C57.8775 95.4153 57.6963 95.2634 57.5068 95.1222C56.1468 94.1118 54.4013 93.6831 52.7185 93.944C52.4751 93.9823 52.234 94.0345 51.9966 94.1004C51.7905 92.4341 50.942 90.8571 49.5105 89.7936C48.1359 88.7755 46.3751 88.3461 44.6802 88.617C44.1038 88.7087 43.5429 88.8797 43.0134 89.1253C42.6509 87.8149 41.8753 86.6158 40.7168 85.7547C39.3509 84.7352 37.6657 84.314 35.9717 84.5679C35.7611 84.5994 35.5537 84.6411 35.3503 84.6921C35.1479 83.0211 34.2932 81.4345 32.8465 80.3597C31.4752 79.344 29.7875 78.9262 28.0922 79.1828C26.585 79.4114 25.2458 80.1518 24.2687 81.2833L23.883 79.3524C23.5432 77.6444 22.4779 76.3129 20.8823 75.6026L18.8854 74.7152L28.3824 53.3411L34.2574 55.9499C35.198 56.3732 36.2379 56.2997 37.1105 55.7497C39.0344 54.5391 41.4729 53.8728 43.9769 53.8728C46.3452 53.8728 48.5363 54.4559 50.3192 55.4409C49.2464 56.3249 48.2037 57.2465 47.1783 58.1551C43.9561 61.0112 40.6243 63.9644 36.3705 65.7282C36.0121 65.8768 35.7205 66.1516 35.5508 66.5006C35.3812 66.8496 35.3453 67.2487 35.4499 67.6224C36.2384 70.4388 37.729 72.4345 39.88 73.5543C44.6203 76.0211 51.2723 73.6828 57.1418 71.6197C59.554 70.7718 61.8345 69.9704 63.4705 69.7215C64.6147 69.6918 67.8381 70.9106 73.5818 74.3883C77.8157 76.9518 82.1311 79.9636 84.3697 81.7277C84.4746 81.9338 84.5605 82.1516 84.622 82.3811C84.8501 83.2328 84.7347 84.1192 84.2964 84.8783L84.2971 84.8785ZM85.8272 78.8498C82.0597 76.0148 68.6404 66.5482 63.458 66.5482C63.3793 66.5482 63.302 66.5505 63.2272 66.5548C63.1833 66.5574 63.1395 66.5619 63.096 66.5682C61.1465 66.8472 58.69 67.7108 56.0897 68.6251C51.0889 70.3826 44.8659 72.5701 41.3464 70.7383C40.3065 70.1969 39.5186 69.31 38.9598 68.0445C43.0302 66.0748 46.2046 63.2609 49.2847 60.5308C51.5015 58.5657 53.5956 56.7098 55.8904 55.294C55.9239 55.2732 55.9568 55.2512 55.9888 55.228C57.9274 54.0677 60.2378 53.4549 62.6788 53.4549C68.0603 53.4549 70.2872 54.5849 72.0765 55.4928C74.6557 56.8017 76.457 57.4705 81.3022 55.3094C84.4653 62.4216 87.6266 69.5335 90.7865 76.6457L85.8274 78.8493L85.8272 78.8498ZM104.431 77.7577L98.2421 80.5338L98.231 80.5388C97.7091 80.7777 97.2133 80.7916 96.6708 80.5835C96.1253 80.3742 95.763 80.0312 95.5288 79.4995L95.3264 79.0441C90.8573 68.9834 86.3857 58.9239 81.9114 48.8656C81.4544 47.8354 81.9187 46.6234 82.95 46.1625L89.1288 43.3812C89.4126 43.2541 89.6876 43.1908 89.9649 43.1908C90.2084 43.1908 90.4535 43.2395 90.7078 43.3373C91.2533 43.5465 91.6158 43.8895 91.85 44.4212C96.3869 54.6329 100.924 64.8386 105.467 75.0474C105.923 76.0787 105.457 77.295 104.431 77.7575V77.7577ZM93.0751 53.5778C93.2386 53.9617 93.2444 54.3944 93.0912 54.7825C92.9381 55.1706 92.6383 55.4828 92.2567 55.6516C91.8752 55.8203 91.4425 55.8321 91.0524 55.6843C90.6622 55.5365 90.3459 55.2411 90.1719 54.8619L87.2929 48.3519C87.1294 47.968 87.1236 47.5353 87.2768 47.1472C87.4299 46.7591 87.7297 46.4469 88.1113 46.2781C88.4928 46.1094 88.9255 46.0976 89.3157 46.2454C89.7058 46.3932 90.0221 46.6886 90.1961 47.0678L93.0751 53.5778ZM21.5223 48.353L18.6367 54.863C18.4661 55.2479 18.1496 55.5491 17.7568 55.7007C17.3641 55.8522 16.9272 55.8415 16.5423 55.671C16.1575 55.5004 15.8562 55.1839 15.7046 54.7912C15.5531 54.3984 15.5638 53.9616 15.7343 53.5767L18.6199 47.0667C18.7044 46.8761 18.8256 46.704 18.9765 46.5603C19.1275 46.4165 19.3053 46.3039 19.4998 46.2289C19.6943 46.1539 19.9016 46.1179 20.11 46.123C20.3184 46.1281 20.5237 46.1742 20.7143 46.2587C20.9049 46.3431 21.0769 46.4643 21.2207 46.6153C21.3644 46.7662 21.477 46.944 21.552 47.1385C21.6271 47.333 21.6631 47.5403 21.658 47.7487C21.6529 47.9571 21.6068 48.1624 21.5223 48.353ZM85.2314 24.99C84.9337 24.6923 84.7665 24.2886 84.7665 23.8676C84.7665 23.4467 84.9337 23.0429 85.2314 22.7453C85.529 22.4476 85.9328 22.2804 86.3537 22.2804C86.7747 22.2804 87.1784 22.4476 87.4761 22.7453L89.1297 24.3989L95.0507 18.4779C95.3492 18.1842 95.7517 18.0203 96.1705 18.022C96.5893 18.0237 96.9904 18.1908 97.2866 18.4869C97.5827 18.7831 97.7498 19.1842 97.7515 19.603C97.7532 20.0218 97.5893 20.4243 97.2956 20.7228L90.2521 27.7663C90.1048 27.9137 89.9297 28.0306 89.7372 28.1104C89.5445 28.1902 89.3381 28.2313 89.1296 28.2312C88.9212 28.2312 88.7147 28.1901 88.5222 28.1103C88.3296 28.0305 88.1546 27.9135 88.0072 27.766L85.2312 24.9897L85.2314 24.99ZM21.9544 25.9628C21.9544 27.8408 20.7753 29.4448 19.1203 30.0846V30.4224C19.1203 30.8434 18.953 31.2472 18.6553 31.5449C18.3576 31.8426 17.9539 32.0098 17.5329 32.0098C17.1118 32.0098 16.7081 31.8426 16.4104 31.5449C16.1127 31.2472 15.9454 30.8434 15.9454 30.4224V30.0939C14.4049 29.5104 13.2786 28.0979 13.1242 26.3602C13.1057 26.1526 13.1283 25.9433 13.1907 25.7444C13.2531 25.5455 13.354 25.3608 13.4878 25.2009C13.6216 25.0411 13.7855 24.9091 13.9703 24.8126C14.1551 24.7161 14.3571 24.657 14.5647 24.6385C15.4394 24.5565 16.2086 25.2058 16.2864 26.0791C16.3437 26.7234 16.8797 27.2092 17.5331 27.2092C17.8636 27.2089 18.1805 27.0774 18.4142 26.8437C18.6479 26.61 18.7794 26.2931 18.7798 25.9625C18.7798 25.5327 18.1896 25.1847 16.8668 24.5669C15.2846 23.8278 13.1179 22.816 13.1179 20.288C13.1179 18.4072 14.297 16.8007 15.952 16.16V15.8279C15.952 15.4068 16.1192 15.0031 16.4169 14.7054C16.7146 14.4077 17.1184 14.2404 17.5394 14.2404C17.9604 14.2404 18.3642 14.4077 18.6619 14.7054C18.9596 15.0031 19.1269 15.4068 19.1269 15.8279V16.1507C20.6671 16.7352 21.7934 18.1496 21.9481 19.8903C21.9666 20.0979 21.944 20.3072 21.8816 20.5061C21.8192 20.705 21.7182 20.8897 21.5845 21.0496C21.4507 21.2094 21.2867 21.3414 21.1019 21.4379C20.9172 21.5344 20.7152 21.5935 20.5075 21.612C19.6304 21.6922 18.8634 21.0445 18.7859 20.1714C18.729 19.5339 18.1815 19.0347 17.5392 19.0347C16.8518 19.0347 16.2925 19.5967 16.2925 20.2877C16.2925 20.7214 16.884 21.071 18.21 21.6904C19.7902 22.4286 21.9544 23.4395 21.9544 25.9628Z" fill="black"/>
<path d="M108.369 73.7601C103.825 63.5488 99.2884 53.3436 94.7535 43.1368C94.182 41.8391 93.176 40.8838 91.845 40.3735C90.5188 39.8649 89.1315 39.903 87.8293 40.485L87.3242 40.7124V36.0233C88.6008 36.414 89.9285 36.6123 91.2635 36.6116C98.7017 36.6116 104.753 30.5605 104.753 23.1225C104.753 15.6846 98.7017 9.6332 91.2635 9.6332C89.8935 9.6332 88.5711 9.83996 87.3242 10.2215V6.31731C87.3242 2.83412 84.4871 0 81.0003 0H27.8085C24.3251 0 21.4912 2.83412 21.4912 6.31731V10.2399C20.2087 9.84554 18.8744 9.6454 17.5326 9.64612C10.1017 9.64612 4.05621 15.6916 4.05621 23.1225C4.05621 30.5534 10.1017 36.5987 17.5326 36.5987C18.9097 36.5987 20.2389 36.3904 21.4912 36.005V40.7151L20.9764 40.4836C19.6798 39.9035 18.2946 39.8654 16.9706 40.3737C15.6453 40.8817 14.6387 41.8344 14.0574 43.1328L0.445153 73.7638C-0.712889 76.3827 0.466464 79.473 3.07863 80.6549L9.26241 83.4287C9.95751 83.7443 10.6789 83.9025 11.4039 83.9025C12.0299 83.9025 12.6583 83.7844 13.2743 83.5482C14.5999 83.0401 15.6065 82.0872 16.1873 80.7891L17.5968 77.6169L19.5925 78.5038C20.2368 78.7906 20.6329 79.2846 20.7698 79.9734L21.7191 84.7253L19.5037 87.7473C17.4336 90.5737 18.0253 94.5591 20.8211 96.6303C22.0489 97.5468 23.5685 97.9848 25.0957 97.8623C24.9289 99.9766 25.8128 102.124 27.624 103.466C28.7306 104.292 30.0464 104.725 31.4067 104.725C31.7287 104.725 32.0502 104.701 32.3686 104.653C33.2274 104.526 34.0508 104.223 34.7874 103.764C35.173 104.983 35.9219 106.092 37.0087 106.9C38.1176 107.724 39.4341 108.157 40.7943 108.157C41.1151 108.157 41.4387 108.133 41.7622 108.084C42.4495 107.982 43.1153 107.767 43.733 107.448C44.1043 108.728 44.874 109.897 46.0123 110.743C47.1207 111.567 48.4363 112 49.7957 112C50.1179 112 50.4425 111.976 50.7672 111.927C52.4462 111.672 53.9182 110.783 54.9101 109.425L55.0574 109.224L57.4057 110.58C58.3822 111.147 59.4909 111.446 60.6198 111.446C61.185 111.446 61.7543 111.371 62.3154 111.22C63.9847 110.771 65.3764 109.702 66.2312 108.214C66.829 107.184 67.128 106.008 67.0947 104.818C69.9973 105.908 73.361 104.771 74.9663 101.997C75.6487 100.815 75.9373 99.4472 75.7902 98.0906C76.612 98.1893 77.4451 98.1295 78.2444 97.9144C79.9173 97.4671 81.3136 96.3982 82.1769 94.9028C83.1456 93.2215 83.2701 91.2795 82.6829 89.5717C82.8316 89.5426 82.9792 89.5085 83.1255 89.4694C84.7963 89.0221 86.1895 87.955 87.0476 86.466C87.9089 84.9742 88.1369 83.2324 87.6898 81.5619C87.6849 81.5429 87.6785 81.5241 87.6731 81.505L92.0763 79.5485L92.4258 80.3345L92.626 80.7852C93.1976 82.0829 94.2035 83.0385 95.5345 83.5489C96.1525 83.786 96.7819 83.9041 97.4083 83.9041C98.1333 83.9041 98.854 83.7456 99.5473 83.4291L105.734 80.6542C108.347 79.4762 109.53 76.3854 108.369 73.7613L108.369 73.7601ZM91.2637 12.8078C96.9512 12.8078 101.578 17.4348 101.578 23.1223C101.578 28.8098 96.9512 33.4365 91.2637 33.4365C85.5762 33.4365 80.9493 28.8096 80.9493 23.1223C80.9493 17.435 85.5762 12.8078 91.2637 12.8078ZM47.0176 3.17441H61.7919V22.3572H47.0176V3.17441ZM17.5329 33.4236C11.8524 33.4236 7.23131 28.8023 7.23131 23.1223C7.23131 17.4423 11.8526 12.8208 17.5329 12.8208C23.2131 12.8208 27.8407 17.442 27.8407 23.1223C27.8407 28.8026 23.2167 33.4236 17.5329 33.4236ZM24.6663 34.5501C28.4755 32.166 31.0156 27.9361 31.0156 23.1223C31.0156 18.3085 28.4755 14.0783 24.6663 11.6942V6.31709C24.6663 4.58411 26.076 3.17464 27.8088 3.17464H43.8427V23.9448C43.8427 24.3658 44.01 24.7696 44.3077 25.0673C44.6054 25.365 45.0091 25.5322 45.4301 25.5322H63.3793C63.8004 25.5322 64.2041 25.365 64.5018 25.0673C64.7995 24.7696 64.9668 24.3658 64.9668 23.9448V3.17441H81.0007C82.7371 3.17441 84.1497 4.58411 84.1497 6.31686V11.6684C80.326 14.052 77.7746 18.2938 77.7746 23.1221C77.7746 27.9503 80.326 32.1919 84.1497 34.5755V42.1414L81.6512 43.2661C79.0299 44.4379 77.8454 47.5273 79.0109 50.1547C79.3457 50.9072 79.6797 51.6596 80.0143 52.4121C76.3169 54.082 75.3665 53.6025 73.5134 52.6621C71.5328 51.6571 68.82 50.2805 62.679 50.2805C59.6091 50.2805 56.6866 51.077 54.2279 52.5837C54.1882 52.6079 54.1496 52.634 54.1123 52.6619C53.7365 52.8982 53.3663 53.1433 53.0021 53.3971C50.5645 51.7156 47.4152 50.6981 43.9781 50.6981C40.8674 50.6981 37.9339 51.5009 35.4864 53.0219L29.6723 50.4401L29.7998 50.1531C30.9635 47.5298 29.7823 44.4407 27.1681 43.2677L24.6666 42.1427V34.5504L24.6663 34.5501ZM13.2881 79.4959C13.0499 80.0285 12.6846 80.374 12.138 80.5837C11.5973 80.7916 11.1008 80.7766 10.5744 80.5372L10.5671 80.5338L4.38313 77.76C3.35703 77.2957 2.89318 76.0789 3.34819 75.0501L16.9575 44.4255C17.196 43.8927 17.5614 43.5472 18.108 43.3375C18.3615 43.2402 18.6056 43.1915 18.8482 43.1915C19.1237 43.1915 19.3966 43.2543 19.6778 43.3801L25.8674 46.1632C26.8924 46.6232 27.3549 47.8354 26.8983 48.8647L13.2886 79.4957L13.2881 79.4959ZM27.1543 93.4387C26.6598 94.1073 25.9275 94.5448 25.0912 94.6702C24.2403 94.7976 23.3967 94.5888 22.713 94.0803C21.3144 93.0442 21.024 91.0446 22.0648 89.6236L26.512 83.557C26.512 83.557 26.512 83.5566 26.5124 83.5566C27.0028 82.8868 27.7333 82.4484 28.5689 82.3217C28.734 82.2967 28.8983 82.2845 29.0618 82.2845C29.7438 82.2845 30.4028 82.4996 30.9558 82.9095C32.3521 83.947 32.6434 85.9443 31.6051 87.3614C31.5953 87.3748 31.5865 87.3889 31.5769 87.4025L27.154 93.4387H27.1543ZM31.8982 101.513C31.0492 101.641 30.2049 101.43 29.5184 100.918C28.1214 99.8832 27.831 97.8865 28.8707 96.4673L34.3845 88.9419C34.8758 88.2712 35.607 87.8328 36.4431 87.7074C36.6052 87.6834 36.767 87.6711 36.9276 87.6711C37.6091 87.6711 38.2674 87.8876 38.8215 88.3009C40.1115 89.2599 40.4479 91.0648 39.6599 92.4561L38.7113 93.7892L34.8033 99.1183L33.9572 100.279C33.4659 100.949 32.7345 101.388 31.8982 101.513ZM41.2893 104.944C40.4368 105.073 39.5898 104.862 38.9029 104.351C37.5265 103.328 37.2431 101.324 38.2729 99.8814L43.1891 92.9728L43.1907 92.9703C43.655 92.3153 44.3619 91.8828 45.1817 91.7519C45.3499 91.7251 45.52 91.7116 45.6904 91.7116C46.3817 91.7116 47.0647 91.9319 47.6197 92.3432C48.9907 93.3618 49.2858 95.336 48.2897 96.7659C48.2753 96.7845 48.2613 96.8034 48.2477 96.8226L44.1925 102.55L43.3464 103.71C42.8558 104.38 42.1251 104.818 41.2895 104.944L41.2893 104.944ZM53.1986 106.389L52.3482 107.549C51.8576 108.22 51.1274 108.66 50.292 108.787C49.4402 108.916 48.5935 108.705 47.9067 108.194C46.5202 107.164 46.2338 105.164 47.2699 103.733L51.1839 98.3087L51.1854 98.3064C51.6611 97.6451 52.3791 97.2098 53.2068 97.0813C53.3707 97.0559 53.5355 97.0432 53.6999 97.0432C54.3866 97.0432 55.0643 97.2622 55.614 97.6707C56.9979 98.6993 57.2856 100.702 56.2554 102.134C56.2345 102.163 56.2146 102.193 56.1958 102.224L53.1986 106.389ZM63.4809 106.627C63.0465 107.383 62.3396 107.926 61.4904 108.154C60.6382 108.383 59.7517 108.268 58.9932 107.83L56.9301 106.638L58.8324 103.994C58.856 103.961 58.8787 103.927 58.8998 103.893C59.5591 102.94 59.9485 101.827 60.0267 100.671L62.4891 102.287C62.5197 102.307 62.5518 102.321 62.5831 102.339C63.9148 103.318 64.3277 105.165 63.4809 106.627V106.627ZM84.2971 84.8785C83.8623 85.6328 83.1547 86.1737 82.3043 86.4013C81.4537 86.6294 80.5677 86.514 79.81 86.0776L79.8091 86.0769L68.3956 79.4769C68.2151 79.3726 68.0159 79.3048 67.8092 79.2774C67.6025 79.2501 67.3925 79.2637 67.1911 79.3176C66.9898 79.3714 66.8009 79.4644 66.6355 79.5912C66.47 79.718 66.3312 79.8761 66.2268 80.0566C66.1225 80.237 66.0547 80.4363 66.0274 80.6429C66.0001 80.8496 66.0137 81.0596 66.0675 81.261C66.1214 81.4624 66.2143 81.6512 66.3411 81.8166C66.4679 81.9821 66.6261 82.121 66.8065 82.2253L78.2201 88.8253C79.7885 89.7338 80.3294 91.7483 79.4264 93.3151C78.9882 94.0744 78.2772 94.6178 77.4241 94.8459C76.5749 95.073 75.6916 94.9579 74.9382 94.5212L72.6104 93.1746L72.6074 93.173L72.6051 93.1716L72.6013 93.1696L72.5986 93.1678L59.5336 85.6938C59.3527 85.5902 59.1532 85.5233 58.9464 85.4969C58.7396 85.4705 58.5296 85.4851 58.3285 85.5399C58.1273 85.5946 57.9389 85.6885 57.7741 85.8161C57.6092 85.9436 57.4711 86.1025 57.3676 86.2834C57.2641 86.4644 57.1973 86.6639 57.1709 86.8707C57.1445 87.0775 57.1591 87.2874 57.2138 87.4886C57.2686 87.6897 57.3624 87.8781 57.49 88.043C57.6176 88.2078 57.7764 88.3459 57.9573 88.4494L71.0136 95.9184C72.5795 96.8278 73.1184 98.843 72.2166 100.408C71.3084 101.977 69.2936 102.518 67.7256 101.615L63.8697 99.3912C63.8602 99.3858 63.8502 99.3817 63.8407 99.3763L58.0496 95.5772C57.8775 95.4153 57.6963 95.2634 57.5068 95.1222C56.1468 94.1118 54.4013 93.6831 52.7185 93.944C52.4751 93.9823 52.234 94.0345 51.9966 94.1004C51.7905 92.4341 50.942 90.8571 49.5105 89.7936C48.1359 88.7755 46.3751 88.3461 44.6802 88.617C44.1038 88.7087 43.5429 88.8797 43.0134 89.1253C42.6509 87.8149 41.8753 86.6158 40.7168 85.7547C39.3509 84.7352 37.6657 84.314 35.9717 84.5679C35.7611 84.5994 35.5537 84.6411 35.3503 84.6921C35.1479 83.0211 34.2932 81.4345 32.8465 80.3597C31.4752 79.344 29.7875 78.9262 28.0922 79.1828C26.585 79.4114 25.2458 80.1518 24.2687 81.2833L23.883 79.3524C23.5432 77.6444 22.4779 76.3129 20.8823 75.6026L18.8854 74.7152L28.3824 53.3411L34.2574 55.9499C35.198 56.3732 36.2379 56.2997 37.1105 55.7497C39.0344 54.5391 41.4729 53.8728 43.9769 53.8728C46.3452 53.8728 48.5363 54.4559 50.3192 55.4409C49.2464 56.3249 48.2037 57.2465 47.1783 58.1551C43.9561 61.0112 40.6243 63.9644 36.3705 65.7282C36.0121 65.8768 35.7205 66.1516 35.5508 66.5006C35.3812 66.8496 35.3453 67.2487 35.4499 67.6224C36.2384 70.4388 37.729 72.4345 39.88 73.5543C44.6203 76.0211 51.2723 73.6828 57.1418 71.6197C59.554 70.7718 61.8345 69.9704 63.4705 69.7215C64.6147 69.6918 67.8381 70.9106 73.5818 74.3883C77.8157 76.9518 82.1311 79.9636 84.3697 81.7277C84.4746 81.9338 84.5605 82.1516 84.622 82.3811C84.8501 83.2328 84.7347 84.1192 84.2964 84.8783L84.2971 84.8785ZM85.8272 78.8498C82.0597 76.0148 68.6404 66.5482 63.458 66.5482C63.3793 66.5482 63.302 66.5505 63.2272 66.5548C63.1833 66.5574 63.1395 66.5619 63.096 66.5682C61.1465 66.8472 58.69 67.7108 56.0897 68.6251C51.0889 70.3826 44.8659 72.5701 41.3464 70.7383C40.3065 70.1969 39.5186 69.31 38.9598 68.0445C43.0302 66.0748 46.2046 63.2609 49.2847 60.5308C51.5015 58.5657 53.5956 56.7098 55.8904 55.294C55.9239 55.2732 55.9568 55.2512 55.9888 55.228C57.9274 54.0677 60.2378 53.4549 62.6788 53.4549C68.0603 53.4549 70.2872 54.5849 72.0765 55.4928C74.6557 56.8017 76.457 57.4705 81.3022 55.3094C84.4653 62.4216 87.6266 69.5335 90.7865 76.6457L85.8274 78.8493L85.8272 78.8498ZM104.431 77.7577L98.2421 80.5338L98.231 80.5388C97.7091 80.7777 97.2133 80.7916 96.6708 80.5835C96.1253 80.3742 95.763 80.0312 95.5288 79.4995L95.3264 79.0441C90.8573 68.9834 86.3857 58.9239 81.9114 48.8656C81.4544 47.8354 81.9187 46.6234 82.95 46.1625L89.1288 43.3812C89.4126 43.2541 89.6876 43.1908 89.9649 43.1908C90.2084 43.1908 90.4535 43.2395 90.7078 43.3373C91.2533 43.5465 91.6158 43.8895 91.85 44.4212C96.3869 54.6329 100.924 64.8386 105.467 75.0474C105.923 76.0787 105.457 77.295 104.431 77.7575V77.7577ZM93.0751 53.5778C93.2386 53.9617 93.2444 54.3944 93.0912 54.7825C92.9381 55.1706 92.6383 55.4828 92.2567 55.6516C91.8752 55.8203 91.4425 55.8321 91.0524 55.6843C90.6622 55.5365 90.3459 55.2411 90.1719 54.8619L87.2929 48.3519C87.1294 47.968 87.1236 47.5353 87.2768 47.1472C87.4299 46.7591 87.7297 46.4469 88.1113 46.2781C88.4928 46.1094 88.9255 46.0976 89.3157 46.2454C89.7058 46.3932 90.0221 46.6886 90.1961 47.0678L93.0751 53.5778ZM21.5223 48.353L18.6367 54.863C18.4661 55.2479 18.1496 55.5491 17.7568 55.7007C17.3641 55.8522 16.9272 55.8415 16.5423 55.671C16.1575 55.5004 15.8562 55.1839 15.7046 54.7912C15.5531 54.3984 15.5638 53.9616 15.7343 53.5767L18.6199 47.0667C18.7044 46.8761 18.8256 46.704 18.9765 46.5603C19.1275 46.4165 19.3053 46.3039 19.4998 46.2289C19.6943 46.1539 19.9016 46.1179 20.11 46.123C20.3184 46.1281 20.5237 46.1742 20.7143 46.2587C20.9049 46.3431 21.0769 46.4643 21.2207 46.6153C21.3644 46.7662 21.477 46.944 21.552 47.1385C21.6271 47.333 21.6631 47.5403 21.658 47.7487C21.6529 47.9571 21.6068 48.1624 21.5223 48.353ZM85.2314 24.99C84.9337 24.6923 84.7665 24.2886 84.7665 23.8676C84.7665 23.4467 84.9337 23.0429 85.2314 22.7453C85.529 22.4476 85.9328 22.2804 86.3537 22.2804C86.7747 22.2804 87.1784 22.4476 87.4761 22.7453L89.1297 24.3989L95.0507 18.4779C95.3492 18.1842 95.7517 18.0203 96.1705 18.022C96.5893 18.0237 96.9904 18.1908 97.2866 18.4869C97.5827 18.7831 97.7498 19.1842 97.7515 19.603C97.7532 20.0218 97.5893 20.4243 97.2956 20.7228L90.2521 27.7663C90.1048 27.9137 89.9297 28.0306 89.7372 28.1104C89.5445 28.1902 89.3381 28.2313 89.1296 28.2312C88.9212 28.2312 88.7147 28.1901 88.5222 28.1103C88.3296 28.0305 88.1546 27.9135 88.0072 27.766L85.2312 24.9897L85.2314 24.99ZM21.9544 25.9628C21.9544 27.8408 20.7753 29.4448 19.1203 30.0846V30.4224C19.1203 30.8434 18.953 31.2472 18.6553 31.5449C18.3576 31.8426 17.9539 32.0098 17.5329 32.0098C17.1118 32.0098 16.7081 31.8426 16.4104 31.5449C16.1127 31.2472 15.9454 30.8434 15.9454 30.4224V30.0939C14.4049 29.5104 13.2786 28.0979 13.1242 26.3602C13.1057 26.1526 13.1283 25.9433 13.1907 25.7444C13.2531 25.5455 13.354 25.3608 13.4878 25.2009C13.6216 25.0411 13.7855 24.9091 13.9703 24.8126C14.1551 24.7161 14.3571 24.657 14.5647 24.6385C15.4394 24.5565 16.2086 25.2058 16.2864 26.0791C16.3437 26.7234 16.8797 27.2092 17.5331 27.2092C17.8636 27.2089 18.1805 27.0774 18.4142 26.8437C18.6479 26.61 18.7794 26.2931 18.7798 25.9625C18.7798 25.5327 18.1896 25.1847 16.8668 24.5669C15.2846 23.8278 13.1179 22.816 13.1179 20.288C13.1179 18.4072 14.297 16.8007 15.952 16.16V15.8279C15.952 15.4068 16.1192 15.0031 16.4169 14.7054C16.7146 14.4077 17.1184 14.2404 17.5394 14.2404C17.9604 14.2404 18.3642 14.4077 18.6619 14.7054C18.9596 15.0031 19.1269 15.4068 19.1269 15.8279V16.1507C20.6671 16.7352 21.7934 18.1496 21.9481 19.8903C21.9666 20.0979 21.944 20.3072 21.8816 20.5061C21.8192 20.705 21.7182 20.8897 21.5845 21.0496C21.4507 21.2094 21.2867 21.3414 21.1019 21.4379C20.9172 21.5344 20.7152 21.5935 20.5075 21.612C19.6304 21.6922 18.8634 21.0445 18.7859 20.1714C18.729 19.5339 18.1815 19.0347 17.5392 19.0347C16.8518 19.0347 16.2925 19.5967 16.2925 20.2877C16.2925 20.7214 16.884 21.071 18.21 21.6904C19.7902 22.4286 21.9544 23.4395 21.9544 25.9628Z" fill="url(#paint0_linear_4541_994)"/>
<defs>
<linearGradient id="paint0_linear_4541_994" x1="51.8029" y1="2.50406e-07" x2="51.8029" y2="112" gradientUnits="userSpaceOnUse">
<stop stop-color="#C7B498"/>
<stop offset="1" stop-color="#A38C6B"/>
</linearGradient>
</defs>
</svg>
