<svg width="15" height="19" viewBox="0 0 15 19" fill="none" xmlns="http://www.w3.org/2000/svg">
<path d="M7.86888 0C4.07463 0 0.987793 3.08684 0.987793 6.88105C0.987793 11.5898 7.14569 18.5025 7.40787 18.7945C7.65413 19.0688 8.08408 19.0683 8.32989 18.7945C8.59207 18.5025 14.75 11.5898 14.75 6.88105C14.7499 3.08684 11.6631 0 7.86888 0ZM7.86888 17.4314C5.79643 14.9696 2.22695 10.1128 2.22695 6.88113C2.22695 3.77009 4.75789 1.23916 7.86888 1.23916C10.9799 1.23916 13.5108 3.77009 13.5108 6.88109C13.5108 10.1129 9.94185 14.9688 7.86888 17.4314Z" fill="white"/>
<path d="M7.86888 0C4.07463 0 0.987793 3.08684 0.987793 6.88105C0.987793 11.5898 7.14569 18.5025 7.40787 18.7945C7.65413 19.0688 8.08408 19.0683 8.32989 18.7945C8.59207 18.5025 14.75 11.5898 14.75 6.88105C14.7499 3.08684 11.6631 0 7.86888 0ZM7.86888 17.4314C5.79643 14.9696 2.22695 10.1128 2.22695 6.88113C2.22695 3.77009 4.75789 1.23916 7.86888 1.23916C10.9799 1.23916 13.5108 3.77009 13.5108 6.88109C13.5108 10.1129 9.94185 14.9688 7.86888 17.4314Z" fill="url(#paint0_linear_2214_700)"/>
<path d="M7.86875 3.41919C5.95977 3.41919 4.40674 4.97226 4.40674 6.88124C4.40674 8.79022 5.9598 10.3433 7.86875 10.3433C9.7777 10.3433 11.3307 8.79022 11.3307 6.88124C11.3307 4.97226 9.7777 3.41919 7.86875 3.41919ZM7.86875 9.10413C6.64303 9.10413 5.6459 8.10696 5.6459 6.88124C5.6459 5.65551 6.64306 4.65835 7.86875 4.65835C9.09444 4.65835 10.0916 5.65551 10.0916 6.88124C10.0916 8.10696 9.09444 9.10413 7.86875 9.10413Z" fill="white"/>
<path d="M7.86875 3.41919C5.95977 3.41919 4.40674 4.97226 4.40674 6.88124C4.40674 8.79022 5.9598 10.3433 7.86875 10.3433C9.7777 10.3433 11.3307 8.79022 11.3307 6.88124C11.3307 4.97226 9.7777 3.41919 7.86875 3.41919ZM7.86875 9.10413C6.64303 9.10413 5.6459 8.10696 5.6459 6.88124C5.6459 5.65551 6.64306 4.65835 7.86875 4.65835C9.09444 4.65835 10.0916 5.65551 10.0916 6.88124C10.0916 8.10696 9.09444 9.10413 7.86875 9.10413Z" fill="url(#paint1_linear_2214_700)"/>
<defs>
<linearGradient id="paint0_linear_2214_700" x1="7.53947" y1="4.24795e-08" x2="7.53947" y2="19" gradientUnits="userSpaceOnUse">
<stop stop-color="#C7B498"/>
<stop offset="1" stop-color="#A38C6B"/>
</linearGradient>
<linearGradient id="paint1_linear_2214_700" x1="7.703" y1="3.41919" x2="7.703" y2="10.3433" gradientUnits="userSpaceOnUse">
<stop stop-color="#C7B498"/>
<stop offset="1" stop-color="#A38C6B"/>
</linearGradient>
</defs>
</svg>
