<svg width="25" height="25" viewBox="0 0 25 25" fill="none" xmlns="http://www.w3.org/2000/svg">
<path d="M9.37538 0.323405C8.78468 0.457674 8.20466 0.633849 7.63986 0.850548C12.3207 1.90553 16.472 4.55229 19.3611 8.32368C21.6587 11.2917 23.0688 14.8309 23.4328 18.5435C23.7371 17.9958 23.9999 17.4269 24.2189 16.8412C23.7355 12.9346 22.0578 9.26412 19.4075 6.31488C16.7572 3.36564 13.2591 1.27645 9.37538 0.323405ZM3.50568 3.43275C3.09448 3.78406 2.71666 4.17144 2.37689 4.59009C1.029 6.75222 0.228333 9.20071 0.0420922 11.73C-0.144149 14.2593 0.289471 16.7957 1.30656 19.1261C1.43556 19.3461 1.65527 19.7761 1.79435 19.9842C2.02776 20.3181 2.31035 20.616 2.63288 20.8681C2.70545 20.8681 2.77801 20.8681 2.85058 20.8681C5.43645 20.7783 7.96112 20.0704 10.2061 18.8055C12.4511 17.5407 14.3488 15.757 15.7349 13.609C16.0352 14.0747 16.3134 14.5523 16.5714 15.0358C15.931 16.1038 15.1525 17.0857 14.2554 17.9569C12.8951 19.2792 11.2813 20.3229 9.50768 21.0275C7.73402 21.732 5.83574 22.0833 3.92293 22.0611H3.88463C4.45161 22.5314 5.05854 22.9531 5.69875 23.3215C9.28849 22.9633 12.6456 21.4088 15.2128 18.9161C15.9788 18.1747 16.6669 17.3594 17.2668 16.4825C17.5087 17.0413 17.7264 17.6101 17.9159 18.1868C17.3583 19.0122 16.7152 19.7786 15.9969 20.4737C13.8568 22.5553 11.1081 23.9266 8.13573 24.3956C9.12928 24.72 10.1596 24.923 11.2036 25C13.3636 24.2344 15.3291 23.0174 16.9645 21.4329C17.4744 20.9369 17.9492 20.4072 18.3855 19.8475C18.5408 20.522 18.6605 21.204 18.7443 21.8907C18.4319 22.2593 18.1033 22.618 17.7506 22.9588C17.1519 23.5355 16.5046 24.0613 15.8155 24.5303C16.8849 24.2236 17.9093 23.7819 18.8632 23.2164V23.2283C19.1918 23.0302 19.5083 22.8161 19.8187 22.5922L19.9054 22.5347C19.992 22.4713 20.0807 22.4099 20.1654 22.3365C19.7893 18.3478 18.2814 14.5431 15.8135 11.3557C12.7727 7.38813 8.4205 4.58647 3.50568 3.43275ZM3.00578 19.5086C1.80361 17.2251 1.24339 14.6674 1.38301 12.0997C1.52262 9.53212 2.35701 7.04772 3.79997 4.9032C4.24745 5.02409 4.69292 5.1529 5.13033 5.29955C3.9555 7.44532 3.29962 9.82847 3.21363 12.2639C3.12763 14.6993 3.61383 17.1214 4.63447 19.3421C4.09512 19.4272 3.55139 19.4828 3.00578 19.5086ZM5.98901 19.0627C4.98032 16.9759 4.4927 14.6826 4.56667 12.3733C4.64065 10.064 5.27407 7.80534 6.41432 5.78507C6.86785 5.97334 7.31332 6.18142 7.74871 6.39545C6.89343 8.30945 6.43106 10.3707 6.38817 12.4608C6.34528 14.551 6.7227 16.6288 7.49877 18.5752C7.00518 18.7653 6.50114 18.9281 5.98901 19.0627ZM10.222 17.2256C9.75011 17.5281 9.26082 17.8033 8.75656 18.05C7.35895 14.5016 7.43131 10.556 8.95813 7.05933C9.42778 7.33677 9.88333 7.63007 10.3288 7.94517C9.34998 10.9587 9.31417 14.1918 10.226 17.2256H10.222ZM11.4011 16.3953C10.7406 13.909 10.7705 11.2941 11.4878 8.82308C12.6922 9.81348 13.7776 10.9358 14.723 12.1683C14.7815 12.2436 14.8359 12.3189 14.8923 12.3942C13.9851 13.928 12.7982 15.2843 11.3911 16.3953H11.4011ZM24.0335 7.71529C23.7594 7.30507 23.332 6.56191 23.0257 6.16755C21.4852 4.16599 19.6003 2.44497 17.4563 1.08241C15.7996 0.355399 14.0035 -0.0135857 12.1893 0.000382255C15.3019 0.997817 18.1064 2.75494 20.3406 5.10748C22.5748 7.46002 24.1658 10.3311 24.9647 13.4524C24.9987 12.9987 25.0082 12.5436 24.993 12.089C24.9365 10.4164 24.6866 9.15997 24.0234 7.71529H24.0335ZM6.10592 1.5719C5.62788 1.83365 5.16675 2.1242 4.72517 2.44188C9.151 3.47144 13.1405 5.83132 16.1389 9.19336C19.1374 12.5554 20.9957 16.7525 21.4554 21.201C21.8085 20.84 22.1396 20.4588 22.4471 20.0595C22.0153 16.1892 20.5168 12.5082 18.1134 9.41363C15.1345 5.52705 10.8945 2.75758 6.09584 1.56397L6.10592 1.5719Z" fill="white"/>
<path d="M9.37538 0.323405C8.78468 0.457674 8.20466 0.633849 7.63986 0.850548C12.3207 1.90553 16.472 4.55229 19.3611 8.32368C21.6587 11.2917 23.0688 14.8309 23.4328 18.5435C23.7371 17.9958 23.9999 17.4269 24.2189 16.8412C23.7355 12.9346 22.0578 9.26412 19.4075 6.31488C16.7572 3.36564 13.2591 1.27645 9.37538 0.323405ZM3.50568 3.43275C3.09448 3.78406 2.71666 4.17144 2.37689 4.59009C1.029 6.75222 0.228333 9.20071 0.0420922 11.73C-0.144149 14.2593 0.289471 16.7957 1.30656 19.1261C1.43556 19.3461 1.65527 19.7761 1.79435 19.9842C2.02776 20.3181 2.31035 20.616 2.63288 20.8681C2.70545 20.8681 2.77801 20.8681 2.85058 20.8681C5.43645 20.7783 7.96112 20.0704 10.2061 18.8055C12.4511 17.5407 14.3488 15.757 15.7349 13.609C16.0352 14.0747 16.3134 14.5523 16.5714 15.0358C15.931 16.1038 15.1525 17.0857 14.2554 17.9569C12.8951 19.2792 11.2813 20.3229 9.50768 21.0275C7.73402 21.732 5.83574 22.0833 3.92293 22.0611H3.88463C4.45161 22.5314 5.05854 22.9531 5.69875 23.3215C9.28849 22.9633 12.6456 21.4088 15.2128 18.9161C15.9788 18.1747 16.6669 17.3594 17.2668 16.4825C17.5087 17.0413 17.7264 17.6101 17.9159 18.1868C17.3583 19.0122 16.7152 19.7786 15.9969 20.4737C13.8568 22.5553 11.1081 23.9266 8.13573 24.3956C9.12928 24.72 10.1596 24.923 11.2036 25C13.3636 24.2344 15.3291 23.0174 16.9645 21.4329C17.4744 20.9369 17.9492 20.4072 18.3855 19.8475C18.5408 20.522 18.6605 21.204 18.7443 21.8907C18.4319 22.2593 18.1033 22.618 17.7506 22.9588C17.1519 23.5355 16.5046 24.0613 15.8155 24.5303C16.8849 24.2236 17.9093 23.7819 18.8632 23.2164V23.2283C19.1918 23.0302 19.5083 22.8161 19.8187 22.5922L19.9054 22.5347C19.992 22.4713 20.0807 22.4099 20.1654 22.3365C19.7893 18.3478 18.2814 14.5431 15.8135 11.3557C12.7727 7.38813 8.4205 4.58647 3.50568 3.43275ZM3.00578 19.5086C1.80361 17.2251 1.24339 14.6674 1.38301 12.0997C1.52262 9.53212 2.35701 7.04772 3.79997 4.9032C4.24745 5.02409 4.69292 5.1529 5.13033 5.29955C3.9555 7.44532 3.29962 9.82847 3.21363 12.2639C3.12763 14.6993 3.61383 17.1214 4.63447 19.3421C4.09512 19.4272 3.55139 19.4828 3.00578 19.5086ZM5.98901 19.0627C4.98032 16.9759 4.4927 14.6826 4.56667 12.3733C4.64065 10.064 5.27407 7.80534 6.41432 5.78507C6.86785 5.97334 7.31332 6.18142 7.74871 6.39545C6.89343 8.30945 6.43106 10.3707 6.38817 12.4608C6.34528 14.551 6.7227 16.6288 7.49877 18.5752C7.00518 18.7653 6.50114 18.9281 5.98901 19.0627ZM10.222 17.2256C9.75011 17.5281 9.26082 17.8033 8.75656 18.05C7.35895 14.5016 7.43131 10.556 8.95813 7.05933C9.42778 7.33677 9.88333 7.63007 10.3288 7.94517C9.34998 10.9587 9.31417 14.1918 10.226 17.2256H10.222ZM11.4011 16.3953C10.7406 13.909 10.7705 11.2941 11.4878 8.82308C12.6922 9.81348 13.7776 10.9358 14.723 12.1683C14.7815 12.2436 14.8359 12.3189 14.8923 12.3942C13.9851 13.928 12.7982 15.2843 11.3911 16.3953H11.4011ZM24.0335 7.71529C23.7594 7.30507 23.332 6.56191 23.0257 6.16755C21.4852 4.16599 19.6003 2.44497 17.4563 1.08241C15.7996 0.355399 14.0035 -0.0135857 12.1893 0.000382255C15.3019 0.997817 18.1064 2.75494 20.3406 5.10748C22.5748 7.46002 24.1658 10.3311 24.9647 13.4524C24.9987 12.9987 25.0082 12.5436 24.993 12.089C24.9365 10.4164 24.6866 9.15997 24.0234 7.71529H24.0335ZM6.10592 1.5719C5.62788 1.83365 5.16675 2.1242 4.72517 2.44188C9.151 3.47144 13.1405 5.83132 16.1389 9.19336C19.1374 12.5554 20.9957 16.7525 21.4554 21.201C21.8085 20.84 22.1396 20.4588 22.4471 20.0595C22.0153 16.1892 20.5168 12.5082 18.1134 9.41363C15.1345 5.52705 10.8945 2.75758 6.09584 1.56397L6.10592 1.5719Z" fill="#BBA483"/>
</svg>
