<svg width="65" height="64" viewBox="0 0 65 64" fill="none" xmlns="http://www.w3.org/2000/svg">
<path d="M24.022 0.827918C22.5085 1.17164 21.0224 1.62265 19.5752 2.1774C31.5687 4.87815 42.2054 11.6539 49.608 21.3086C55.4951 28.9067 59.108 37.967 60.0407 47.4714C60.8203 46.0694 61.4936 44.6128 62.0549 43.1134C60.8163 33.1125 56.5176 23.7161 49.7269 16.1661C42.9361 8.61604 33.973 3.26772 24.022 0.827918ZM8.98241 8.78784C7.92882 9.6872 6.96075 10.6789 6.09018 11.7506C2.63655 17.2857 0.585046 23.5538 0.107851 30.0289C-0.369345 36.5039 0.741697 42.9969 3.34772 48.9629C3.67826 49.526 4.24121 50.6269 4.59758 51.1596C5.19561 52.0143 5.9197 52.7768 6.74609 53.4223C6.93202 53.4223 7.11795 53.4223 7.30388 53.4223C13.9295 53.1925 20.3984 51.3801 26.1506 48.1421C31.9028 44.9042 36.7651 40.338 40.3167 34.839C41.0862 36.0312 41.799 37.2538 42.46 38.4917C40.8193 41.2258 38.8246 43.7394 36.5258 45.9697C33.0404 49.3549 28.9056 52.0267 24.361 53.8303C19.8165 55.6339 14.9526 56.5333 10.0515 56.4764H9.95338C11.4061 57.6804 12.9612 58.7598 14.6016 59.703C23.7994 58.7861 32.4013 54.8066 38.979 48.4251C40.9416 46.5272 42.7048 44.44 44.2419 42.1952C44.8616 43.6258 45.4194 45.0819 45.9049 46.5582C44.4763 48.6713 42.8286 50.6333 40.9881 52.4127C35.5047 57.7415 28.4617 61.2521 20.8457 62.4527C23.3915 63.2831 26.0315 63.8028 28.7064 64C34.2409 62.0401 39.2769 58.9246 43.4671 54.8682C44.7737 53.5985 45.9902 52.2424 47.1083 50.8096C47.506 52.5364 47.8129 54.2822 48.0276 56.0401C47.2271 56.9837 46.3852 57.902 45.4814 58.7746C43.9475 60.251 42.2889 61.5968 40.5233 62.7976C43.2632 62.0123 45.888 60.8817 48.3323 59.4341V59.4645C49.1741 58.9572 49.985 58.4093 50.7804 57.836L51.0025 57.6889C51.2245 57.5265 51.4518 57.3693 51.6687 57.1816C50.705 46.9705 46.8415 37.2304 40.5181 29.0707C32.7268 18.9136 21.5754 11.7414 8.98241 8.78784ZM7.70157 49.942C4.62129 44.0962 3.18587 37.5484 3.54361 30.9753C3.90134 24.4022 6.03925 18.0422 9.73646 12.5522C10.883 12.8617 12.0244 13.1914 13.1452 13.5668C10.135 19.06 8.45445 25.1609 8.2341 31.3955C8.01376 37.6302 9.25953 43.8309 11.8746 49.5159C10.4927 49.7336 9.09954 49.8759 7.70157 49.942ZM15.3453 48.8006C12.7608 43.4583 11.5114 37.5874 11.701 31.6756C11.8905 25.7637 13.5135 19.9817 16.4351 14.8098C17.5971 15.2917 18.7385 15.8244 19.8541 16.3724C17.6627 21.2722 16.478 26.5489 16.3681 31.8997C16.2582 37.2505 17.2252 42.5699 19.2137 47.5525C17.949 48.0392 16.6575 48.4559 15.3453 48.8006ZM26.1912 44.0976C24.9822 44.8718 23.7285 45.5765 22.4365 46.2081C18.8554 37.124 19.0409 27.0232 22.9529 18.0719C24.1563 18.7821 25.3235 19.533 26.4649 20.3396C23.957 28.0544 23.8652 36.3311 26.2015 44.0976H26.1912ZM29.2126 41.972C27.52 35.6072 27.5967 28.9129 29.4346 22.5871C32.5205 25.1225 35.3016 27.9957 37.724 31.1507C37.8738 31.3435 38.0132 31.5363 38.1578 31.7291C35.8333 35.6556 32.7921 39.1279 29.1867 41.972H29.2126ZM61.5798 19.7511C60.8774 18.701 59.7825 16.7985 58.9974 15.7889C55.0505 10.6649 50.2209 6.25913 44.7273 2.77097C40.4825 0.909821 35.8804 -0.0347794 31.232 0.000978573C39.2072 2.55441 46.393 7.05265 52.1176 13.0751C57.8422 19.0976 61.9187 26.4477 63.9659 34.4382C64.053 33.2768 64.0771 32.1117 64.0382 30.9478C63.8936 26.666 63.2531 23.4495 61.554 19.7511H61.5798ZM15.6449 4.02406C14.42 4.69414 13.2385 5.43795 12.1071 6.25122C23.4471 8.88688 33.6693 14.9282 41.352 23.535C49.0347 32.1418 53.7961 42.8864 54.9741 54.2746C55.8787 53.3503 56.7272 52.3746 57.5152 51.3524C56.4086 41.4443 52.5691 32.021 46.411 24.0989C38.7784 14.1493 27.9145 7.0594 15.6191 4.00377L15.6449 4.02406Z" fill="white"/>
<path d="M24.022 0.827918C22.5085 1.17164 21.0224 1.62265 19.5752 2.1774C31.5687 4.87815 42.2054 11.6539 49.608 21.3086C55.4951 28.9067 59.108 37.967 60.0407 47.4714C60.8203 46.0694 61.4936 44.6128 62.0549 43.1134C60.8163 33.1125 56.5176 23.7161 49.7269 16.1661C42.9361 8.61604 33.973 3.26772 24.022 0.827918ZM8.98241 8.78784C7.92882 9.6872 6.96075 10.6789 6.09018 11.7506C2.63655 17.2857 0.585046 23.5538 0.107851 30.0289C-0.369345 36.5039 0.741697 42.9969 3.34772 48.9629C3.67826 49.526 4.24121 50.6269 4.59758 51.1596C5.19561 52.0143 5.9197 52.7768 6.74609 53.4223C6.93202 53.4223 7.11795 53.4223 7.30388 53.4223C13.9295 53.1925 20.3984 51.3801 26.1506 48.1421C31.9028 44.9042 36.7651 40.338 40.3167 34.839C41.0862 36.0312 41.799 37.2538 42.46 38.4917C40.8193 41.2258 38.8246 43.7394 36.5258 45.9697C33.0404 49.3549 28.9056 52.0267 24.361 53.8303C19.8165 55.6339 14.9526 56.5333 10.0515 56.4764H9.95338C11.4061 57.6804 12.9612 58.7598 14.6016 59.703C23.7994 58.7861 32.4013 54.8066 38.979 48.4251C40.9416 46.5272 42.7048 44.44 44.2419 42.1952C44.8616 43.6258 45.4194 45.0819 45.9049 46.5582C44.4763 48.6713 42.8286 50.6333 40.9881 52.4127C35.5047 57.7415 28.4617 61.2521 20.8457 62.4527C23.3915 63.2831 26.0315 63.8028 28.7064 64C34.2409 62.0401 39.2769 58.9246 43.4671 54.8682C44.7737 53.5985 45.9902 52.2424 47.1083 50.8096C47.506 52.5364 47.8129 54.2822 48.0276 56.0401C47.2271 56.9837 46.3852 57.902 45.4814 58.7746C43.9475 60.251 42.2889 61.5968 40.5233 62.7976C43.2632 62.0123 45.888 60.8817 48.3323 59.4341V59.4645C49.1741 58.9572 49.985 58.4093 50.7804 57.836L51.0025 57.6889C51.2245 57.5265 51.4518 57.3693 51.6687 57.1816C50.705 46.9705 46.8415 37.2304 40.5181 29.0707C32.7268 18.9136 21.5754 11.7414 8.98241 8.78784ZM7.70157 49.942C4.62129 44.0962 3.18587 37.5484 3.54361 30.9753C3.90134 24.4022 6.03925 18.0422 9.73646 12.5522C10.883 12.8617 12.0244 13.1914 13.1452 13.5668C10.135 19.06 8.45445 25.1609 8.2341 31.3955C8.01376 37.6302 9.25953 43.8309 11.8746 49.5159C10.4927 49.7336 9.09954 49.8759 7.70157 49.942ZM15.3453 48.8006C12.7608 43.4583 11.5114 37.5874 11.701 31.6756C11.8905 25.7637 13.5135 19.9817 16.4351 14.8098C17.5971 15.2917 18.7385 15.8244 19.8541 16.3724C17.6627 21.2722 16.478 26.5489 16.3681 31.8997C16.2582 37.2505 17.2252 42.5699 19.2137 47.5525C17.949 48.0392 16.6575 48.4559 15.3453 48.8006ZM26.1912 44.0976C24.9822 44.8718 23.7285 45.5765 22.4365 46.2081C18.8554 37.124 19.0409 27.0232 22.9529 18.0719C24.1563 18.7821 25.3235 19.533 26.4649 20.3396C23.957 28.0544 23.8652 36.3311 26.2015 44.0976H26.1912ZM29.2126 41.972C27.52 35.6072 27.5967 28.9129 29.4346 22.5871C32.5205 25.1225 35.3016 27.9957 37.724 31.1507C37.8738 31.3435 38.0132 31.5363 38.1578 31.7291C35.8333 35.6556 32.7921 39.1279 29.1867 41.972H29.2126ZM61.5798 19.7511C60.8774 18.701 59.7825 16.7985 58.9974 15.7889C55.0505 10.6649 50.2209 6.25913 44.7273 2.77097C40.4825 0.909821 35.8804 -0.0347794 31.232 0.000978573C39.2072 2.55441 46.393 7.05265 52.1176 13.0751C57.8422 19.0976 61.9187 26.4477 63.9659 34.4382C64.053 33.2768 64.0771 32.1117 64.0382 30.9478C63.8936 26.666 63.2531 23.4495 61.554 19.7511H61.5798ZM15.6449 4.02406C14.42 4.69414 13.2385 5.43795 12.1071 6.25122C23.4471 8.88688 33.6693 14.9282 41.352 23.535C49.0347 32.1418 53.7961 42.8864 54.9741 54.2746C55.8787 53.3503 56.7272 52.3746 57.5152 51.3524C56.4086 41.4443 52.5691 32.021 46.411 24.0989C38.7784 14.1493 27.9145 7.0594 15.6191 4.00377L15.6449 4.02406Z" fill="white"/>
</svg>
