<svg width="153" height="45" viewBox="0 0 153 45" fill="none" xmlns="http://www.w3.org/2000/svg">
<path d="M80.8749 38.6626V24.6797C80.8699 24.6275 80.8766 24.5749 80.8945 24.5256C80.9125 24.4762 80.9413 24.4314 80.9788 24.3943C81.0163 24.3573 81.0616 24.3288 81.1115 24.3111C81.1615 24.2933 81.2147 24.2867 81.2675 24.2916H91.1053C91.3791 24.2916 91.5195 24.4198 91.5195 24.6797V26.6096C91.527 26.6647 91.5213 26.7207 91.503 26.7732C91.4846 26.8257 91.4541 26.8732 91.4138 26.912C91.3736 26.9507 91.3247 26.9796 91.2711 26.9964C91.2176 27.0131 91.1608 27.0173 91.1053 27.0084H83.8179V30.0243H89.3726C89.6752 30.0243 89.8265 30.1561 89.8265 30.4231V32.3139C89.8265 32.5702 89.6752 32.702 89.3726 32.702H83.8179V36.3552H91.2962C91.5772 36.3552 91.7213 36.487 91.7213 36.7505V38.6626C91.7213 38.9296 91.5772 39.0614 91.2962 39.0614H81.2675C81.2137 39.0666 81.1594 39.0598 81.1086 39.0414C81.0578 39.0231 81.0119 38.9936 80.9741 38.9553C80.9364 38.917 80.9079 38.8708 80.8907 38.8201C80.8736 38.7695 80.8681 38.7156 80.8749 38.6626Z" fill="white"/>
<path d="M104.315 38.5202V26.8055H100.558C100.504 26.8107 100.45 26.8039 100.399 26.7856C100.348 26.7672 100.302 26.7378 100.264 26.6995C100.227 26.6612 100.198 26.615 100.181 26.5643C100.164 26.5136 100.158 26.4597 100.165 26.4067V24.5267C100.16 24.4745 100.167 24.4218 100.185 24.3725C100.203 24.3231 100.231 24.2783 100.269 24.2413C100.306 24.2042 100.352 24.1757 100.402 24.158C100.452 24.1402 100.505 24.1336 100.558 24.1386H111.13C111.183 24.1336 111.236 24.1402 111.286 24.158C111.336 24.1757 111.382 24.2042 111.419 24.2413C111.457 24.2783 111.485 24.3231 111.503 24.3725C111.521 24.4218 111.528 24.4745 111.523 24.5267V26.4067C111.53 26.4597 111.524 26.5136 111.507 26.5643C111.49 26.615 111.461 26.6612 111.424 26.6995C111.386 26.7378 111.34 26.7672 111.289 26.7856C111.238 26.8039 111.184 26.8107 111.13 26.8055H107.265V38.5202C107.271 38.5729 107.265 38.6264 107.248 38.6766C107.231 38.7268 107.202 38.7726 107.164 38.8105C107.127 38.8484 107.081 38.8775 107.03 38.8956C106.98 38.9138 106.926 38.9205 106.872 38.9154H104.711C104.657 38.9211 104.603 38.9148 104.552 38.8969C104.501 38.879 104.455 38.85 104.417 38.812C104.379 38.774 104.35 38.7281 104.332 38.6776C104.314 38.6271 104.309 38.5733 104.315 38.5202Z" fill="white"/>
<path d="M120.107 38.4774V24.5693C120.106 24.508 120.121 24.4474 120.149 24.3928C120.177 24.3382 120.218 24.2913 120.269 24.256C120.361 24.1767 120.479 24.1325 120.601 24.1313H122.632C122.724 24.1323 122.814 24.1582 122.892 24.2061C122.978 24.2605 123.042 24.3421 123.075 24.4376V33.8591L129.678 24.4447C129.738 24.3466 129.826 24.2684 129.93 24.2204C130.033 24.1687 130.147 24.1407 130.262 24.1385H132.625C132.685 24.1337 132.746 24.1425 132.803 24.164C132.86 24.1856 132.911 24.2194 132.953 24.2631C132.993 24.305 133.024 24.3542 133.044 24.408C133.064 24.4618 133.074 24.519 133.072 24.5764V38.4631C133.08 38.5229 133.074 38.5838 133.055 38.6411C133.035 38.6983 133.003 38.7502 132.959 38.7927C132.916 38.8353 132.863 38.8672 132.805 38.886C132.747 38.9048 132.685 38.91 132.625 38.9011H130.593C130.276 38.9011 130.129 38.7551 130.15 38.4631V28.6356L123.151 38.6055C123.076 38.7026 122.989 38.7899 122.892 38.8655C122.792 38.9183 122.68 38.9418 122.567 38.9331H120.586C120.269 38.9153 120.107 38.7693 120.107 38.4774Z" fill="white"/>
<path d="M143.626 38.6484C142.919 38.377 142.259 37.9973 141.67 37.5232C141.627 37.4869 141.591 37.4436 141.562 37.395C141.528 37.3444 141.511 37.2848 141.512 37.2241C141.505 37.1556 141.524 37.0871 141.566 37.0318L142.647 35.5577C142.675 35.5146 142.714 35.4792 142.76 35.455C142.806 35.4307 142.857 35.4183 142.909 35.4188C143.023 35.4226 143.133 35.4612 143.223 35.5292C143.521 35.8279 143.864 36.08 144.239 36.277C144.747 36.5562 145.318 36.7032 145.899 36.7043H146.414C146.693 36.7032 146.967 36.6412 147.218 36.5227C147.48 36.4041 147.716 36.236 147.913 36.0277C148.121 35.8077 148.288 35.5534 148.407 35.2764C148.527 34.991 148.588 34.6847 148.587 34.3756C148.599 34.0704 148.544 33.7662 148.426 33.484C148.308 33.2018 148.129 32.9484 147.902 32.7412C147.692 32.5544 147.447 32.4093 147.182 32.3139C146.897 32.2137 146.598 32.1631 146.296 32.1644H145.28C145.172 32.1716 145.066 32.1399 144.981 32.0754C144.947 32.0474 144.921 32.0124 144.903 31.973C144.885 31.9336 144.876 31.8907 144.876 31.8475V30.2665C144.869 30.2115 144.875 30.1555 144.893 30.103C144.911 30.0505 144.942 30.003 144.982 29.9642C145.022 29.9254 145.071 29.8965 145.125 29.8798C145.178 29.863 145.235 29.8589 145.291 29.8677H146.306C146.559 29.8698 146.81 29.8289 147.048 29.7467C147.272 29.6685 147.478 29.5475 147.654 29.3906C147.837 29.2429 147.985 29.0559 148.084 28.8437C148.184 28.6315 148.234 28.3997 148.23 28.1657C148.234 27.9205 148.184 27.6774 148.082 27.4536C147.993 27.2472 147.859 27.0626 147.69 26.9124C147.501 26.7565 147.285 26.6358 147.052 26.5563C146.797 26.472 146.529 26.4299 146.26 26.4317H145.78C145.362 26.4415 144.948 26.5197 144.556 26.6631C144.19 26.7942 143.859 27.0047 143.587 27.2791C143.523 27.3376 143.439 27.3696 143.353 27.3681C143.313 27.37 143.274 27.3629 143.238 27.3475C143.201 27.3321 143.169 27.3087 143.144 27.2791L142.106 25.9261C142.052 25.8611 142.022 25.779 142.023 25.6946C142.028 25.6312 142.045 25.5693 142.075 25.5129C142.105 25.4565 142.146 25.4068 142.196 25.367C142.371 25.1736 142.572 25.0057 142.794 24.8685C143.07 24.6956 143.362 24.5501 143.666 24.4341C144.392 24.1449 145.167 23.9986 145.95 24.0033H146.465C147.002 24.0017 147.538 24.0626 148.061 24.1849C148.548 24.2918 149.013 24.4835 149.433 24.751C150.411 25.3967 150.898 26.3913 150.896 27.7349C150.903 28.4241 150.672 29.095 150.24 29.6363C149.894 30.0603 149.47 30.4156 148.99 30.6831C149.685 31.0246 150.287 31.5266 150.744 32.1466C151.266 32.8576 151.545 33.7144 151.54 34.5928C151.549 35.2341 151.42 35.8701 151.162 36.4586C150.914 37.0139 150.545 37.5086 150.082 37.9078C149.618 38.3073 149.079 38.6133 148.497 38.8086C147.866 39.0218 147.203 39.1277 146.537 39.122H146.015C145.196 39.1132 144.385 38.9526 143.626 38.6484Z" fill="white"/>
<path d="M55.0649 38.8119C55.0293 38.7707 55.0036 38.7221 54.9899 38.6696C54.9762 38.6172 54.9747 38.5623 54.9857 38.5092L56.5058 24.5157C56.5053 24.4634 56.5155 24.4115 56.536 24.3632C56.5564 24.3149 56.5866 24.2713 56.6247 24.235C56.6628 24.1986 56.7081 24.1704 56.7576 24.1519C56.8071 24.1335 56.86 24.1252 56.9129 24.1276H59.5317C59.5727 24.1235 59.6142 24.1281 59.6533 24.1409C59.6924 24.1538 59.7283 24.1748 59.7586 24.2024C59.8214 24.2893 59.8701 24.3854 59.9027 24.4872L63.505 34.3397L67.0496 24.4944C67.0807 24.3916 67.1321 24.296 67.2009 24.2131C67.2308 24.1833 67.2669 24.1602 67.3067 24.1455C67.3465 24.1307 67.3891 24.1246 67.4314 24.1276H70.1079C70.1624 24.1191 70.2181 24.1232 70.2708 24.1393C70.3234 24.1555 70.3716 24.1834 70.4116 24.2209C70.4517 24.2584 70.4824 24.3045 70.5016 24.3556C70.5208 24.4067 70.5278 24.4615 70.5222 24.5157L72.0423 38.5092C72.0533 38.5623 72.0518 38.6172 72.0381 38.6696C72.0244 38.7221 71.9987 38.7707 71.9631 38.8119C71.9205 38.8489 71.8708 38.8771 71.8169 38.8948C71.7631 38.9126 71.7062 38.9195 71.6497 38.9151H69.6072C69.555 38.9205 69.5023 38.9154 69.4521 38.9001C69.402 38.8848 69.3555 38.8596 69.3154 38.8261C69.2442 38.7414 69.2014 38.6369 69.1929 38.527L68.1663 29.1232L64.7442 38.2493C64.7135 38.3605 64.6567 38.4629 64.5785 38.5484C64.5059 38.5985 64.4182 38.6224 64.3299 38.616H62.6368C62.5498 38.6218 62.4633 38.5979 62.3919 38.5484C62.313 38.4634 62.2561 38.3608 62.2262 38.2493L58.8617 29.1126L57.8062 38.5199C57.8034 38.6301 57.7642 38.7364 57.6946 38.8226C57.6545 38.8562 57.6081 38.8817 57.558 38.8976C57.5079 38.9135 57.4552 38.9194 57.4028 38.9151H55.3495C55.2448 38.9179 55.143 38.8809 55.0649 38.8119Z" fill="white"/>
<path d="M53.959 19.8407C53.9625 19.775 53.9796 19.7108 54.0094 19.652L59.6974 5.67627C59.7311 5.56924 59.7979 5.47532 59.8883 5.40765C59.9787 5.33997 60.0883 5.30193 60.2017 5.29884H61.8803C61.996 5.29801 62.1088 5.33437 62.2017 5.40245C62.2946 5.47054 62.3626 5.56664 62.3955 5.67627L68.0798 19.652C68.107 19.7074 68.1206 19.7684 68.1194 19.83C68.121 19.8651 68.1143 19.9001 68.1 19.9322C68.0856 19.9643 68.0639 19.9927 68.0366 20.0152C67.9665 20.0614 67.883 20.0839 67.7988 20.0792H65.5943C65.4829 20.086 65.3727 20.0541 65.2826 19.9891C65.1925 19.9241 65.1282 19.83 65.1007 19.7232L64.1173 17.3304H57.9431L56.9885 19.7089C56.9499 19.8209 56.88 19.9197 56.7867 19.9938C56.6978 20.0537 56.5917 20.0836 56.4842 20.0792H54.2796C54.0634 20.0792 53.959 20.0009 53.959 19.8407ZM63.1591 14.7631L61.0446 9.11946L58.8833 14.7631H63.1591Z" fill="white"/>
<path d="M70.1076 19.6698V5.69768C70.1017 5.64438 70.108 5.59044 70.1261 5.53988C70.1442 5.48932 70.1736 5.44346 70.2121 5.4057C70.2911 5.33893 70.3929 5.30453 70.4967 5.30957H76.3648C76.9984 5.3054 77.6253 5.43785 78.2019 5.69768C78.767 5.95396 79.276 6.31681 79.7004 6.76589C80.5415 7.66568 81.0095 8.84516 81.0117 10.0702C81.0096 10.6719 80.8871 11.2673 80.6514 11.8221C80.4187 12.3786 80.0841 12.888 79.6644 13.3247C79.2363 13.7775 78.7206 14.1408 78.1479 14.3929C77.5663 14.6483 76.9363 14.7782 76.2999 14.7739H73.0291V19.6698C73.038 19.7247 73.0338 19.7808 73.0169 19.8337C72.9999 19.8867 72.9707 19.935 72.9315 19.9748C72.8923 20.0146 72.8442 20.0448 72.7911 20.0629C72.738 20.0811 72.6813 20.0867 72.6256 20.0793H70.4895C70.2409 20.0793 70.1076 19.9404 70.1076 19.6698ZM75.7632 12.2458C76.0649 12.256 76.3655 12.2047 76.6462 12.0951C76.927 11.9854 77.1819 11.8198 77.395 11.6084C77.5957 11.4117 77.7538 11.1767 77.8597 10.9176C77.9688 10.6434 78.0227 10.3507 78.0182 10.056C78.0207 9.76375 77.9669 9.47374 77.8597 9.2014C77.7545 8.93573 77.5964 8.69359 77.395 8.48926C77.1828 8.27557 76.9285 8.10718 76.6478 7.99449C76.3671 7.8818 76.066 7.82721 75.7632 7.83409H73.0363V12.2458H75.7632Z" fill="white"/>
<path d="M88.2885 20.0189C87.6352 19.8375 87.009 19.5717 86.4261 19.2284C84.6773 18.2343 83.3929 16.6017 82.8491 14.6814C82.4841 13.3633 82.4841 11.9724 82.8491 10.6543C83.0261 10.012 83.2902 9.39633 83.6344 8.8241C83.9733 8.26287 84.3823 7.74606 84.8519 7.28588C85.3162 6.82884 85.8409 6.43598 86.4117 6.11798C87.5971 5.44346 88.9415 5.08975 90.3093 5.0925C91.122 5.0836 91.9308 5.20382 92.7048 5.44857C93.4196 5.68336 94.0929 6.02694 94.7005 6.46693C94.7512 6.50434 94.7928 6.55258 94.8221 6.60806C94.8514 6.66354 94.8677 6.72483 94.8698 6.78739C94.8717 6.85042 94.8541 6.91254 94.8194 6.96542L93.7387 8.74577C93.7109 8.78652 93.6733 8.81987 93.6293 8.84285C93.5853 8.86583 93.5363 8.87773 93.4865 8.87751C93.3734 8.87156 93.2645 8.8332 93.1731 8.76713C92.7405 8.49103 92.2776 8.26408 91.7935 8.0906C91.3113 7.92763 90.8045 7.84696 90.2949 7.85203C89.6513 7.84286 89.0126 7.96404 88.4182 8.2081C87.8559 8.45598 87.35 8.81321 86.9304 9.2585C86.4992 9.70654 86.1592 10.2324 85.929 10.8074C85.6877 11.4041 85.5654 12.0413 85.5688 12.6839C85.5667 13.3287 85.6889 13.9679 85.929 14.5675C86.1581 15.1483 86.4981 15.6802 86.9304 16.1342C87.3628 16.5869 87.882 16.95 88.4578 17.2024C89.045 17.4605 89.6811 17.5916 90.3237 17.5869C90.8412 17.5873 91.355 17.5018 91.8439 17.3341C92.311 17.175 92.7517 16.9482 93.1515 16.6612C93.2515 16.5716 93.3776 16.5155 93.5117 16.5009C93.5663 16.5017 93.6198 16.5157 93.6676 16.5418C93.7154 16.5679 93.7559 16.6052 93.7855 16.6505L94.8013 18.3525C94.8716 18.4176 94.9141 18.5067 94.9202 18.6017C94.9202 18.7086 94.8446 18.8154 94.6897 18.9293C94.0847 19.3654 93.4152 19.7065 92.7048 19.9406C91.9361 20.1869 91.1318 20.3071 90.3237 20.2966C89.6358 20.2945 88.9513 20.2011 88.2885 20.0189Z" fill="white"/>
<path d="M97.3876 19.6804V5.69757C97.3826 5.64537 97.3893 5.59272 97.4072 5.54338C97.4252 5.49404 97.454 5.44923 97.4915 5.41215C97.529 5.37507 97.5743 5.34664 97.6242 5.32889C97.6742 5.31114 97.7274 5.3045 97.7802 5.30945H107.614C107.892 5.30945 108.029 5.43764 108.029 5.69757V7.62746C108.036 7.68251 108.03 7.73853 108.012 7.79102C107.994 7.84352 107.963 7.89104 107.923 7.92979C107.883 7.96855 107.834 7.99745 107.78 8.0142C107.727 8.03095 107.67 8.03508 107.614 8.02626H100.327V11.0386H105.903C106.206 11.0386 106.354 11.1703 106.354 11.4374V13.3281C106.354 13.5845 106.206 13.7162 105.903 13.7162H100.327V17.3731H107.805C108.09 17.3731 108.23 17.5048 108.23 17.7683V19.6804C108.23 19.9474 108.09 20.0792 107.805 20.0792H97.7802C97.7264 20.0844 97.6721 20.0776 97.6213 20.0592C97.5705 20.0409 97.5246 20.0115 97.4868 19.9732C97.4491 19.9349 97.4206 19.8886 97.4034 19.838C97.3863 19.7873 97.3808 19.7334 97.3876 19.6804Z" fill="white"/>
<path d="M110.615 19.6698V5.71906C110.612 5.61179 110.648 5.50694 110.716 5.42352C110.753 5.38401 110.798 5.35323 110.849 5.3335C110.899 5.31377 110.954 5.30559 111.008 5.30958H113.169C113.264 5.309 113.357 5.34038 113.432 5.39859C113.472 5.43678 113.503 5.48367 113.522 5.53557C113.54 5.58747 113.547 5.64297 113.54 5.69769V10.9034H120.247V5.71906C120.244 5.61287 120.277 5.50861 120.341 5.42352C120.378 5.38449 120.422 5.35401 120.472 5.33429C120.522 5.31458 120.576 5.30613 120.629 5.30958H122.791C122.885 5.30837 122.977 5.33986 123.05 5.39859C123.097 5.43317 123.134 5.47847 123.159 5.53057C123.185 5.58267 123.196 5.64003 123.194 5.69769V19.6698C123.203 19.781 123.169 19.8913 123.1 19.9796C123.009 20.0543 122.891 20.0901 122.773 20.0793H120.647C120.392 20.0793 120.266 19.944 120.266 19.6698V13.6986H113.555V19.6698C113.559 19.7255 113.553 19.7816 113.536 19.8348C113.518 19.8879 113.49 19.9372 113.454 19.9796C113.36 20.0542 113.242 20.0899 113.122 20.0793H111.008C110.748 20.0793 110.615 19.9404 110.615 19.6698Z" fill="white"/>
<path d="M124.747 19.8407C124.752 19.7753 124.769 19.7114 124.797 19.652L130.485 5.67629C130.519 5.56954 130.586 5.47591 130.677 5.40831C130.767 5.34071 130.876 5.30247 130.99 5.29886H132.672C132.787 5.29762 132.9 5.3339 132.992 5.4021C133.085 5.4703 133.152 5.56664 133.183 5.67629L138.86 19.652C138.889 19.7072 138.904 19.7681 138.904 19.83C138.905 19.8655 138.898 19.9008 138.883 19.9331C138.868 19.9653 138.846 19.9935 138.817 20.0152C138.747 20.0614 138.664 20.0839 138.579 20.0793H136.375C136.264 20.0853 136.154 20.0531 136.064 19.9882C135.974 19.9233 135.909 19.8297 135.881 19.7232L134.905 17.334H128.735L127.776 19.7125C127.739 19.8251 127.669 19.9243 127.575 19.9974C127.487 20.0568 127.382 20.0867 127.276 20.0828H125.071C124.855 20.0793 124.747 20.0009 124.747 19.8407ZM133.951 14.7632L131.84 9.11948L129.678 14.7632H133.951Z" fill="white"/>
<path d="M152.873 5.39494C152.778 5.32795 152.662 5.29414 152.545 5.2988H142.074C141.989 5.29273 141.904 5.30594 141.825 5.33742C141.747 5.3689 141.676 5.41782 141.62 5.4804C141.513 5.61614 141.459 5.78564 141.469 5.95753V15.9702C141.472 16.1687 141.435 16.3659 141.359 16.5497C141.283 16.7334 141.169 16.8997 141.025 17.0384C140.894 17.1669 140.74 17.2706 140.572 17.3446C140.506 17.3684 140.446 17.4047 140.395 17.4515C140.344 17.4982 140.303 17.5546 140.275 17.6172C140.246 17.6797 140.23 17.7474 140.228 17.8161C140.225 17.8848 140.237 17.9533 140.262 18.0176L140.982 19.6911C141.008 19.7518 141.045 19.8069 141.093 19.8531C141.14 19.8993 141.196 19.9357 141.258 19.9602C141.319 19.9848 141.385 19.9969 141.452 19.9959C141.518 19.995 141.584 19.9809 141.645 19.9546C142.23 19.6835 142.769 19.323 143.241 18.8864C143.62 18.4926 143.919 18.031 144.123 17.5262C144.325 17.0354 144.429 16.5107 144.43 15.9809V8.50342C144.43 8.37121 144.483 8.24442 144.577 8.15093C144.672 8.05744 144.8 8.00492 144.934 8.00492H149.534C149.668 8.00492 149.796 8.05744 149.891 8.15093C149.985 8.24442 150.038 8.37121 150.038 8.50342V19.6697C150.038 19.9439 150.164 20.0792 150.42 20.0792H152.657C152.704 20.0802 152.75 20.0708 152.792 20.0517C152.835 20.0326 152.872 20.0043 152.902 19.9688C152.97 19.8882 153.005 19.7852 152.999 19.6804V5.67624C153.003 5.62276 152.993 5.56923 152.971 5.52024C152.949 5.47124 152.916 5.42825 152.873 5.39494Z" fill="white"/>
<path d="M16.7548 0.581079C15.6991 0.822325 14.6626 1.13887 13.6532 1.52822C22.0184 3.42375 29.4372 8.17932 34.6003 14.9556C38.7064 20.2883 41.2264 26.6474 41.8769 33.318C42.4207 32.334 42.8902 31.3117 43.2818 30.2594C42.4179 23.2402 39.4196 16.6453 34.6833 11.3463C29.9469 6.04721 23.6953 2.29346 16.7548 0.581079ZM6.26501 6.16779C5.53015 6.79901 4.85495 7.49503 4.24775 8.24724C1.83893 12.1321 0.408055 16.5314 0.0752231 21.0759C-0.257609 25.6205 0.517315 30.1776 2.33495 34.3649C2.56549 34.7601 2.95814 35.5328 3.20669 35.9066C3.62381 36.5065 4.12884 37.0417 4.70523 37.4947C4.83491 37.4947 4.96459 37.4947 5.09427 37.4947C9.71549 37.3334 14.2273 36.0614 18.2394 33.7888C22.2514 31.5162 25.6427 28.3115 28.1199 24.4519C28.6566 25.2887 29.1537 26.1468 29.6148 27.0156C28.4704 28.9346 27.0791 30.6987 25.4758 32.2641C23.0449 34.64 20.1609 36.5152 16.9912 37.7811C13.8215 39.0469 10.4291 39.6782 7.01067 39.6382H6.94223C7.95548 40.4833 9.04012 41.2409 10.1843 41.9028C16.5995 41.2593 22.5991 38.4663 27.1869 33.9874C28.5558 32.6554 29.7855 31.1905 30.8576 29.6149C31.2899 30.619 31.6789 31.6409 32.0175 32.6771C31.0211 34.1602 29.8719 35.5373 28.5882 36.7861C24.7636 40.5262 19.8513 42.9901 14.5394 43.8327C16.315 44.4156 18.1563 44.7803 20.022 44.9187C23.8822 43.5432 27.3946 41.3565 30.3172 38.5095C31.2285 37.6184 32.077 36.6666 32.8568 35.661C33.1343 36.8729 33.3483 38.0983 33.498 39.332C32.9397 39.9943 32.3525 40.6388 31.7221 41.2512C30.6523 42.2875 29.4954 43.2321 28.264 44.0749C30.175 43.5237 32.0058 42.7302 33.7106 41.7141V41.7355C34.2977 41.3794 34.8633 40.9949 35.418 40.5925L35.5729 40.4893C35.7278 40.3753 35.8863 40.2649 36.0376 40.1332C35.3655 32.9665 32.6707 26.1304 28.2604 20.4034C22.8261 13.2746 15.0483 8.24074 6.26501 6.16779ZM5.37165 35.0521C3.22324 30.9491 2.22207 26.3536 2.47158 21.7402C2.72109 17.1268 4.21223 12.663 6.79094 8.80982C7.59064 9.02703 8.38673 9.25847 9.16842 9.52196C7.0689 13.3774 5.89677 17.6593 5.74308 22.0351C5.58939 26.411 6.45829 30.7629 8.28227 34.753C7.3184 34.9058 6.3467 35.0057 5.37165 35.0521ZM10.703 34.2509C8.90034 30.5015 8.02892 26.3809 8.16112 22.2317C8.29332 18.0824 9.42531 14.0242 11.4631 10.3943C12.2736 10.7326 13.0697 11.1065 13.8477 11.491C12.3193 14.93 11.493 18.6335 11.4163 22.389C11.3397 26.1444 12.0142 29.8779 13.4011 33.375C12.519 33.7166 11.6182 34.009 10.703 34.2509ZM18.2677 30.9502C17.4245 31.4935 16.55 31.9881 15.6489 32.4314C13.1512 26.0557 13.2805 18.9664 16.0091 12.6839C16.8484 13.1823 17.6625 13.7093 18.4586 14.2755C16.7094 19.6901 16.6454 25.4992 18.2749 30.9502H18.2677ZM20.375 29.4582C19.1945 24.9911 19.248 20.2926 20.5299 15.8529C22.6822 17.6324 24.622 19.6489 26.3115 21.8633C26.416 21.9986 26.5133 22.1339 26.6141 22.2692C24.9928 25.0251 22.8717 27.4621 20.357 29.4582H20.375ZM42.9503 13.8624C42.4604 13.1254 41.6968 11.7901 41.1492 11.0815C38.3963 7.48524 35.0278 4.39301 31.1962 1.94482C28.2355 0.638563 25.0257 -0.0244101 21.7835 0.000686817C27.346 1.79283 32.358 4.94994 36.3507 9.17686C40.3435 13.4038 43.1867 18.5625 44.6146 24.1706C44.6753 23.3555 44.6922 22.5378 44.665 21.7209C44.5642 18.7157 44.1175 16.4582 42.9323 13.8624H42.9503ZM10.9119 2.82431C10.0576 3.29461 9.23352 3.81665 8.44437 4.38745C16.3538 6.2373 23.4835 10.4774 28.842 16.5182C34.2005 22.5589 37.5214 30.1001 38.3431 38.0929C38.974 37.4442 39.5658 36.7594 40.1154 36.042C39.3435 29.0879 36.6657 22.4741 32.3705 16.9139C27.0469 9.93073 19.4697 4.95468 10.8939 2.81007L10.9119 2.82431Z" fill="white"/>
<path d="M16.7548 0.581079C15.6991 0.822325 14.6626 1.13887 13.6532 1.52822C22.0184 3.42375 29.4372 8.17932 34.6003 14.9556C38.7064 20.2883 41.2264 26.6474 41.8769 33.318C42.4207 32.334 42.8902 31.3117 43.2818 30.2594C42.4179 23.2402 39.4196 16.6453 34.6833 11.3463C29.9469 6.04721 23.6953 2.29346 16.7548 0.581079ZM6.26501 6.16779C5.53015 6.79901 4.85495 7.49503 4.24775 8.24724C1.83893 12.1321 0.408055 16.5314 0.0752231 21.0759C-0.257609 25.6205 0.517315 30.1776 2.33495 34.3649C2.56549 34.7601 2.95814 35.5328 3.20669 35.9066C3.62381 36.5065 4.12884 37.0417 4.70523 37.4947C4.83491 37.4947 4.96459 37.4947 5.09427 37.4947C9.71549 37.3334 14.2273 36.0614 18.2394 33.7888C22.2514 31.5162 25.6427 28.3115 28.1199 24.4519C28.6566 25.2887 29.1537 26.1468 29.6148 27.0156C28.4704 28.9346 27.0791 30.6987 25.4758 32.2641C23.0449 34.64 20.1609 36.5152 16.9912 37.7811C13.8215 39.0469 10.4291 39.6782 7.01067 39.6382H6.94223C7.95548 40.4833 9.04012 41.2409 10.1843 41.9028C16.5995 41.2593 22.5991 38.4663 27.1869 33.9874C28.5558 32.6554 29.7855 31.1905 30.8576 29.6149C31.2899 30.619 31.6789 31.6409 32.0175 32.6771C31.0211 34.1602 29.8719 35.5373 28.5882 36.7861C24.7636 40.5262 19.8513 42.9901 14.5394 43.8327C16.315 44.4156 18.1563 44.7803 20.022 44.9187C23.8822 43.5432 27.3946 41.3565 30.3172 38.5095C31.2285 37.6184 32.077 36.6666 32.8568 35.661C33.1343 36.8729 33.3483 38.0983 33.498 39.332C32.9397 39.9943 32.3525 40.6388 31.7221 41.2512C30.6523 42.2875 29.4954 43.2321 28.264 44.0749C30.175 43.5237 32.0058 42.7302 33.7106 41.7141V41.7355C34.2977 41.3794 34.8633 40.9949 35.418 40.5925L35.5729 40.4893C35.7278 40.3753 35.8863 40.2649 36.0376 40.1332C35.3655 32.9665 32.6707 26.1304 28.2604 20.4034C22.8261 13.2746 15.0483 8.24074 6.26501 6.16779ZM5.37165 35.0521C3.22324 30.9491 2.22207 26.3536 2.47158 21.7402C2.72109 17.1268 4.21223 12.663 6.79094 8.80982C7.59064 9.02703 8.38673 9.25847 9.16842 9.52196C7.0689 13.3774 5.89677 17.6593 5.74308 22.0351C5.58939 26.411 6.45829 30.7629 8.28227 34.753C7.3184 34.9058 6.3467 35.0057 5.37165 35.0521ZM10.703 34.2509C8.90034 30.5015 8.02892 26.3809 8.16112 22.2317C8.29332 18.0824 9.42531 14.0242 11.4631 10.3943C12.2736 10.7326 13.0697 11.1065 13.8477 11.491C12.3193 14.93 11.493 18.6335 11.4163 22.389C11.3397 26.1444 12.0142 29.8779 13.4011 33.375C12.519 33.7166 11.6182 34.009 10.703 34.2509ZM18.2677 30.9502C17.4245 31.4935 16.55 31.9881 15.6489 32.4314C13.1512 26.0557 13.2805 18.9664 16.0091 12.6839C16.8484 13.1823 17.6625 13.7093 18.4586 14.2755C16.7094 19.6901 16.6454 25.4992 18.2749 30.9502H18.2677ZM20.375 29.4582C19.1945 24.9911 19.248 20.2926 20.5299 15.8529C22.6822 17.6324 24.622 19.6489 26.3115 21.8633C26.416 21.9986 26.5133 22.1339 26.6141 22.2692C24.9928 25.0251 22.8717 27.4621 20.357 29.4582H20.375ZM42.9503 13.8624C42.4604 13.1254 41.6968 11.7901 41.1492 11.0815C38.3963 7.48524 35.0278 4.39301 31.1962 1.94482C28.2355 0.638563 25.0257 -0.0244101 21.7835 0.000686817C27.346 1.79283 32.358 4.94994 36.3507 9.17686C40.3435 13.4038 43.1867 18.5625 44.6146 24.1706C44.6753 23.3555 44.6922 22.5378 44.665 21.7209C44.5642 18.7157 44.1175 16.4582 42.9323 13.8624H42.9503ZM10.9119 2.82431C10.0576 3.29461 9.23352 3.81665 8.44437 4.38745C16.3538 6.2373 23.4835 10.4774 28.842 16.5182C34.2005 22.5589 37.5214 30.1001 38.3431 38.0929C38.974 37.4442 39.5658 36.7594 40.1154 36.042C39.3435 29.0879 36.6657 22.4741 32.3705 16.9139C27.0469 9.93073 19.4697 4.95468 10.8939 2.81007L10.9119 2.82431Z" fill="white"/>
</svg>
