<svg width="88" height="88" viewBox="0 0 88 88" fill="none" xmlns="http://www.w3.org/2000/svg">
<mask id="mask0_4541_4540" style="mask-type:luminance" maskUnits="userSpaceOnUse" x="0" y="0" width="88" height="88">
<path d="M86.5 86.5V1.5H1.5V86.5H86.5Z" fill="white" stroke="white" stroke-width="3"/>
</mask>
<g mask="url(#mask0_4541_4540)">
<path d="M29.3394 35.3723C26.5175 36.115 23.3875 35.3803 21.1755 33.1682C18.4267 30.4194 17.9592 26.2532 19.773 23.0223" stroke="#A2845E" stroke-width="3" stroke-miterlimit="10" stroke-linecap="round" stroke-linejoin="round"/>
<path d="M24.1973 19.2257C27.2137 18.0987 30.7426 18.748 33.1681 21.1735C35.38 23.3856 36.1149 26.5152 35.3724 29.3369" stroke="#A2845E" stroke-width="3" stroke-miterlimit="10" stroke-linecap="round" stroke-linejoin="round"/>
<path d="M50.4937 23.5349H48.3434C47.8926 23.5349 47.5065 23.2185 47.4113 22.7778C46.8893 20.3553 45.9341 18.047 44.5917 15.964C44.3477 15.5855 44.3972 15.089 44.7158 14.7705L47.3862 12.1001C47.565 11.9213 47.6654 11.6788 47.6654 11.4259C47.6654 11.173 47.565 10.9305 47.3862 10.7517L43.5928 6.95827C43.414 6.7795 43.1715 6.67907 42.9186 6.67907C42.6657 6.67907 42.4232 6.7795 42.2444 6.95827L39.574 9.62869C39.2553 9.94718 38.759 9.99667 38.3803 9.75261C36.2973 8.41039 33.9891 7.4552 31.5667 6.933C31.126 6.83796 30.8096 6.45175 30.8096 6.00092V2.22191C30.8096 1.96905 30.7091 1.72655 30.5303 1.54776C30.3515 1.36896 30.109 1.26852 29.8562 1.26852H24.4913C24.3661 1.2685 24.2421 1.29314 24.1264 1.34104C24.0107 1.38895 23.9056 1.45918 23.8171 1.54771C23.7285 1.63625 23.6583 1.74136 23.6104 1.85704C23.5625 1.97272 23.5379 2.0967 23.5379 2.22191V6.00092C23.5379 6.45175 23.2215 6.83796 22.781 6.933C20.3585 7.45517 18.0502 8.41035 15.9671 9.75261C15.5885 9.99667 15.092 9.94718 14.7736 9.62869L12.1032 6.95827C11.9244 6.7795 11.6819 6.67907 11.429 6.67907C11.1762 6.67907 10.9337 6.7795 10.7549 6.95827L6.96141 10.7517C6.78263 10.9305 6.68221 11.173 6.68221 11.4259C6.68221 11.6788 6.78263 11.9213 6.96141 12.1001L9.63183 14.7705C9.95014 15.089 9.99981 15.5855 9.75575 15.9642C8.41339 18.0471 7.45819 20.3554 6.93614 22.7778C6.84092 23.2185 6.45489 23.5349 6.00406 23.5349H2.22487C2.09967 23.5349 1.9757 23.5596 1.86003 23.6075C1.74436 23.6554 1.63926 23.7256 1.55073 23.8142C1.4622 23.9027 1.39197 24.0078 1.34406 24.1235C1.29614 24.2391 1.27148 24.3631 1.27148 24.4883V29.8532C1.27153 30.1061 1.37199 30.3485 1.55078 30.5273C1.72956 30.7061 1.97203 30.8066 2.22487 30.8066H6.00406C6.45489 30.8066 6.84092 31.1229 6.93614 31.5635C7.45816 33.986 8.41335 36.2943 9.75575 38.3774C9.99981 38.756 9.95014 39.2524 9.63183 39.5709L6.96141 42.2413C6.78263 42.4201 6.68221 42.6626 6.68221 42.9155C6.68221 43.1683 6.78263 43.4108 6.96141 43.5896L10.7549 47.3831C10.9337 47.5619 11.1762 47.6623 11.429 47.6623C11.6819 47.6623 11.9244 47.5619 12.1032 47.3831L14.7736 44.7127C15.092 44.3942 15.5885 44.3447 15.9671 44.5888C18.0502 45.9311 20.3585 46.8863 22.781 47.4084C23.2215 47.5036 23.5379 47.8896 23.5379 48.3404V50.2168" stroke="#A2845E" stroke-width="3" stroke-miterlimit="10" stroke-linecap="round" stroke-linejoin="round"/>
<path d="M60.8753 60.8771C57.4536 64.2988 51.9058 64.2988 48.4841 60.8771C45.0626 57.4554 45.0626 51.9078 48.4841 48.4861C51.9058 45.0644 57.4536 45.0644 60.8753 48.4861C64.2968 51.9078 64.2968 57.4554 60.8753 60.8771Z" stroke="#A2845E" stroke-width="3" stroke-miterlimit="10" stroke-linecap="round" stroke-linejoin="round"/>
<path d="M40.6332 60.6504C38.2745 55.0943 39.3606 48.424 43.8905 43.8939C49.8489 37.9355 59.5092 37.9355 65.4675 43.8939C71.4258 49.8521 71.4258 59.5124 65.4675 65.4708C59.555 71.3833 49.9972 71.4286 44.0287 65.6071" stroke="#A2845E" stroke-width="3" stroke-miterlimit="10" stroke-linecap="round" stroke-linejoin="round"/>
<path d="M74.9955 79.6924L79.6894 74.9985C79.9106 74.7773 80.0348 74.4772 80.0348 74.1644C80.0348 73.8516 79.9106 73.5515 79.6894 73.3303L76.3853 70.0262C75.9912 69.6321 75.9298 69.0178 76.2318 68.5493C77.8927 65.9719 79.0746 63.1159 79.7205 60.1186C79.8384 59.5734 80.3161 59.1819 80.8738 59.1819H85.5498C85.7048 59.1819 85.8582 59.1514 86.0013 59.0921C86.1444 59.0328 86.2745 58.9459 86.384 58.8363C86.4936 58.7268 86.5805 58.5967 86.6398 58.4536C86.6991 58.3105 86.7296 58.1571 86.7296 58.0021V51.3642C86.7295 51.0513 86.6052 50.7513 86.384 50.5301C86.1627 50.3088 85.8627 50.1846 85.5498 50.1846H80.8738C80.3161 50.1846 79.8384 49.793 79.7205 49.2477C79.0745 46.2503 77.8927 43.3943 76.2318 40.8169C75.9298 40.3485 75.9912 39.7342 76.3853 39.3403L79.6894 36.036C79.9106 35.8148 80.0348 35.5147 80.0348 35.2019C80.0348 34.8891 79.9106 34.589 79.6894 34.3678L74.9955 29.6739C74.7743 29.4527 74.4742 29.3284 74.1614 29.3284C73.8485 29.3284 73.5485 29.4527 73.3273 29.6739L70.0232 32.9782C69.629 33.3721 69.0148 33.4335 68.5464 33.1317C65.969 31.4707 63.113 30.2888 60.1156 29.6428C59.5704 29.525 59.1789 29.0474 59.1789 28.4895V23.8135C59.1788 23.5006 59.0545 23.2006 58.8333 22.9794C58.612 22.7581 58.312 22.6339 57.9991 22.6339L51.3611 22.6337C51.2062 22.6337 51.0528 22.6642 50.9097 22.7235C50.7666 22.7828 50.6365 22.8697 50.527 22.9793C50.4175 23.0888 50.3306 23.2189 50.2713 23.362C50.212 23.5051 50.1815 23.6585 50.1816 23.8135V28.4895C50.1816 29.0474 49.79 29.525 49.2448 29.6428C46.2475 30.2888 43.3914 31.4707 40.814 33.1317C40.3455 33.4335 39.7312 33.3721 39.3371 32.9782L36.0332 29.6739C35.8119 29.4527 35.5119 29.3284 35.199 29.3284C34.8862 29.3284 34.5862 29.4527 34.3649 29.6739L29.671 34.3678C29.5615 34.4773 29.4746 34.6073 29.4153 34.7505C29.356 34.8936 29.3254 35.047 29.3254 35.2019C29.3254 35.3568 29.356 35.5102 29.4153 35.6533C29.4746 35.7964 29.5615 35.9265 29.671 36.036L32.9752 39.3403C33.3693 39.7342 33.4306 40.3485 33.1285 40.817C31.4676 43.3944 30.2858 46.2504 29.6397 49.2477C29.522 49.793 29.0442 50.1846 28.4865 50.1846H23.8104C23.4976 50.1846 23.1976 50.3089 22.9764 50.5301C22.7551 50.7513 22.6309 51.0513 22.6309 51.3642V58.0021C22.6308 58.1571 22.6613 58.3105 22.7206 58.4536C22.7799 58.5967 22.8668 58.7268 22.9763 58.8363C23.0858 58.9459 23.2159 59.0328 23.359 59.0921C23.5021 59.1514 23.6555 59.1819 23.8104 59.1819H28.4865C29.0442 59.1819 29.522 59.5734 29.6397 60.1186C30.2858 63.1159 31.4676 65.9719 33.1285 68.5493C33.4306 69.0178 33.3693 69.6321 32.9752 70.0262L29.671 73.3303C29.5615 73.4398 29.4746 73.5699 29.4153 73.713C29.356 73.8561 29.3254 74.0095 29.3254 74.1644C29.3254 74.3193 29.356 74.4727 29.4153 74.6158C29.4746 74.759 29.5615 74.889 29.671 74.9985L34.3649 79.6924C34.5862 79.9136 34.8862 80.0379 35.199 80.0379C35.5119 80.0379 35.8119 79.9136 36.0332 79.6924L39.3371 76.3881C39.7312 75.9942 40.3455 75.9328 40.814 76.2348C43.3914 77.8957 46.2475 79.0776 49.2448 79.7235C49.79 79.8414 50.1816 80.3191 50.1816 80.8768V85.5528C50.1815 85.7078 50.212 85.8612 50.2713 86.0043C50.3306 86.1474 50.4175 86.2774 50.527 86.387C50.6365 86.4965 50.7666 86.5834 50.9097 86.6427C51.0528 86.7019 51.2062 86.7324 51.3611 86.7324H57.9991C58.154 86.7324 58.3074 86.702 58.4505 86.6427C58.5937 86.5834 58.7237 86.4966 58.8333 86.3871C58.9428 86.2775 59.0297 86.1475 59.089 86.0044C59.1483 85.8613 59.1789 85.7079 59.1789 85.553V80.8768C59.1789 80.3191 59.5704 79.8414 60.1156 79.7235C63.1129 79.0775 65.969 77.8956 68.5464 76.2348C69.0148 75.9328 69.629 75.9942 70.0232 76.3881L73.3273 79.6924C73.5485 79.9136 73.8485 80.0379 74.1614 80.0379C74.4742 80.0379 74.7743 79.9136 74.9955 79.6924Z" stroke="#A2845E" stroke-width="3" stroke-miterlimit="10" stroke-linecap="round" stroke-linejoin="round"/>
</g>
</svg>
