<svg width="26" height="19" viewBox="0 0 26 19" fill="none" xmlns="http://www.w3.org/2000/svg">
<path d="M23.1068 0H2.22656C0.996362 0 0 1.01846 0 2.2619V15.8333C0 17.0842 1.00368 18.0952 2.22656 18.0952H23.1068C24.3267 18.0952 25.3333 17.0884 25.3333 15.8333V2.2619C25.3333 1.02067 24.3409 0 23.1068 0ZM22.795 1.50794L14.2411 10.1518C13.8205 10.579 13.2614 10.8143 12.6667 10.8143C12.0719 10.8143 11.5128 10.579 11.0909 10.1504L2.53838 1.50794H22.795ZM1.48438 15.5264V2.56978L7.89876 9.05164L1.48438 15.5264ZM2.53932 16.5873L8.95118 10.1151L10.0426 11.218C10.7436 11.9301 11.6755 12.3222 12.6667 12.3222C13.6579 12.3222 14.5898 11.9301 15.2893 11.2194L16.3822 10.1151L22.794 16.5873H2.53932ZM23.849 15.5264L17.4346 9.05164L23.849 2.56978V15.5264Z" fill="black"/>
<path d="M23.1068 0H2.22656C0.996362 0 0 1.01846 0 2.2619V15.8333C0 17.0842 1.00368 18.0952 2.22656 18.0952H23.1068C24.3267 18.0952 25.3333 17.0884 25.3333 15.8333V2.2619C25.3333 1.02067 24.3409 0 23.1068 0ZM22.795 1.50794L14.2411 10.1518C13.8205 10.579 13.2614 10.8143 12.6667 10.8143C12.0719 10.8143 11.5128 10.579 11.0909 10.1504L2.53838 1.50794H22.795ZM1.48438 15.5264V2.56978L7.89876 9.05164L1.48438 15.5264ZM2.53932 16.5873L8.95118 10.1151L10.0426 11.218C10.7436 11.9301 11.6755 12.3222 12.6667 12.3222C13.6579 12.3222 14.5898 11.9301 15.2893 11.2194L16.3822 10.1151L22.794 16.5873H2.53932ZM23.849 15.5264L17.4346 9.05164L23.849 2.56978V15.5264Z" fill="url(#paint0_linear_2214_704)"/>
<defs>
<linearGradient id="paint0_linear_2214_704" x1="12.0603" y1="4.04567e-08" x2="12.0603" y2="18.0952" gradientUnits="userSpaceOnUse">
<stop stop-color="#C7B498"/>
<stop offset="1" stop-color="#A38C6B"/>
</linearGradient>
</defs>
</svg>
