<svg width="71" height="39" viewBox="0 0 71 39" fill="none" xmlns="http://www.w3.org/2000/svg">
<path d="M54.8669 39H6.50928C4.78291 39 3.12725 38.2097 1.90652 36.8029C0.685797 35.3961 0 33.4881 0 31.4986V7.50138C0 5.51189 0.685797 3.60389 1.90652 2.1971C3.12725 0.790322 4.78291 0 6.50928 0H54.8669C55.7648 1.07729e-05 56.653 0.21409 57.4756 0.628777C58.2982 1.04346 59.0375 1.64979 59.6469 2.40964L69.2708 14.4083C70.3826 15.7944 71 17.6125 71 19.5C71 21.3875 70.3826 23.2056 69.2708 24.5917L59.6469 36.5904C59.0375 37.3502 58.2982 37.9565 57.4756 38.3712C56.653 38.7859 55.7648 39 54.8669 39Z" fill="#A2845E"/>
<path d="M21.6076 28L18.5936 16.846V28H16.4156V12.6H19.4516L21.9376 21.818V12.6H24.0936V28H21.6076ZM28.2463 14.8V19.09H31.5683V21.29H28.2463V25.8H32.4263V28H25.8263V12.6H32.4263V14.8H28.2463ZM40.1739 28L39.2939 19.794L38.4139 28H35.0919L33.3759 12.6H35.7299L37.0279 24.744L38.1939 12.6H40.5259L41.7359 24.832L42.9899 12.6H45.1019L43.3859 28H40.1739Z" fill="white"/>
</svg>
