<svg width="33" height="31" viewBox="0 0 33 31" fill="none" xmlns="http://www.w3.org/2000/svg">
<path d="M31 13.0526H25.6778C25.9506 12.7558 26.103 12.368 26.1053 11.9649V1.63158C26.1053 1.19886 25.9334 0.783859 25.6274 0.477878C25.3214 0.171898 24.9064 0 24.4737 0L14.1403 0C13.7248 0 13.3251 0.159351 13.0238 0.445421L8.01377 3.96419C7.73266 4.09491 7.49462 4.30302 7.3275 4.56414C7.16039 4.82526 7.07113 5.12858 7.07017 5.4386V13.0526C6.65467 13.0526 6.25493 13.212 5.95363 13.4981L0.943596 17.0168C0.662489 17.1475 0.424442 17.3556 0.25733 17.6168C0.0902174 17.8779 0.000956852 18.1812 0 18.4912L0 29.3684C0 29.8011 0.171898 30.2161 0.477878 30.5221C0.783859 30.8281 1.19886 31 1.63158 31H13.0526C13.4553 30.9986 13.843 30.8474 14.1403 30.5758C14.4378 30.8477 14.8256 30.9984 15.2281 31H26.6491C27.0902 31 27.5128 30.82 27.8184 30.5018L32.1465 26.1738C32.4565 25.8692 32.6316 25.4526 32.6316 25.0175V14.6842C32.6294 14.2522 32.4568 13.8384 32.1513 13.5329C31.8458 13.2274 31.4321 13.0548 31 13.0526ZM27.3746 17.0375C27.1501 16.9222 26.9015 16.8613 26.6491 16.8596H21.8816L24.6009 14.1404H30.6856L27.3746 17.0375ZM13.0526 16.8596H8.70175C8.55751 16.8596 8.41918 16.8024 8.31719 16.7004C8.21519 16.5984 8.15789 16.46 8.15789 16.3158V5.4386C8.15789 5.29436 8.21519 5.15602 8.31719 5.05403C8.41918 4.95204 8.55751 4.89474 8.70175 4.89474H20.1228C20.267 4.89474 20.4054 4.95204 20.5074 5.05403C20.6094 5.15602 20.6667 5.29436 20.6667 5.4386V16.3158C20.6671 16.4581 20.6114 16.5949 20.5117 16.6965L20.5008 16.7074C20.3995 16.8055 20.2638 16.8601 20.1228 16.8596H13.0526ZM21.6059 4.76747L25.0175 1.78223V11.9649C25.0172 12.0361 25.0025 12.1064 24.9745 12.1718C24.9465 12.2372 24.9056 12.2963 24.8544 12.3456L21.7544 15.4505V5.4386C21.7537 5.20681 21.7031 4.9779 21.6059 4.76747ZM20.8483 3.98486C20.6237 3.86959 20.3752 3.80868 20.1228 3.80702H16.2696L19.7655 1.08772H24.1593L20.8483 3.98486ZM13.6862 1.30961C13.7138 1.29028 13.7394 1.26843 13.7629 1.24435C13.8123 1.19448 13.8711 1.15494 13.9359 1.12805C14.0007 1.10115 14.0702 1.08744 14.1403 1.08772H17.9936L14.4977 3.80702H10.1305L13.6862 1.30961ZM6.61605 14.3622C6.64358 14.3429 6.66925 14.3211 6.69274 14.297C6.74209 14.2471 6.80089 14.2076 6.86569 14.1807C6.9305 14.1538 7.00001 14.1401 7.07017 14.1404V16.3158C7.07181 16.5012 7.10607 16.6856 7.17025 16.8596H3.0603L6.61605 14.3622ZM1.63158 29.9123C1.48734 29.9123 1.34901 29.855 1.24701 29.753C1.14502 29.651 1.08772 29.5127 1.08772 29.3684V18.4912C1.08772 18.347 1.14502 18.2087 1.24701 18.1067C1.34901 18.0047 1.48734 17.9474 1.63158 17.9474H13.0526C13.1969 17.9474 13.3352 18.0047 13.4372 18.1067C13.5392 18.2087 13.5965 18.347 13.5965 18.4912V29.3684C13.5965 29.5108 13.5406 29.6475 13.4409 29.7491L13.4312 29.7584C13.33 29.8573 13.1941 29.9125 13.0526 29.9123H1.63158ZM15.2281 29.9123C15.0838 29.9123 14.9455 29.855 14.8435 29.753C14.7415 29.651 14.6842 29.5127 14.6842 29.3684V18.4912C14.6842 18.347 14.7415 18.2087 14.8435 18.1067C14.9455 18.0047 15.0838 17.9474 15.2281 17.9474H26.6491C26.7934 17.9474 26.9317 18.0047 27.0337 18.1067C27.1357 18.2087 27.193 18.347 27.193 18.4912V29.3684C27.192 29.5074 27.1379 29.6407 27.0418 29.741L27.0298 29.7491L27.0222 29.7578C26.9223 29.8553 26.7887 29.9106 26.6491 29.9123H15.2281ZM31.3807 25.3982L28.2807 28.4982V18.4912C28.28 18.2594 28.2294 18.0305 28.1322 17.8201L31.5439 14.8349V25.0175C31.5435 25.0887 31.5288 25.159 31.5008 25.2244C31.4728 25.2898 31.4319 25.3489 31.3807 25.3982Z" fill="#A2845E"/>
<path d="M12.5091 12.5088H10.3337C10.0452 12.5088 9.76853 12.6234 9.56454 12.8274C9.36056 13.0314 9.24596 13.308 9.24596 13.5965V14.6842C9.24596 14.9727 9.36056 15.2494 9.56454 15.4534C9.76853 15.6573 10.0452 15.7719 10.3337 15.7719H12.5091C12.7976 15.7719 13.0743 15.6573 13.2782 15.4534C13.4822 15.2494 13.5968 14.9727 13.5968 14.6842V13.5965C13.5968 13.308 13.4822 13.0314 13.2782 12.8274C13.0743 12.6234 12.7976 12.5088 12.5091 12.5088ZM10.3337 14.6842V13.5965H12.5091V14.6842H10.3337ZM19.0354 12.5088H17.4039C17.2596 12.5088 17.1213 12.5661 17.0193 12.6681C16.9173 12.7701 16.86 12.9084 16.86 13.0526C16.86 13.1969 16.9173 13.3352 17.0193 13.4372C17.1213 13.5392 17.2596 13.5965 17.4039 13.5965H19.0354C19.1797 13.5965 19.318 13.5392 19.42 13.4372C19.522 13.3352 19.5793 13.1969 19.5793 13.0526C19.5793 12.9084 19.522 12.7701 19.42 12.6681C19.318 12.5661 19.1797 12.5088 19.0354 12.5088ZM19.0354 14.6842H17.4039C17.2596 14.6842 17.1213 14.7415 17.0193 14.8435C16.9173 14.9455 16.86 15.0838 16.86 15.2281C16.86 15.3723 16.9173 15.5107 17.0193 15.6127C17.1213 15.7146 17.2596 15.7719 17.4039 15.7719H19.0354C19.1797 15.7719 19.318 15.7146 19.42 15.6127C19.522 15.5107 19.5793 15.3723 19.5793 15.2281C19.5793 15.0838 19.522 14.9455 19.42 14.8435C19.318 14.7415 19.1797 14.6842 19.0354 14.6842ZM5.43894 25.5614H3.2635C2.97502 25.5614 2.69835 25.676 2.49437 25.88C2.29038 26.084 2.17578 26.3607 2.17578 26.6491V27.7369C2.17578 28.0253 2.29038 28.302 2.49437 28.506C2.69835 28.71 2.97502 28.8246 3.2635 28.8246H5.43894C5.72742 28.8246 6.00409 28.71 6.20807 28.506C6.41206 28.302 6.52666 28.0253 6.52666 27.7369V26.6491C6.52666 26.3607 6.41206 26.084 6.20807 25.88C6.00409 25.676 5.72742 25.5614 5.43894 25.5614ZM3.2635 27.7369V26.6491H5.43894V27.7369H3.2635ZM11.9653 25.5614H10.3337C10.1894 25.5614 10.0511 25.6187 9.94911 25.7207C9.84711 25.8227 9.78982 25.961 9.78982 26.1053C9.78982 26.2495 9.84711 26.3879 9.94911 26.4898C10.0511 26.5918 10.1894 26.6491 10.3337 26.6491H11.9653C12.1095 26.6491 12.2478 26.5918 12.3498 26.4898C12.4518 26.3879 12.5091 26.2495 12.5091 26.1053C12.5091 25.961 12.4518 25.8227 12.3498 25.7207C12.2478 25.6187 12.1095 25.5614 11.9653 25.5614ZM11.9653 27.7369H10.3337C10.1894 27.7369 10.0511 27.7942 9.94911 27.8962C9.84711 27.9981 9.78982 28.1365 9.78982 28.2807C9.78982 28.425 9.84711 28.5633 9.94911 28.6653C10.0511 28.7673 10.1894 28.8246 10.3337 28.8246H11.9653C12.1095 28.8246 12.2478 28.7673 12.3498 28.6653C12.4518 28.5633 12.5091 28.425 12.5091 28.2807C12.5091 28.1365 12.4518 27.9981 12.3498 27.8962C12.2478 27.7942 12.1095 27.7369 11.9653 27.7369ZM19.0354 25.5614H16.86C16.5715 25.5614 16.2948 25.676 16.0909 25.88C15.8869 26.084 15.7723 26.3607 15.7723 26.6491V27.7369C15.7723 28.0253 15.8869 28.302 16.0909 28.506C16.2948 28.71 16.5715 28.8246 16.86 28.8246H19.0354C19.3239 28.8246 19.6006 28.71 19.8046 28.506C20.0086 28.302 20.1231 28.0253 20.1231 27.7369V26.6491C20.1231 26.3607 20.0086 26.084 19.8046 25.88C19.6006 25.676 19.3239 25.5614 19.0354 25.5614ZM16.86 27.7369V26.6491H19.0354V27.7369H16.86ZM25.5617 25.5614H23.9302C23.7859 25.5614 23.6476 25.6187 23.5456 25.7207C23.4436 25.8227 23.3863 25.961 23.3863 26.1053C23.3863 26.2495 23.4436 26.3879 23.5456 26.4898C23.6476 26.5918 23.7859 26.6491 23.9302 26.6491H25.5617C25.706 26.6491 25.8443 26.5918 25.9463 26.4898C26.0483 26.3879 26.1056 26.2495 26.1056 26.1053C26.1056 25.961 26.0483 25.8227 25.9463 25.7207C25.8443 25.6187 25.706 25.5614 25.5617 25.5614ZM25.5617 27.7369H23.9302C23.7859 27.7369 23.6476 27.7942 23.5456 27.8962C23.4436 27.9981 23.3863 28.1365 23.3863 28.2807C23.3863 28.425 23.4436 28.5633 23.5456 28.6653C23.6476 28.7673 23.7859 28.8246 23.9302 28.8246H25.5617C25.706 28.8246 25.8443 28.7673 25.9463 28.6653C26.0483 28.5633 26.1056 28.425 26.1056 28.2807C26.1056 28.1365 26.0483 27.9981 25.9463 27.8962C25.8443 27.7942 25.706 27.7369 25.5617 27.7369Z" fill="#A2845E"/>
</svg>
