<svg width="42" height="48" viewBox="0 0 42 48" fill="none" xmlns="http://www.w3.org/2000/svg">
<path d="M39.9442 43.7825H37.8898V40.083C38.7341 39.8209 39.3507 39.015 39.3507 38.0637C39.3507 37.5239 39.1519 37.031 38.826 36.6574C39.152 36.2839 39.3507 35.791 39.3507 35.2512C39.3507 34.7114 39.1519 34.2184 38.826 33.8449C39.152 33.4714 39.3507 32.9785 39.3507 32.4386C39.3507 31.8988 39.1519 31.4059 38.826 31.0324C39.152 30.6589 39.3507 30.1659 39.3507 29.6261C39.3507 29.0863 39.1519 28.5933 38.826 28.2198C39.152 27.8463 39.3507 27.3534 39.3507 26.8136C39.3507 26.2738 39.1519 25.7808 38.826 25.4073C39.152 25.0338 39.3507 24.5409 39.3507 24.001C39.3507 23.4612 39.1519 22.9683 38.826 22.5948C39.152 22.2213 39.3507 21.7283 39.3507 21.1885C39.3507 20.6487 39.1519 20.1557 38.826 19.7822C39.152 19.4087 39.3507 18.9158 39.3507 18.376C39.3507 17.8361 39.1519 17.3432 38.826 16.9697C39.152 16.5962 39.3507 16.1033 39.3507 15.5634C39.3507 15.0236 39.1519 14.5307 38.826 14.1572C39.152 13.7837 39.3507 13.2907 39.3507 12.7509C39.3507 12.2111 39.1519 11.7181 38.826 11.3446C39.1642 10.9586 39.3511 10.4576 39.3507 9.93836C39.3507 8.98707 38.7341 8.18118 37.8898 7.91905V7.51648C37.8898 7.33 37.8177 7.15116 37.6893 7.01929C37.5608 6.88743 37.3867 6.81335 37.205 6.81335C37.0234 6.81335 36.8492 6.88743 36.7208 7.01929C36.5924 7.15116 36.5202 7.33 36.5202 7.51648V7.82896H15.7026C15.521 7.82896 15.3468 7.90304 15.2184 8.0349C15.0899 8.16676 15.0178 8.34561 15.0178 8.53209C15.0178 8.71857 15.0899 8.89742 15.2184 9.02928C15.3468 9.16114 15.521 9.23522 15.7026 9.23522H37.2963C37.674 9.23522 37.9811 9.5506 37.9811 9.93836C37.9811 10.3261 37.674 10.6415 37.2963 10.6415H9.72208C9.34444 10.6415 9.03729 10.3261 9.03729 9.93836C9.03729 9.5506 9.34444 9.23522 9.72208 9.23522H12.7808C12.9624 9.23522 13.1366 9.16114 13.265 9.02928C13.3935 8.89742 13.4656 8.71857 13.4656 8.53209C13.4656 8.34561 13.3935 8.16676 13.265 8.0349C13.1366 7.90304 12.9624 7.82896 12.7808 7.82896H10.4982V4.21954H36.5202V4.48513C36.5202 4.67162 36.5924 4.85046 36.7208 4.98232C36.8492 5.11419 37.0234 5.18827 37.205 5.18827C37.3867 5.18827 37.5608 5.11419 37.6893 4.98232C37.8177 4.85046 37.8898 4.67162 37.8898 4.48513V4.21954H39.9442C41.077 4.21954 41.9986 3.27331 41.9986 2.11013C41.9986 0.946963 41.077 0.000732422 39.9442 0.000732422H7.07422C5.9414 0.000732422 5.01985 0.946963 5.01985 2.11013C5.01985 3.27331 5.9414 4.21954 7.07422 4.21954H9.1286V7.91905C8.2843 8.18118 7.66771 8.98707 7.66771 9.93836C7.66771 10.4782 7.86648 10.9711 8.19244 11.3446C7.86639 11.7181 7.66771 12.2111 7.66771 12.7509C7.66771 13.2907 7.86648 13.7837 8.19244 14.1572C7.86639 14.5307 7.66771 15.0236 7.66771 15.5634C7.66771 16.1033 7.86648 16.5962 8.19244 16.9697C7.86639 17.3432 7.66771 17.8361 7.66771 18.376C7.66771 18.9158 7.86648 19.4087 8.19244 19.7822C7.86639 20.1557 7.66771 20.6487 7.66771 21.1885C7.66771 21.7283 7.86648 22.2213 8.19244 22.5948C7.86639 22.9683 7.66771 23.4612 7.66771 24.001C7.66771 24.5409 7.86648 25.0338 8.19244 25.4073C7.85427 25.7934 7.66734 26.2943 7.66771 26.8136C7.66771 27.06 7.70953 27.2967 7.78549 27.5167H2.05242C0.919593 27.5167 -0.00195312 28.4629 -0.00195312 29.6261C-0.00195312 30.7893 0.919593 31.7355 2.05242 31.7355H7.78549C7.70743 31.9613 7.66759 32.1991 7.66771 32.4386C7.66771 32.9785 7.86648 33.4714 8.19244 33.8449C7.86639 34.2184 7.66771 34.7114 7.66771 35.2512C7.66771 35.791 7.86648 36.2839 8.19244 36.6574C7.85427 37.0435 7.66734 37.5445 7.66771 38.0637C7.66771 39.015 8.2843 39.8209 9.1286 40.083V43.7825H7.07422C5.9414 43.7825 5.01985 44.7288 5.01985 45.8919C5.01985 47.0551 5.9414 48.0013 7.07422 48.0013H39.9442C41.077 48.0013 41.9986 47.0551 41.9986 45.8919C41.9986 44.7288 41.077 43.7825 39.9442 43.7825ZM7.07422 2.81327C6.69658 2.81327 6.38943 2.49789 6.38943 2.11013C6.38943 1.72238 6.69658 1.407 7.07422 1.407H39.9442C40.3218 1.407 40.629 1.72238 40.629 2.11013C40.629 2.49789 40.3218 2.81327 39.9442 2.81327H7.07422ZM37.2963 33.1418H9.72208C9.34444 33.1418 9.03729 32.8264 9.03729 32.4386C9.03729 32.0509 9.34444 31.7355 9.72208 31.7355H37.2963C37.674 31.7355 37.9811 32.0509 37.9811 32.4386C37.9811 32.8264 37.674 33.1418 37.2963 33.1418ZM37.9811 35.2512C37.9811 35.6389 37.674 35.9543 37.2963 35.9543H9.72208C9.34444 35.9543 9.03729 35.6389 9.03729 35.2512C9.03729 34.8634 9.34444 34.548 9.72208 34.548H37.2963C37.674 34.548 37.9811 34.8634 37.9811 35.2512ZM9.72208 12.0478H37.2963C37.674 12.0478 37.9811 12.3631 37.9811 12.7509C37.9811 13.1386 37.674 13.454 37.2963 13.454H9.72208C9.34444 13.454 9.03729 13.1386 9.03729 12.7509C9.03729 12.3631 9.34444 12.0478 9.72208 12.0478ZM9.72208 14.8603H37.2963C37.674 14.8603 37.9811 15.1757 37.9811 15.5634C37.9811 15.9512 37.674 16.2666 37.2963 16.2666H9.72208C9.34444 16.2666 9.03729 15.9512 9.03729 15.5634C9.03729 15.1757 9.34444 14.8603 9.72208 14.8603ZM9.72208 17.6728H37.2963C37.674 17.6728 37.9811 17.9882 37.9811 18.376C37.9811 18.7637 37.674 19.0791 37.2963 19.0791H9.72208C9.34444 19.0791 9.03729 18.7637 9.03729 18.376C9.03729 17.9882 9.34444 17.6728 9.72208 17.6728ZM9.72208 20.4854H37.2963C37.674 20.4854 37.9811 20.8007 37.9811 21.1885C37.9811 21.5763 37.674 21.8916 37.2963 21.8916H9.72208C9.34444 21.8916 9.03729 21.5763 9.03729 21.1885C9.03729 20.8007 9.34444 20.4854 9.72208 20.4854ZM9.72208 23.2979H37.2963C37.674 23.2979 37.9811 23.6133 37.9811 24.001C37.9811 24.3888 37.674 24.7042 37.2963 24.7042H9.72208C9.34444 24.7042 9.03729 24.3888 9.03729 24.001C9.03729 23.6133 9.34444 23.2979 9.72208 23.2979ZM9.72208 26.1104H37.2963C37.674 26.1104 37.9811 26.4258 37.9811 26.8136C37.9811 27.2013 37.674 27.5167 37.2963 27.5167H9.72208C9.34444 27.5167 9.03729 27.2013 9.03729 26.8136C9.03729 26.4258 9.34444 26.1104 9.72208 26.1104ZM2.05242 30.3292C1.67478 30.3292 1.36763 30.0139 1.36763 29.6261C1.36763 29.2384 1.67478 28.923 2.05242 28.923H37.2963C37.674 28.923 37.9811 29.2384 37.9811 29.6261C37.9811 30.0139 37.674 30.3292 37.2963 30.3292H2.05242ZM9.03729 38.0637C9.03729 37.676 9.34444 37.3606 9.72208 37.3606H37.2963C37.674 37.3606 37.9811 37.676 37.9811 38.0637C37.9811 38.4515 37.674 38.7668 37.2963 38.7668H33.2637C33.082 38.7668 32.9079 38.8409 32.7794 38.9728C32.651 39.1047 32.5789 39.2835 32.5789 39.47C32.5789 39.6565 32.651 39.8353 32.7794 39.9672C32.9079 40.099 33.082 40.1731 33.2637 40.1731H36.5202V43.7825H10.4982V40.1731H30.3115C30.4931 40.1731 30.6673 40.099 30.7957 39.9672C30.9241 39.8353 30.9963 39.6565 30.9963 39.47C30.9963 39.2835 30.9241 39.1047 30.7957 38.9728C30.6673 38.8409 30.4931 38.7668 30.3115 38.7668H9.72208C9.34444 38.7668 9.03729 38.4515 9.03729 38.0637ZM39.9442 46.5951H7.07422C6.69658 46.5951 6.38943 46.2797 6.38943 45.8919C6.38943 45.5042 6.69658 45.1888 7.07422 45.1888H39.9442C40.3218 45.1888 40.629 45.5042 40.629 45.8919C40.629 46.2797 40.3218 46.5951 39.9442 46.5951Z" fill="#A2845E"/>
</svg>
