<svg width="87" height="118" viewBox="0 0 87 118" fill="none" xmlns="http://www.w3.org/2000/svg">
<path d="M83.9248 37.0152L78.3847 30.2937C77.6258 29.3758 77.1601 28.2512 77.0479 27.0655L76.2125 18.3949C75.7785 13.8902 72.1936 10.3053 67.6887 9.87134L59.0183 9.03682C57.8328 8.92386 56.7083 8.45827 55.7899 7.70012L49.0686 2.15855C45.5766 -0.719516 40.5073 -0.719516 37.0152 2.15855L30.2934 7.69988C29.3753 8.4583 28.2508 8.92393 27.0653 9.03659L18.3947 9.87134C13.8902 10.3053 10.3065 13.8902 9.87134 18.3949L9.03682 27.0653C8.92386 28.2508 8.45827 29.3753 7.70012 30.2937L2.15855 37.0152C-0.719516 40.5075 -0.719516 45.5768 2.15855 49.0688L7.69966 55.7902C8.45781 56.7085 8.9234 57.833 9.03636 59.0185L9.87111 67.6889C10.3051 72.1939 13.89 75.7778 18.3947 76.2127L23.6947 76.723L11.1027 106.812C10.935 107.21 10.8837 107.648 10.9549 108.074C11.0262 108.499 11.217 108.896 11.5051 109.218C12.0947 109.882 12.9905 110.144 13.842 109.902L24.7668 106.818C24.7884 106.811 24.8116 106.812 24.8326 106.821C24.8535 106.829 24.871 106.844 24.8821 106.864L30.3529 116.812C30.5488 117.172 30.8387 117.473 31.1917 117.682C31.5447 117.891 31.9477 118.001 32.358 117.999C32.3974 117.999 32.437 117.998 32.4776 117.996C33.3626 117.951 34.1277 117.417 34.478 116.592L47.772 84.8218C48.2288 84.5597 48.6628 84.2598 49.0695 83.9253L55.7906 78.3849C56.6369 77.6869 57.6598 77.2367 58.7461 77.0841L70.7871 105.856L62.2663 103.45C61.4839 103.227 60.6489 103.276 59.8983 103.59C59.1477 103.904 58.5262 104.464 58.1359 105.178L53.8695 112.935L48.2168 99.4267C48.0376 98.9985 47.6956 98.659 47.2661 98.4829C46.8366 98.3068 46.3547 98.3086 45.9264 98.4878C45.7145 98.5764 45.5221 98.706 45.3602 98.869C45.1984 99.0321 45.0702 99.2254 44.9831 99.438C44.896 99.6506 44.8516 99.8783 44.8526 100.108C44.8535 100.338 44.8996 100.565 44.9884 100.777L51.6097 116.601C51.7765 116.999 52.0527 117.341 52.4062 117.588C52.7596 117.835 53.1759 117.976 53.6067 117.996C53.6471 117.998 53.6867 118 53.7266 118C54.1368 118.001 54.5398 117.891 54.8927 117.682C55.2456 117.473 55.5353 117.172 55.7312 116.812L61.2013 106.865C61.2124 106.846 61.2298 106.83 61.2507 106.822C61.2716 106.813 61.2948 106.812 61.3165 106.818L72.2393 109.902C72.6539 110.021 73.0939 110.02 73.508 109.899C73.9221 109.778 74.2933 109.542 74.5783 109.218C75.1678 108.554 75.3217 107.633 74.9797 106.811L62.3887 76.7221L67.6885 76.2118C72.1934 75.7778 75.7783 72.1938 76.2123 67.6891L77.0477 59.0176C77.1611 57.8284 77.6239 56.713 78.3844 55.7902L83.9248 49.0688C86.8038 45.5768 86.8038 40.5072 83.9248 37.0152ZM32.2151 112.935L27.9477 105.175C27.5573 104.462 26.9356 103.902 26.185 103.589C25.4344 103.275 24.5995 103.226 23.8173 103.45L15.2972 105.854L27.3372 77.0839C28.4237 77.2363 29.4469 77.6862 30.2937 78.3837L37.015 83.9248C38.7617 85.3643 40.9016 86.0838 43.0424 86.0838C43.18 86.0838 43.3169 86.0801 43.4547 86.0739L32.2151 112.935ZM81.2251 46.8432L75.6847 53.5646C74.4815 55.0199 73.7427 56.8027 73.5638 58.6825L72.7295 67.3529C72.4557 70.1941 70.195 72.4547 67.3538 72.7283L59.7376 73.4621C59.7079 73.464 59.6772 73.4667 59.6477 73.4711L58.6834 73.5637C56.8035 73.7426 55.0204 74.4812 53.5646 75.684L46.8432 81.2242C44.6411 83.0401 41.4434 83.0401 39.2415 81.2242L32.52 75.6838C31.0644 74.4807 29.2813 73.7422 27.4013 73.5637L26.4324 73.4702C26.4059 73.4669 26.3792 73.4645 26.3525 73.463L18.7309 72.7283C15.8895 72.4547 13.6291 70.1941 13.3553 67.3529L12.521 58.6834C12.3422 56.8033 11.6033 55.0201 10.3998 53.5646L4.85939 46.8432C3.04377 44.6402 3.04377 41.4425 4.85939 39.2406L10.3998 32.5193C11.6032 31.0637 12.342 29.2805 12.5208 27.4004L13.3555 18.73C13.6293 15.8886 15.8897 13.6282 18.7309 13.3544L27.4015 12.5201C29.2814 12.3412 31.0644 11.6026 32.5202 10.3998L39.2418 4.85939C40.3427 3.95204 41.693 3.49733 43.0426 3.49733C44.3922 3.49733 45.7425 3.95135 46.8435 4.85939L53.5648 10.3998C55.0203 11.6029 56.8035 12.3416 58.6834 12.5201L67.3541 13.3544C70.1953 13.6282 72.4559 15.8886 72.7295 18.73L73.564 27.4002C73.7427 29.2804 74.4815 31.0637 75.685 32.5193L81.2254 39.2406C83.0401 41.4434 83.0401 44.6404 81.2254 46.8432H81.2251Z" fill="#A2845E"/>
<path d="M83.9248 37.0152L78.3847 30.2937C77.6258 29.3758 77.1601 28.2512 77.0479 27.0655L76.2125 18.3949C75.7785 13.8902 72.1936 10.3053 67.6887 9.87134L59.0183 9.03682C57.8328 8.92386 56.7083 8.45827 55.7899 7.70012L49.0686 2.15855C45.5766 -0.719516 40.5073 -0.719516 37.0152 2.15855L30.2934 7.69988C29.3753 8.4583 28.2508 8.92393 27.0653 9.03659L18.3947 9.87134C13.8902 10.3053 10.3065 13.8902 9.87134 18.3949L9.03682 27.0653C8.92386 28.2508 8.45827 29.3753 7.70012 30.2937L2.15855 37.0152C-0.719516 40.5075 -0.719516 45.5768 2.15855 49.0688L7.69966 55.7902C8.45781 56.7085 8.9234 57.833 9.03636 59.0185L9.87111 67.6889C10.3051 72.1939 13.89 75.7778 18.3947 76.2127L23.6947 76.723L11.1027 106.812C10.935 107.21 10.8837 107.648 10.9549 108.074C11.0262 108.499 11.217 108.896 11.5051 109.218C12.0947 109.882 12.9905 110.144 13.842 109.902L24.7668 106.818C24.7884 106.811 24.8116 106.812 24.8326 106.821C24.8535 106.829 24.871 106.844 24.8821 106.864L30.3529 116.812C30.5488 117.172 30.8387 117.473 31.1917 117.682C31.5447 117.891 31.9477 118.001 32.358 117.999C32.3974 117.999 32.437 117.998 32.4776 117.996C33.3626 117.951 34.1277 117.417 34.478 116.592L47.772 84.8218C48.2288 84.5597 48.6628 84.2598 49.0695 83.9253L55.7906 78.3849C56.6369 77.6869 57.6598 77.2367 58.7461 77.0841L70.7871 105.856L62.2663 103.45C61.4839 103.227 60.6489 103.276 59.8983 103.59C59.1477 103.904 58.5262 104.464 58.1359 105.178L53.8695 112.935L48.2168 99.4267C48.0376 98.9985 47.6956 98.659 47.2661 98.4829C46.8366 98.3068 46.3547 98.3086 45.9264 98.4878C45.7145 98.5764 45.5221 98.706 45.3602 98.869C45.1984 99.0321 45.0702 99.2254 44.9831 99.438C44.896 99.6506 44.8516 99.8783 44.8526 100.108C44.8535 100.338 44.8996 100.565 44.9884 100.777L51.6097 116.601C51.7765 116.999 52.0527 117.341 52.4062 117.588C52.7596 117.835 53.1759 117.976 53.6067 117.996C53.6471 117.998 53.6867 118 53.7266 118C54.1368 118.001 54.5398 117.891 54.8927 117.682C55.2456 117.473 55.5353 117.172 55.7312 116.812L61.2013 106.865C61.2124 106.846 61.2298 106.83 61.2507 106.822C61.2716 106.813 61.2948 106.812 61.3165 106.818L72.2393 109.902C72.6539 110.021 73.0939 110.02 73.508 109.899C73.9221 109.778 74.2933 109.542 74.5783 109.218C75.1678 108.554 75.3217 107.633 74.9797 106.811L62.3887 76.7221L67.6885 76.2118C72.1934 75.7778 75.7783 72.1938 76.2123 67.6891L77.0477 59.0176C77.1611 57.8284 77.6239 56.713 78.3844 55.7902L83.9248 49.0688C86.8038 45.5768 86.8038 40.5072 83.9248 37.0152ZM32.2151 112.935L27.9477 105.175C27.5573 104.462 26.9356 103.902 26.185 103.589C25.4344 103.275 24.5995 103.226 23.8173 103.45L15.2972 105.854L27.3372 77.0839C28.4237 77.2363 29.4469 77.6862 30.2937 78.3837L37.015 83.9248C38.7617 85.3643 40.9016 86.0838 43.0424 86.0838C43.18 86.0838 43.3169 86.0801 43.4547 86.0739L32.2151 112.935ZM81.2251 46.8432L75.6847 53.5646C74.4815 55.0199 73.7427 56.8027 73.5638 58.6825L72.7295 67.3529C72.4557 70.1941 70.195 72.4547 67.3538 72.7283L59.7376 73.4621C59.7079 73.464 59.6772 73.4667 59.6477 73.4711L58.6834 73.5637C56.8035 73.7426 55.0204 74.4812 53.5646 75.684L46.8432 81.2242C44.6411 83.0401 41.4434 83.0401 39.2415 81.2242L32.52 75.6838C31.0644 74.4807 29.2813 73.7422 27.4013 73.5637L26.4324 73.4702C26.4059 73.4669 26.3792 73.4645 26.3525 73.463L18.7309 72.7283C15.8895 72.4547 13.6291 70.1941 13.3553 67.3529L12.521 58.6834C12.3422 56.8033 11.6033 55.0201 10.3998 53.5646L4.85939 46.8432C3.04377 44.6402 3.04377 41.4425 4.85939 39.2406L10.3998 32.5193C11.6032 31.0637 12.342 29.2805 12.5208 27.4004L13.3555 18.73C13.6293 15.8886 15.8897 13.6282 18.7309 13.3544L27.4015 12.5201C29.2814 12.3412 31.0644 11.6026 32.5202 10.3998L39.2418 4.85939C40.3427 3.95204 41.693 3.49733 43.0426 3.49733C44.3922 3.49733 45.7425 3.95135 46.8435 4.85939L53.5648 10.3998C55.0203 11.6029 56.8035 12.3416 58.6834 12.5201L67.3541 13.3544C70.1953 13.6282 72.4559 15.8886 72.7295 18.73L73.564 27.4002C73.7427 29.2804 74.4815 31.0637 75.685 32.5193L81.2254 39.2406C83.0401 41.4434 83.0401 44.6404 81.2254 46.8432H81.2251Z" fill="url(#paint0_linear_4541_1004)"/>
<path d="M43.0418 15.708C41.8734 15.708 40.6975 15.7818 39.5452 15.9295C39.085 15.9884 38.6671 16.2277 38.3833 16.5947C38.0995 16.9617 37.973 17.4264 38.0317 17.8866C38.1543 18.8454 39.0319 19.5225 39.9891 19.4008C40.9937 19.2722 42.0209 19.2072 43.0418 19.2072C56.1847 19.2072 66.8772 29.8997 66.8772 43.0428C66.8772 56.1857 56.1838 66.8773 43.0418 66.8773C29.8988 66.8773 19.2064 56.1848 19.2064 43.0419C19.2064 33.6674 24.734 25.1284 33.2882 21.2869C33.4979 21.1929 33.687 21.0584 33.8446 20.8913C34.0023 20.7242 34.1255 20.5276 34.2072 20.3128C34.2889 20.098 34.3275 19.8693 34.3208 19.6396C34.314 19.4099 34.2621 19.1838 34.1679 18.9742C34.0739 18.7646 33.9394 18.5755 33.7723 18.4179C33.6051 18.2602 33.4085 18.137 33.1938 18.0553C32.979 17.9737 32.7502 17.9351 32.5206 17.9419C32.2909 17.9486 32.0648 18.0006 31.8552 18.0947C22.0449 22.4997 15.707 32.2917 15.707 43.0419C15.707 58.1149 27.9695 70.3765 43.0418 70.3765C58.1139 70.3765 70.3764 58.1149 70.3764 43.0419C70.3764 27.9696 58.1139 15.708 43.0418 15.708Z" fill="#A2845E"/>
<path d="M43.0418 15.708C41.8734 15.708 40.6975 15.7818 39.5452 15.9295C39.085 15.9884 38.6671 16.2277 38.3833 16.5947C38.0995 16.9617 37.973 17.4264 38.0317 17.8866C38.1543 18.8454 39.0319 19.5225 39.9891 19.4008C40.9937 19.2722 42.0209 19.2072 43.0418 19.2072C56.1847 19.2072 66.8772 29.8997 66.8772 43.0428C66.8772 56.1857 56.1838 66.8773 43.0418 66.8773C29.8988 66.8773 19.2064 56.1848 19.2064 43.0419C19.2064 33.6674 24.734 25.1284 33.2882 21.2869C33.4979 21.1929 33.687 21.0584 33.8446 20.8913C34.0023 20.7242 34.1255 20.5276 34.2072 20.3128C34.2889 20.098 34.3275 19.8693 34.3208 19.6396C34.314 19.4099 34.2621 19.1838 34.1679 18.9742C34.0739 18.7646 33.9394 18.5755 33.7723 18.4179C33.6051 18.2602 33.4085 18.137 33.1938 18.0553C32.979 17.9737 32.7502 17.9351 32.5206 17.9419C32.2909 17.9486 32.0648 18.0006 31.8552 18.0947C22.0449 22.4997 15.707 32.2917 15.707 43.0419C15.707 58.1149 27.9695 70.3765 43.0418 70.3765C58.1139 70.3765 70.3764 58.1149 70.3764 43.0419C70.3764 27.9696 58.1139 15.708 43.0418 15.708Z" fill="url(#paint1_linear_4541_1004)"/>
<path d="M25.6641 41.0149C23.5781 43.1007 23.5781 46.4957 25.6641 48.5816L33.3064 56.2249C33.8022 56.7231 34.3919 57.118 35.0413 57.3869C35.6908 57.6558 36.3871 57.7933 37.09 57.7914C37.7929 57.7932 38.4892 57.6557 39.1387 57.3869C39.7881 57.118 40.3779 56.723 40.8738 56.2249L57.5566 39.5413C59.6426 37.4545 59.6426 34.0604 57.5566 31.9735C55.4709 29.8877 52.0759 29.8877 49.989 31.9735L37.09 44.8734L33.2306 41.0149C31.1448 38.9292 27.7503 38.9292 25.6641 41.0149ZM37.0902 49.0984C37.32 49.0983 37.5475 49.0529 37.7597 48.9649C37.9719 48.8769 38.1647 48.7479 38.3271 48.5853L52.464 34.4485C53.1858 33.7264 54.3598 33.7271 55.0819 34.4485C55.8039 35.1703 55.8039 36.3452 55.0819 37.0663L38.399 53.7499C38.2275 53.9223 38.0234 54.0589 37.7988 54.152C37.5741 54.245 37.3332 54.2926 37.09 54.2919C36.8468 54.2927 36.6058 54.2452 36.3811 54.1522C36.1564 54.0592 35.9524 53.9225 35.7809 53.7501L28.1379 46.1078C27.4166 45.3858 27.4166 44.2108 28.1379 43.4897C28.3098 43.3176 28.514 43.1811 28.7388 43.0882C28.9635 42.9952 29.2044 42.9475 29.4477 42.9479C29.6906 42.9475 29.9312 42.9951 30.1556 43.088C30.3801 43.1808 30.5841 43.317 30.7558 43.4888L35.8521 48.5851C36.0146 48.7478 36.2076 48.8768 36.42 48.9649C36.6324 49.053 36.86 49.0983 37.09 49.0984H37.0902Z" fill="#A2845E"/>
<path d="M25.6641 41.0149C23.5781 43.1007 23.5781 46.4957 25.6641 48.5816L33.3064 56.2249C33.8022 56.7231 34.3919 57.118 35.0413 57.3869C35.6908 57.6558 36.3871 57.7933 37.09 57.7914C37.7929 57.7932 38.4892 57.6557 39.1387 57.3869C39.7881 57.118 40.3779 56.723 40.8738 56.2249L57.5566 39.5413C59.6426 37.4545 59.6426 34.0604 57.5566 31.9735C55.4709 29.8877 52.0759 29.8877 49.989 31.9735L37.09 44.8734L33.2306 41.0149C31.1448 38.9292 27.7503 38.9292 25.6641 41.0149ZM37.0902 49.0984C37.32 49.0983 37.5475 49.0529 37.7597 48.9649C37.9719 48.8769 38.1647 48.7479 38.3271 48.5853L52.464 34.4485C53.1858 33.7264 54.3598 33.7271 55.0819 34.4485C55.8039 35.1703 55.8039 36.3452 55.0819 37.0663L38.399 53.7499C38.2275 53.9223 38.0234 54.0589 37.7988 54.152C37.5741 54.245 37.3332 54.2926 37.09 54.2919C36.8468 54.2927 36.6058 54.2452 36.3811 54.1522C36.1564 54.0592 35.9524 53.9225 35.7809 53.7501L28.1379 46.1078C27.4166 45.3858 27.4166 44.2108 28.1379 43.4897C28.3098 43.3176 28.514 43.1811 28.7388 43.0882C28.9635 42.9952 29.2044 42.9475 29.4477 42.9479C29.6906 42.9475 29.9312 42.9951 30.1556 43.088C30.3801 43.1808 30.5841 43.317 30.7558 43.4888L35.8521 48.5851C36.0146 48.7478 36.2076 48.8768 36.42 48.9649C36.6324 49.053 36.86 49.0983 37.09 49.0984H37.0902Z" fill="url(#paint2_linear_4541_1004)"/>
<defs>
<linearGradient id="paint0_linear_4541_1004" x1="40.9815" y1="2.6382e-07" x2="40.9815" y2="118" gradientUnits="userSpaceOnUse">
<stop stop-color="#C7B498"/>
<stop offset="1" stop-color="#A38C6B"/>
</linearGradient>
<linearGradient id="paint1_linear_4541_1004" x1="41.7332" y1="15.708" x2="41.7332" y2="70.3765" gradientUnits="userSpaceOnUse">
<stop stop-color="#C7B498"/>
<stop offset="1" stop-color="#A38C6B"/>
</linearGradient>
<linearGradient id="paint2_linear_4541_1004" x1="40.7721" y1="30.4092" x2="40.7721" y2="57.7914" gradientUnits="userSpaceOnUse">
<stop stop-color="#C7B498"/>
<stop offset="1" stop-color="#A38C6B"/>
</linearGradient>
</defs>
</svg>
