<svg width="27" height="18" viewBox="0 0 27 18" fill="none" xmlns="http://www.w3.org/2000/svg">
<path fill-rule="evenodd" clip-rule="evenodd" d="M25.1412 9.49734C22.789 13.6887 18.328 16.2924 13.5016 16.2924C8.672 16.2924 4.21108 13.6887 1.85876 9.49734C1.67759 9.17188 1.67759 8.82784 1.85876 8.50266C4.21108 4.31133 8.672 1.7079 13.5016 1.7079C18.328 1.7079 22.7889 4.31133 25.1412 8.50266C25.3256 8.82784 25.3256 9.17188 25.1412 9.49734ZM26.6439 7.67165C23.9885 2.93939 18.9528 0 13.5016 0C8.04719 0 3.01146 2.93939 0.356128 7.67165C-0.118709 8.516 -0.118709 9.48401 0.356128 10.3277C3.01146 15.06 8.04719 18 13.5016 18C18.9528 18 23.9885 15.06 26.6439 10.3277C27.1187 9.48406 27.1187 8.516 26.6439 7.67165ZM13.5016 12.5034C15.4478 12.5034 17.0316 10.9319 17.0316 8.99986C17.0316 7.06785 15.4478 5.49633 13.5016 5.49633C11.5522 5.49633 9.96841 7.06785 9.96841 8.99986C9.96841 10.9319 11.5523 12.5034 13.5016 12.5034ZM13.5016 3.78843C10.6025 3.78843 8.24715 6.12651 8.24715 8.99992C8.24715 11.8739 10.6026 14.2111 13.5016 14.2111C16.3975 14.2111 18.7529 11.8739 18.7529 8.99992C18.7529 6.12651 16.3975 3.78843 13.5016 3.78843Z" fill="#3F3C39" fillOpacity="0.5"/>
</svg>
