<svg width="21" height="19" viewBox="0 0 21 19" fill="none" xmlns="http://www.w3.org/2000/svg">
<path d="M20.0286 1.38523C19.7857 1.07543 19.421 0.904785 19.0018 0.904785C18.7756 0.904785 18.5359 0.953969 18.2895 1.05092L1.4377 7.68262C0.541678 8.0353 0.421079 8.56618 0.428932 8.85123C0.436747 9.13486 0.584911 9.65391 1.4868 9.95354L5.06065 11.3138L6.94417 15.7919C7.13351 16.4113 7.52913 16.8458 8.03408 16.9867C8.14983 17.019 8.26918 17.0353 8.38903 17.0352C8.79912 17.0352 9.219 16.8476 9.58161 16.4939L11.1421 14.9711L14.9496 17.6931C15.2925 17.9563 15.6656 18.0953 16.0294 18.0953C16.7679 18.0952 17.3568 17.5338 17.5299 16.6649L20.286 2.81987C20.3992 2.25087 20.3078 1.74139 20.0286 1.38523ZM6.24507 11.1037L11.1083 8.39489L7.71897 11.6241C7.65962 11.6808 7.61226 11.7497 7.57988 11.8264C7.5475 11.9032 7.53082 11.986 7.53088 12.0698C7.53065 12.076 7.52991 12.0821 7.52987 12.0883L7.51817 14.1304L6.24507 11.1037ZM8.78306 15.6109C8.7491 15.6442 8.71316 15.6752 8.67544 15.7037L8.68971 13.2179L10.1589 14.2682L8.78306 15.6109ZM19.1438 2.57456L16.3877 16.4195C16.3599 16.5591 16.2694 16.8838 16.0294 16.8838C15.9173 16.8838 15.7782 16.8239 15.6379 16.7151C15.6319 16.7104 15.6258 16.7058 15.6196 16.7014L11.422 13.7006L11.4203 13.6994L9.047 12.0027L15.3163 6.02976C15.421 5.93001 15.487 5.79399 15.502 5.64725C15.5169 5.50051 15.4798 5.35314 15.3976 5.23281C15.3154 5.11248 15.1937 5.02746 15.0554 4.99373C14.917 4.96 14.7716 4.97987 14.6464 5.0496L5.45009 10.1719L1.87616 8.81158C1.87355 8.81057 1.87094 8.80959 1.86831 8.80863L18.7028 2.18376C18.8447 2.12791 18.9437 2.1162 19.0018 2.1162C19.0306 2.1162 19.1002 2.11951 19.1242 2.1502C19.155 2.18949 19.1938 2.32311 19.1438 2.57456Z" fill="black"/>
<path d="M20.0286 1.38523C19.7857 1.07543 19.421 0.904785 19.0018 0.904785C18.7756 0.904785 18.5359 0.953969 18.2895 1.05092L1.4377 7.68262C0.541678 8.0353 0.421079 8.56618 0.428932 8.85123C0.436747 9.13486 0.584911 9.65391 1.4868 9.95354L5.06065 11.3138L6.94417 15.7919C7.13351 16.4113 7.52913 16.8458 8.03408 16.9867C8.14983 17.019 8.26918 17.0353 8.38903 17.0352C8.79912 17.0352 9.219 16.8476 9.58161 16.4939L11.1421 14.9711L14.9496 17.6931C15.2925 17.9563 15.6656 18.0953 16.0294 18.0953C16.7679 18.0952 17.3568 17.5338 17.5299 16.6649L20.286 2.81987C20.3992 2.25087 20.3078 1.74139 20.0286 1.38523ZM6.24507 11.1037L11.1083 8.39489L7.71897 11.6241C7.65962 11.6808 7.61226 11.7497 7.57988 11.8264C7.5475 11.9032 7.53082 11.986 7.53088 12.0698C7.53065 12.076 7.52991 12.0821 7.52987 12.0883L7.51817 14.1304L6.24507 11.1037ZM8.78306 15.6109C8.7491 15.6442 8.71316 15.6752 8.67544 15.7037L8.68971 13.2179L10.1589 14.2682L8.78306 15.6109ZM19.1438 2.57456L16.3877 16.4195C16.3599 16.5591 16.2694 16.8838 16.0294 16.8838C15.9173 16.8838 15.7782 16.8239 15.6379 16.7151C15.6319 16.7104 15.6258 16.7058 15.6196 16.7014L11.422 13.7006L11.4203 13.6994L9.047 12.0027L15.3163 6.02976C15.421 5.93001 15.487 5.79399 15.502 5.64725C15.5169 5.50051 15.4798 5.35314 15.3976 5.23281C15.3154 5.11248 15.1937 5.02746 15.0554 4.99373C14.917 4.96 14.7716 4.97987 14.6464 5.0496L5.45009 10.1719L1.87616 8.81158C1.87355 8.81057 1.87094 8.80959 1.86831 8.80863L18.7028 2.18376C18.8447 2.12791 18.9437 2.1162 19.0018 2.1162C19.0306 2.1162 19.1002 2.11951 19.1242 2.1502C19.155 2.18949 19.1938 2.32311 19.1438 2.57456Z" fill="url(#paint0_linear_2214_712)"/>
<defs>
<linearGradient id="paint0_linear_2214_712" x1="9.90453" y1="0.904785" x2="9.90453" y2="18.0953" gradientUnits="userSpaceOnUse">
<stop stop-color="#C7B498"/>
<stop offset="1" stop-color="#A38C6B"/>
</linearGradient>
</defs>
</svg>
