<svg width="16" height="16" viewBox="0 0 16 16" fill="none" xmlns="http://www.w3.org/2000/svg">
<path d="M7.99996 0C5.87824 3.16161e-08 3.84342 0.842851 2.34313 2.34313C0.842851 3.84342 0 5.87824 0 7.99996C0 10.1217 0.842851 12.1565 2.34313 13.6568C3.84342 15.1571 5.87824 15.9999 7.99996 15.9999C8.32684 16.0005 8.65339 15.9791 8.97741 15.9359C9.09314 15.9359 9.20413 15.8899 9.28597 15.8081C9.3678 15.7263 9.41377 15.6153 9.41377 15.4996C9.41251 15.4374 9.39824 15.3762 9.37189 15.3199C9.34553 15.2636 9.30768 15.2135 9.26076 15.1727C9.21384 15.1319 9.1589 15.1014 9.09947 15.0831C9.04005 15.0649 8.97746 15.0593 8.91574 15.0667C7.43738 15.2602 5.93554 14.9858 4.62105 14.2822C3.30655 13.5786 2.24539 12.481 1.58653 11.1435C0.927667 9.80601 0.704179 8.29577 0.947438 6.82478C1.1907 5.35379 1.88849 3.9959 2.94286 2.94173C3.99723 1.88756 5.35525 1.19002 6.82629 0.947042C8.29733 0.704062 9.80752 0.927836 11.1449 1.58695C12.4823 2.24607 13.5797 3.30743 14.283 4.62206C14.9864 5.93669 15.2604 7.43858 15.0667 8.9169C15.0594 8.97379 15.0635 9.03155 15.0785 9.08688C15.0936 9.14222 15.1195 9.19403 15.1546 9.23937C15.1897 9.2847 15.2334 9.32267 15.2832 9.3511C15.333 9.37953 15.388 9.39786 15.4449 9.40505C15.5594 9.41798 15.6744 9.38569 15.7655 9.31505C15.8566 9.24442 15.9165 9.14101 15.9324 9.02687C15.9766 8.68634 15.9992 8.34335 15.9999 7.99996C15.9975 5.879 15.1538 3.84561 13.6541 2.34586C12.1543 0.846105 10.1209 0.00246373 7.99996 0Z" fill="#A2845E"/>
<path d="M3.53086 12.0759C3.5236 12.1327 3.52761 12.1905 3.54265 12.2458C3.5577 12.3011 3.58349 12.3529 3.61855 12.3982C3.65362 12.4435 3.69727 12.4815 3.74701 12.5099C3.79675 12.5384 3.85161 12.5568 3.90846 12.564C4.0232 12.5775 4.13863 12.5454 4.22999 12.4747C4.32135 12.404 4.38138 12.3003 4.39718 12.1859C4.51164 11.3106 4.94033 10.5067 5.60342 9.92401C6.26651 9.34131 7.11879 9.01948 8.00153 9.01846C8.55576 9.01555 9.10309 9.14143 9.60036 9.38617C9.65188 9.41331 9.70832 9.42985 9.76634 9.43484C9.82435 9.43983 9.88278 9.43315 9.93818 9.41521C9.99358 9.39726 10.0448 9.36841 10.0889 9.33035C10.133 9.29229 10.169 9.24579 10.1948 9.1936C10.2206 9.14141 10.2358 9.08457 10.2393 9.02644C10.2428 8.96832 10.2346 8.91008 10.2153 8.85515C10.196 8.80022 10.1658 8.74972 10.1267 8.70663C10.0875 8.66353 10.0401 8.62871 9.98727 8.60421C9.91454 8.56872 9.83949 8.54195 9.76618 8.50995C10.3841 8.12633 10.8602 7.55176 11.1223 6.8733C11.3844 6.19484 11.4183 5.44943 11.2188 4.75C11.0192 4.05057 10.5972 3.43521 10.0166 2.99714C9.43599 2.55907 8.72843 2.32215 8.00109 2.32227C7.27376 2.32239 6.56628 2.55954 5.98581 2.9978C5.40535 3.43607 4.98352 4.05156 4.78423 4.75106C4.58495 5.45056 4.61905 6.19595 4.88139 6.87433C5.14372 7.55271 5.61999 8.12711 6.23805 8.51054C5.51534 8.81753 4.88537 9.308 4.41053 9.93337C3.93569 10.5587 3.63246 11.2973 3.53086 12.0759ZM5.52882 5.67302C5.52882 5.18397 5.67384 4.70589 5.94554 4.29926C6.21725 3.89262 6.60343 3.57568 7.05526 3.38853C7.50709 3.20138 8.00427 3.15241 8.48393 3.24782C8.96359 3.34323 9.40419 3.57873 9.75 3.92455C10.0958 4.27036 10.3313 4.71096 10.4267 5.19062C10.5221 5.67028 10.4732 6.16746 10.286 6.61929C10.0989 7.07112 9.78193 7.45731 9.3753 7.72901C8.96866 8.00072 8.49059 8.14574 8.00153 8.14574C7.34596 8.14497 6.71746 7.8842 6.25391 7.42065C5.79035 6.95709 5.52959 6.32859 5.52882 5.67302ZM12.6561 9.30937C11.9944 9.30937 11.3476 9.50558 10.7974 9.87318C10.2473 10.2408 9.81848 10.7633 9.56527 11.3746C9.31206 11.9859 9.24581 12.6585 9.3749 13.3075C9.50398 13.9564 9.8226 14.5525 10.2905 15.0204C10.7583 15.4883 11.3544 15.8069 12.0034 15.936C12.6523 16.0651 13.325 15.9988 13.9363 15.7456C14.5476 15.4924 15.0701 15.0636 15.4377 14.5134C15.8053 13.9633 16.0015 13.3165 16.0015 12.6548C16.0006 11.7678 15.6478 10.9174 15.0206 10.2902C14.3934 9.66305 13.543 9.31029 12.6561 9.30937ZM12.6561 15.1275C12.167 15.1275 11.6889 14.9825 11.2823 14.7108C10.8757 14.4391 10.5587 14.0529 10.3716 13.6011C10.1844 13.1492 10.1354 12.6521 10.2309 12.1724C10.3263 11.6927 10.5618 11.2521 10.9076 10.9063C11.2534 10.5605 11.694 10.325 12.1737 10.2296C12.6533 10.1342 13.1505 10.1832 13.6023 10.3703C14.0542 10.5575 14.4403 10.8744 14.712 11.281C14.9837 11.6877 15.1288 12.1658 15.1288 12.6548C15.128 13.3104 14.8672 13.9389 14.4037 14.4024C13.9401 14.866 13.3116 15.1268 12.6561 15.1275Z" fill="#A2845E"/>
<path d="M12.9627 11.1832C12.8799 11.1033 12.7693 11.0586 12.6543 11.0586C12.5392 11.0586 12.4287 11.1033 12.3459 11.1832L11.1823 12.3468C11.1006 12.4286 11.0547 12.5395 11.0547 12.6552C11.0547 12.7708 11.1006 12.8817 11.1823 12.9635C11.265 13.0436 11.3756 13.0883 11.4907 13.0883C11.6058 13.0883 11.7163 13.0436 11.799 12.9635L12.2179 12.5446V13.8188C12.2179 13.9345 12.2639 14.0455 12.3457 14.1274C12.4276 14.2092 12.5386 14.2552 12.6543 14.2552C12.77 14.2552 12.881 14.2092 12.9629 14.1274C13.0447 14.0455 13.0907 13.9345 13.0907 13.8188V12.5446L13.5096 12.9635C13.5922 13.0437 13.7028 13.0886 13.8179 13.0886C13.9331 13.0886 14.0437 13.0437 14.1263 12.9635C14.208 12.8817 14.2539 12.7708 14.2539 12.6552C14.2539 12.5395 14.208 12.4286 14.1263 12.3468L12.9627 11.1832Z" fill="#A2845E"/>
</svg>
