<svg width="137" height="165" viewBox="0 0 137 165" fill="none" xmlns="http://www.w3.org/2000/svg">
<path d="M67.4697 79.4953C78.2825 79.4953 87.6445 75.5968 95.2963 67.9053C102.946 60.2154 106.825 50.8061 106.825 39.936C106.825 29.069 102.947 19.6588 95.295 11.966C87.6432 4.2771 78.2812 0.378906 67.4697 0.378906C56.6553 0.378906 47.2942 4.2771 39.644 11.9673C31.9938 19.6575 28.1141 29.0681 28.1141 39.936C28.1141 50.8061 31.9935 60.2167 39.6443 67.9069C47.2971 75.5958 56.6591 79.4953 67.4693 79.4953H67.4697ZM46.4156 18.7728C52.2857 12.8719 59.1723 10.0038 67.4697 10.0038C75.7658 10.0038 82.6533 12.8719 88.5246 18.7728C94.3951 24.6746 97.2497 31.5978 97.2497 39.9357C97.2497 48.2761 94.3951 55.1983 88.5246 61.1002C82.6533 67.0023 75.7658 69.8705 67.4697 69.8705C59.1745 69.8705 52.2886 67.001 46.4156 61.1002C40.5439 55.1996 37.6893 48.2764 37.6893 39.936C37.6893 31.5978 40.5439 24.6746 46.4156 18.7728ZM136.331 126.673C136.11 123.473 135.664 119.982 135.007 116.296C134.344 112.581 133.49 109.07 132.467 105.861C131.41 102.544 129.976 99.2689 128.199 96.1297C126.358 92.8718 124.194 90.0347 121.765 87.7004C119.226 85.2582 116.117 83.2947 112.522 81.8621C108.939 80.4378 104.968 79.716 100.721 79.716C99.0534 79.716 97.4405 80.4038 94.3252 82.4427C92.1107 83.8922 89.8896 85.3315 87.662 86.7605C85.5216 88.1315 82.622 89.4159 79.0404 90.5788C75.5462 91.7153 71.9984 92.2918 68.4953 92.2918C64.9951 92.2918 61.447 91.7153 57.9503 90.5788C54.3728 89.4169 51.4719 88.1328 49.335 86.7618C46.8554 85.1691 44.6119 83.7156 42.6659 82.4411C39.553 80.4025 37.9398 79.7144 36.2721 79.7144C32.0235 79.7144 28.0544 80.4375 24.4728 81.8637C20.8801 83.2934 17.7698 85.257 15.2279 87.7017C12.7997 90.0373 10.6356 92.8727 8.79554 96.1297C7.02181 99.2686 5.58572 102.543 4.52844 105.862C3.50722 109.071 2.65354 112.581 1.99039 116.296C1.33202 119.977 0.887153 123.469 0.666315 126.677C0.449306 129.813 0.339844 133.078 0.339844 136.376C0.339844 144.949 3.05118 151.89 8.3979 157.009C13.6786 162.061 20.6647 164.621 29.1625 164.621H107.838C116.334 164.621 123.32 162.06 128.602 157.009C133.95 151.894 136.661 144.951 136.661 136.375C136.66 133.065 136.549 129.801 136.331 126.673ZM122 150.036C118.51 153.374 113.878 154.996 107.837 154.996H29.1628C23.1207 154.996 18.4882 153.374 15.0001 150.037C11.5784 146.763 9.91537 142.293 9.91537 136.376C9.91537 133.298 10.0162 130.26 10.2185 127.342C10.4151 124.48 10.8179 121.336 11.4153 117.996C12.0047 114.696 12.755 111.6 13.6476 108.797C14.5041 106.109 15.6722 103.448 17.1207 100.884C18.5032 98.4403 20.0937 96.344 21.8489 94.655C23.4909 93.0748 25.5604 91.7817 27.9986 90.812C30.2536 89.9145 32.7881 89.4233 35.5393 89.3492C35.8744 89.5289 36.4718 89.8708 37.4391 90.5047C39.4075 91.7943 41.6762 93.2654 44.1846 94.8754C47.0121 96.6875 50.6543 98.3239 55.0063 99.736C59.4553 101.182 63.993 101.916 68.4969 101.916C73.0012 101.916 77.5398 101.182 81.9866 99.7372C86.3421 98.3226 89.9834 96.6875 92.8147 94.8728C95.3815 93.224 97.5867 91.7955 99.5548 90.5047C100.522 89.8718 101.119 89.5285 101.455 89.3495C104.207 89.4233 106.742 89.9145 108.998 90.8117C111.435 91.7817 113.505 93.0761 115.146 94.6547C116.901 96.3427 118.492 98.4393 119.874 100.885C121.324 103.448 122.494 106.111 123.349 108.796C124.243 111.603 124.994 114.698 125.583 117.994C126.179 121.342 126.583 124.487 126.779 127.344V127.346C126.983 130.252 127.085 133.29 127.086 136.376C127.085 142.294 125.422 146.763 122 150.036H122Z" fill="#3F3C39" fillOpacity="0.3"/>
</svg>
