<svg width="20" height="19" viewBox="0 0 20 19" fill="none" xmlns="http://www.w3.org/2000/svg">
<path d="M14.1926 11.3266L14.1855 11.386C12.4446 10.5183 12.2626 10.4027 12.0377 10.74C11.8818 10.9735 11.4274 11.5031 11.2904 11.6599C11.1519 11.8143 11.0141 11.8261 10.779 11.7193C10.5415 11.6005 9.77914 11.3511 8.87665 10.5437C8.17367 9.91429 7.70184 9.14243 7.56251 8.90493C7.33056 8.50436 7.81584 8.44736 8.25758 7.61137C8.33675 7.44513 8.29637 7.3145 8.23779 7.19655C8.17842 7.0778 7.7058 5.91407 7.50789 5.45016C7.31789 4.98784 7.12235 5.04642 6.9759 5.04642C6.5199 5.00684 6.18662 5.01317 5.89292 5.31875C4.61519 6.72314 4.93739 8.17186 6.03066 9.71242C8.17921 12.5244 9.32394 13.0421 11.4171 13.7609C11.9823 13.9406 12.4977 13.9153 12.9054 13.8567C13.3598 13.7847 14.3042 13.2859 14.5013 12.7278C14.7032 12.1697 14.7032 11.7066 14.6438 11.5997C14.5853 11.4928 14.4301 11.4335 14.1926 11.3266Z" fill="black"/>
<path d="M14.1926 11.3266L14.1855 11.386C12.4446 10.5183 12.2626 10.4027 12.0377 10.74C11.8818 10.9735 11.4274 11.5031 11.2904 11.6599C11.1519 11.8143 11.0141 11.8261 10.779 11.7193C10.5415 11.6005 9.77914 11.3511 8.87665 10.5437C8.17367 9.91429 7.70184 9.14243 7.56251 8.90493C7.33056 8.50436 7.81584 8.44736 8.25758 7.61137C8.33675 7.44513 8.29637 7.3145 8.23779 7.19655C8.17842 7.0778 7.7058 5.91407 7.50789 5.45016C7.31789 4.98784 7.12235 5.04642 6.9759 5.04642C6.5199 5.00684 6.18662 5.01317 5.89292 5.31875C4.61519 6.72314 4.93739 8.17186 6.03066 9.71242C8.17921 12.5244 9.32394 13.0421 11.4171 13.7609C11.9823 13.9406 12.4977 13.9153 12.9054 13.8567C13.3598 13.7847 14.3042 13.2859 14.5013 12.7278C14.7032 12.1697 14.7032 11.7066 14.6438 11.5997C14.5853 11.4928 14.4301 11.4335 14.1926 11.3266Z" fill="url(#paint0_linear_2214_708)"/>
<path d="M16.5781 2.73075C10.4911 -3.1536 0.417289 1.1142 0.413331 9.41546C0.413331 11.0748 0.847948 12.6929 1.67602 14.1218L0.333374 19L5.34849 17.6922C11.6065 21.0725 19.3299 16.5839 19.333 9.42021C19.333 6.90593 18.3514 4.53968 16.5662 2.76163L16.5781 2.73075ZM17.7513 9.39409C17.7466 15.4368 11.1133 19.2106 5.86702 16.1263L5.58203 15.9569L2.61333 16.7288L3.40894 13.8432L3.21974 13.5463C-0.0450359 8.34911 3.70581 1.55673 9.8902 1.55673C10.923 1.55413 11.946 1.7564 12.9001 2.15184C13.8541 2.54727 14.7203 3.12801 15.4484 3.86044C16.1805 4.58367 16.7612 5.44549 17.1566 6.39558C17.5519 7.34567 17.7541 8.36501 17.7513 9.39409Z" fill="black"/>
<path d="M16.5781 2.73075C10.4911 -3.1536 0.417289 1.1142 0.413331 9.41546C0.413331 11.0748 0.847948 12.6929 1.67602 14.1218L0.333374 19L5.34849 17.6922C11.6065 21.0725 19.3299 16.5839 19.333 9.42021C19.333 6.90593 18.3514 4.53968 16.5662 2.76163L16.5781 2.73075ZM17.7513 9.39409C17.7466 15.4368 11.1133 19.2106 5.86702 16.1263L5.58203 15.9569L2.61333 16.7288L3.40894 13.8432L3.21974 13.5463C-0.0450359 8.34911 3.70581 1.55673 9.8902 1.55673C10.923 1.55413 11.946 1.7564 12.9001 2.15184C13.8541 2.54727 14.7203 3.12801 15.4484 3.86044C16.1805 4.58367 16.7612 5.44549 17.1566 6.39558C17.5519 7.34567 17.7541 8.36501 17.7513 9.39409Z" fill="url(#paint1_linear_2214_708)"/>
<defs>
<linearGradient id="paint0_linear_2214_708" x1="9.6412" y1="5.0293" x2="9.6412" y2="13.9002" gradientUnits="userSpaceOnUse">
<stop stop-color="#C7B498"/>
<stop offset="1" stop-color="#A38C6B"/>
</linearGradient>
<linearGradient id="paint1_linear_2214_708" x1="9.37842" y1="4.24795e-08" x2="9.37842" y2="19" gradientUnits="userSpaceOnUse">
<stop stop-color="#C7B498"/>
<stop offset="1" stop-color="#A38C6B"/>
</linearGradient>
</defs>
</svg>
