<svg width="13" height="13" viewBox="0 0 13 13" fill="none" xmlns="http://www.w3.org/2000/svg">
<path d="M12.743 1.57128C12.9098 1.39891 13.0021 1.16805 13 0.92843C12.9979 0.688806 12.9016 0.459586 12.7319 0.290139C12.5621 0.120693 12.3325 0.0245772 12.0925 0.022495C11.8524 0.0204127 11.6212 0.11253 11.4485 0.279006L6.51125 5.20773L1.574 0.279006C1.48954 0.191718 1.38853 0.122095 1.27683 0.0741976C1.16514 0.0263004 1.04501 0.00108899 0.923448 3.45066e-05C0.80189 -0.00101998 0.681338 0.0221033 0.568827 0.0680556C0.456316 0.114008 0.3541 0.181869 0.268142 0.267678C0.182183 0.353488 0.114205 0.455528 0.0681734 0.567844C0.0221416 0.680161 -0.00102174 0.800504 3.45663e-05 0.921853C0.00109088 1.0432 0.0263459 1.16312 0.074326 1.27463C0.122306 1.38613 0.19205 1.48697 0.279489 1.57128L5.21674 6.5L0.279489 11.4287C0.19205 11.513 0.122306 11.6139 0.074326 11.7254C0.0263459 11.8369 0.00109088 11.9568 3.45663e-05 12.0781C-0.00102174 12.1995 0.0221416 12.3198 0.0681734 12.4322C0.114205 12.5445 0.182183 12.6465 0.268142 12.7323C0.3541 12.8181 0.456316 12.886 0.568827 12.9319C0.681338 12.9779 0.80189 13.001 0.923448 13C1.04501 12.9989 1.16514 12.9737 1.27683 12.9258C1.38853 12.8779 1.48954 12.8083 1.574 12.721L6.51125 7.79227L11.4485 12.721C11.6212 12.8875 11.8524 12.9796 12.0925 12.9775C12.3325 12.9754 12.5621 12.8793 12.7319 12.7099C12.9016 12.5404 12.9979 12.3112 13 12.0716C13.0021 11.8319 12.9098 11.6011 12.743 11.4287L7.80576 6.5L12.743 1.57128Z" fill="#3F3C39" fillOpacity="0.3"/>
</svg>
